{
.appVersion = "1266";
copyright = "2009 - 2011, The League of Moveable Type";
customParameters = (
{
name = Axes;
value = (
{
Name = Slant;
Tag = slnt;
},
{
Name = Width;
Tag = wdth;
}
);
},
{
name = "Axis Mappings";
value = {
slnt = {
-90 = 90;
};
wdth = {
1 = 9;
};
};
}
);
date = "2019-09-27 21:56:54 +0000";
designer = "The League of Moveable Type";
designerURL = "http://theleagueofmoveabletype.com";
disablesNiceNames = 1;
familyName = "League Gothic";
fontMaster = (
{
alignmentZones = (
"{1470, 17}",
"{1470, 9}",
"{1094, 17}",
"{0, -17}",
"{-530, -31}"
);
ascender = 1470;
capHeight = 1470;
customParameters = (
{
name = openTypeHheaAscender;
value = 1470;
},
{
name = openTypeHheaDescender;
value = -530;
},
{
name = "Master Icon Glyph Name";
value = a;
}
);
descender = -530;
id = "1AB499B8-18A8-432D-A211-B6882CCB886D";
verticalStems = (
202,
216
);
weightValue = 0;
xHeight = 1094;
},
{
alignmentZones = (
"{1470, 16}",
"{1094, 16}",
"{0, -16}",
"{-376, -16}",
"{-530, -31}"
);
ascender = 1470;
capHeight = 1470;
custom = Italic;
customParameters = (
{
name = TypoAscender;
value = 735;
},
{
name = TypoDescender;
value = "-265";
},
{
name = postscriptUnderlinePosition;
value = -150;
},
{
name = "Master Icon Glyph Name";
value = a;
}
);
descender = -530;
id = "E10EC336-1202-48FF-9A55-15876E80CDFD";
verticalStems = (
202,
216
);
weightValue = 8;
xHeight = 1094;
},
{
alignmentZones = (
"{1470, 16}",
"{1094, 16}",
"{0, -16}",
"{-376, -16}",
"{-530, -31}"
);
ascender = 1470;
capHeight = 1470;
customParameters = (
{
name = TypoAscender;
value = 735;
},
{
name = TypoDescender;
value = "-265";
},
{
name = "Master Icon Glyph Name";
value = a;
}
);
descender = -530;
horizontalStems = (
164,
180,
222,
1470
);
id = "6463F33F-C059-4755-9C76-9F35D70521A0";
verticalStems = (
122,
150,
166
);
weightValue = 0;
width = Condensed;
widthValue = 25;
xHeight = 1094;
},
{
alignmentZones = (
"{1470, 16}",
"{1094, 16}",
"{0, -16}",
"{-376, -16}",
"{-530, -31}"
);
ascender = 1470;

glyphs = (
{
color = 3;
glyphname = A;
lastChange = "2019-09-30 00:43:38 +0000";
layers = (
{
anchors = (
{
name = ogonek;
position = "{674, 20}";
},
{
name = top;
position = "{374, 1470}";
}
);
layerId = "1AB499B8-18A8-432D-A211-B6882CCB886D";
paths = (
{
closed = 1;
nodes = (
"230 0 LINE",
"282 390 LINE",
"179 300 LINE",
"569 300 LINE",
"466 390 LINE",
"518 0 LINE",
"728 0 LINE",
"506 1470 LINE",
"242 1470 LINE",
"20 0 LINE"
);
},
{
closed = 1;
nodes = (
"362 992 LINE",
"368 1030 LINE",
"380 1030 LINE",
"386 992 LINE",
"460 438 LINE",
"539 528 LINE",
"209 528 LINE",
"288 438 LINE"
);
}
);
width = 748;
},
{
anchors = (
{
name = ogonek;
position = "{674, 20}";
},
{
name = top;
position = "{374, 1470}";
}
);
layerId = "E10EC336-1202-48FF-9A55-15876E80CDFD";
paths = (
{
closed = 1;
nodes = (
"230 0 LINE",
"361 386 LINE",
"241 300 LINE",
"631 300 LINE",
"547 391 LINE",
"518 0 LINE",
"728 0 LINE",
"818 1470 LINE",
"554 1470 LINE",
"20 0 LINE"
);
},
{
closed = 1;
nodes = (
"572 992 LINE",
"586 1030 LINE",
"598 1030 LINE",
"596 992 LINE",
"553 437 LINE",
"651 528 LINE",
"321 528 LINE",
"382 442 LINE"
);
}
);
width = 748;
},
{
anchors = (
{
name = ogonek;
position = "{458, 20}";
},
{
name = top;
position = "{254, 1470}";
}
);
layerId = "38BA14EB-08C8-4487-88C1-8F957131FCA1";
paths = (
{
closed = 1;
nodes = (
"76 0 LINE",
"177 353 LINE",
"107 300 LINE",
"309 300 LINE",
"262 354 LINE",
"212 0 LINE",
"374 0 LINE",
"556 1470 LINE",
"362 1470 LINE",
"-84 0 LINE"
);
},
{
closed = 1;
nodes = (
"389 1139 LINE",
"396 1165 LINE",
"391 1166 LINE",
"387 1140 LINE",
"281 474 LINE",
"345 528 LINE",
"173 528 LINE",
"214 475 LINE"
);
}
);
width = 508;
},
{
anchors = (
{
name = ogonek;
position = "{458, 20}";
},
{
name = top;
position = "{254, 1470}";
}
);
layerId = "6463F33F-C059-4755-9C76-9F35D70521A0";
paths = (
{
closed = 1;
nodes = (
"156 0 LINE",
"182 355 LINE",
"123 300 LINE",
"325 300 LINE",
"266 355 LINE",
"292 0 LINE",
"454 0 LINE",
"322 1470 LINE",
"128 1470 LINE",
"-6 0 LINE"
);
},
{
closed = 1;
nodes = (
"225 1107 LINE",
"225 1112 LINE",
"223 1112 LINE",
"223 1107 LINE",
"259 473 LINE",
"311 528 LINE",
"139 528 LINE",
"191 473 LINE"
);
}
);
width = 508;
}
);
leftKerningGroup = A;
rightKerningGroup = A;
unicode = 0041;
},
{
color = 0;
glyphname = Aacute;
lastChange = "2019-09-28 02:44:04 +0000";
layers = (
{
layerId = "1AB499B8-18A8-432D-A211-B6882CCB886D";
paths = (
{
closed = 1;
nodes = (
"20 0 LINE",
"242 1470 LINE",
"506 1470 LINE",
"728 0 LINE",
"518 0 LINE",
"478 300 LINE",
"270 300 LINE",
"230 0 LINE"
);
},
{
closed = 1;
nodes = (
"386 992 LINE",
"380 1030 LINE",
"368 1030 LINE",
"362 992 LINE",
"300 528 LINE",
"448 528 LINE"
);
},
{
closed = 1;
nodes = (
"600 1780 LINE",
"442 1600 LINE",
"286 1600 LINE",
"390 1780 LINE"
);
}
);
width = 748;
},
{
layerId = "E10EC336-1202-48FF-9A55-15876E80CDFD";
paths = (
{
closed = 1;
nodes = (
"978 1780 LINE",
"782 1600 LINE",
"626 1600 LINE",
"768 1780 LINE"
);
},
{
closed = 1;
nodes = (
"20 0 LINE",
"554 1470 LINE",
"818 1470 LINE",
"728 0 LINE",
"518 0 LINE",
"540 300 LINE",
"332 300 LINE",
"230 0 LINE"
);
},
{
closed = 1;
nodes = (
"596 992 LINE",
"598 1030 LINE",
"586 1030 LINE",
"572 992 LINE",
"412 528 LINE",
"560 528 LINE"
);
}
);
width = 748;
},
{
layerId = "38BA14EB-08C8-4487-88C1-8F957131FCA1";
paths = (
{
closed = 1;
nodes = (
"498 1780 LINE",
"398 1600 LINE",
"526 1600 LINE",
"658 1780 LINE"
);
},
{
closed = 1;
nodes = (
"60 0 LINE",
"146 300 LINE",
"238 300 LINE",
"196 0 LINE",
"358 0 LINE",
"538 1470 LINE",
"344 1470 LINE",
"-100 0 LINE"
);
},
{
closed = 1;
nodes = (
"272 528 LINE",
"210 528 LINE",
"364 1112 LINE"
);
}
);
width = 508;
},
{
layerId = "6463F33F-C059-4755-9C76-9F35D70521A0";
paths = (
{
closed = 1;
nodes = (
"216 1780 LINE",
"154 1600 LINE",
"282 1600 LINE",
"376 1780 LINE"
);
},
{
closed = 1;
nodes = (
"156 0 LINE",
"178 300 LINE",
"270 300 LINE",
"292 0 LINE",
"454 0 LINE",
"322 1470 LINE",
"128 1470 LINE",
"-6 0 LINE"
);
},
{
closed = 1;
nodes = (
"256 528 LINE",
"194 528 LINE",
"224 1112 LINE"
);
}
);
width = 508;
}
);
leftKerningGroup = A;
rightKerningGroup = A;
unicode = 00C1;
},
{
color = 0;
glyphname = Abreve;
lastChange = "2019-09-28 02:44:04 +0000";
layers = (
{
layerId = "1AB499B8-18A8-432D-A211-B6882CCB886D";
paths = (
{
closed = 1;
nodes = (
"20 0 LINE",
"242 1470 LINE",
"506 1470 LINE",
"728 0 LINE",
"518 0 LINE",
"478 300 LINE",
"270 300 LINE",
"230 0 LINE"
);
},
{
closed = 1;
nodes = (
"386 992 LINE",
"380 1030 LINE",
"368 1030 LINE",
"362 992 LINE",
"300 528 LINE",
"448 528 LINE"
);
},
{
closed = 1;
nodes = (
"596 1742 LINE",
"562 1708 OFFCURVE",
"522 1680 OFFCURVE",
"468 1662 CURVE",
"442 1652 OFFCURVE",
"410 1648 OFFCURVE",
"376 1648 CURVE SMOOTH",
"306 1648 OFFCURVE",
"252 1670 OFFCURVE",
"214 1694 CURVE SMOOTH",
"192 1708 OFFCURVE",
"172 1724 OFFCURVE",
"156 1742 CURVE",
"264 1834 LINE",
"278 1816 OFFCURVE",
"300 1802 OFFCURVE",
"328 1794 CURVE SMOOTH",
"342 1790 OFFCURVE",
"358 1788 OFFCURVE",
"376 1788 CURVE SMOOTH",
"414 1788 OFFCURVE",
"440 1796 OFFCURVE",
"462 1810 CURVE",
"474 1816 OFFCURVE",
"484 1824 OFFCURVE",
"492 1834 CURVE"
);
}
);
width = 748;
},
{
layerId = "E10EC336-1202-48FF-9A55-15876E80CDFD";
paths = (
{
closed = 1;
nodes = (
"966 1742 LINE",
"924 1708 OFFCURVE",
"878 1680 OFFCURVE",
"820 1662 CURVE",
"794 1652 OFFCURVE",
"762 1648 OFFCURVE",
"726 1648 CURVE SMOOTH",
"656 1648 OFFCURVE",
"606 1670 OFFCURVE",
"574 1694 CURVE SMOOTH",
"554 1708 OFFCURVE",
"538 1724 OFFCURVE",
"526 1742 CURVE",
"652 1834 LINE",
"678 1796 OFFCURVE",
"718 1788 OFFCURVE",
"756 1788 CURVE SMOOTH",
"794 1788 OFFCURVE",
"820 1796 OFFCURVE",
"846 1810 CURVE SMOOTH",
"858 1816 OFFCURVE",
"870 1824 OFFCURVE",
"880 1834 CURVE"
);
},
{
closed = 1;
nodes = (
"20 0 LINE",
"554 1470 LINE",
"818 1470 LINE",
"728 0 LINE",
"518 0 LINE",
"540 300 LINE",
"332 300 LINE",
"230 0 LINE"
);
},
{
closed = 1;
nodes = (
"596 992 LINE",
"598 1030 LINE",
"586 1030 LINE",
"572 992 LINE",
"412 528 LINE",
"560 528 LINE"
);
}
);
width = 748;
},
{
layerId = "38BA14EB-08C8-4487-88C1-8F957131FCA1";
paths = (
{
closed = 1;
nodes = (
"56 0 LINE",
"142 300 LINE",
"234 300 LINE",
"192 0 LINE",
"354 0 LINE",
"536 1470 LINE",
"342 1470 LINE",
"-104 0 LINE"
);
},
{
closed = 1;
nodes = (
"268 528 LINE",
"206 528 LINE",
"360 1112 LINE"
);
},
{
closed = 1;
nodes = (
"592 1850 LINE",
"592 1850 OFFCURVE",
"540 1788 OFFCURVE",
"508 1788 CURVE SMOOTH",
"472 1788 OFFCURVE",
"456 1852 OFFCURVE",
"456 1852 CURVE",
"350 1738 LINE",
"364 1686 OFFCURVE",
"416 1642 OFFCURVE",
"478 1642 CURVE SMOOTH",
"540 1642 OFFCURVE",
"598 1682 OFFCURVE",
"646 1738 CURVE"
);
}
);
width = 508;
},
{
layerId = "6463F33F-C059-4755-9C76-9F35D70521A0";
paths = (
{
closed = 1;
nodes = (
"156 0 LINE",
"178 300 LINE",
"270 300 LINE",
"292 0 LINE",
"454 0 LINE",
"322 1470 LINE",
"128 1470 LINE",
"-6 0 LINE"
);
},
{
closed = 1;
nodes = (
"256 528 LINE",
"194 528 LINE",
"224 1112 LINE"
);
},
{
closed = 1;
nodes = (
"298 1850 LINE",
"298 1850 OFFCURVE",
"260 1788 OFFCURVE",
"228 1788 CURVE SMOOTH",
"192 1788 OFFCURVE",
"162 1852 OFFCURVE",
"162 1852 CURVE",
"80 1738 LINE",
"106 1686 OFFCURVE",
"166 1642 OFFCURVE",
"228 1642 CURVE SMOOTH",
"290 1642 OFFCURVE",
"340 1682 OFFCURVE",
"376 1738 CURVE"
);
}
);
width = 508;
}
);
unicode = 0102;
},
{
color = 0;
glyphname = Acircumflex;
lastChange = "2019-09-28 02:44:04 +0000";
layers = (
{
layerId = "1AB499B8-18A8-432D-A211-B6882CCB886D";
paths = (
{
closed = 1;
nodes = (
"20 0 LINE",
"242 1470 LINE",
"506 1470 LINE",
"728 0 LINE",
"518 0 LINE",
"478 300 LINE",
"270 300 LINE",
"230 0 LINE"
);
},
{
closed = 1;
nodes = (
"386 992 LINE",
"380 1030 LINE",
"368 1030 LINE",
"362 992 LINE",
"300 528 LINE",
"448 528 LINE"
);
},
{
closed = 1;
nodes = (
"482 1780 LINE",
"620 1600 LINE",
"436 1600 LINE",
"374 1670 LINE",
"314 1600 LINE",
"130 1600 LINE",
"268 1780 LINE"
);
}
);
width = 748;
},
{
layerId = "E10EC336-1202-48FF-9A55-15876E80CDFD";
paths = (
{
closed = 1;
nodes = (
"860 1780 LINE",
"960 1600 LINE",
"776 1600 LINE",
"728 1670 LINE",
"654 1600 LINE",
"470 1600 LINE",
"646 1780 LINE"
);
},
{
closed = 1;
nodes = (
"20 0 LINE",
"554 1470 LINE",
"818 1470 LINE",
"728 0 LINE",
"518 0 LINE",
"540 300 LINE",
"332 300 LINE",
"230 0 LINE"
);
},
{
closed = 1;
nodes = (
"596 992 LINE",
"598 1030 LINE",
"586 1030 LINE",
"572 992 LINE",
"412 528 LINE",
"560 528 LINE"
);
}
);
width = 748;
},
{
layerId = "38BA14EB-08C8-4487-88C1-8F957131FCA1";
paths = (
{
closed = 1;
nodes = (
"428 1780 LINE",
"306 1600 LINE",
"436 1600 LINE",
"488 1678 LINE",
"504 1600 LINE",
"634 1600 LINE",
"590 1780 LINE"
);
},
{
closed = 1;
nodes = (
"60 0 LINE",
"146 300 LINE",
"238 300 LINE",
"196 0 LINE",
"358 0 LINE",
"538 1470 LINE",
"344 1470 LINE",
"-100 0 LINE"
);
},
{
closed = 1;
nodes = (
"272 528 LINE",
"210 528 LINE",
"364 1112 LINE"
);
}
);
width = 508;
},
{
layerId = "6463F33F-C059-4755-9C76-9F35D70521A0";
paths = (
{
closed = 1;
nodes = (
"146 1780 LINE",
"62 1600 LINE",
"192 1600 LINE",
"226 1678 LINE",
"260 1600 LINE",
"390 1600 LINE",
"308 1780 LINE"
);
},
{
closed = 1;
nodes = (
"156 0 LINE",
"178 300 LINE",
"270 300 LINE",
"292 0 LINE",
"454 0 LINE",
"322 1470 LINE",
"128 1470 LINE",
"-6 0 LINE"
);
},
{
closed = 1;
nodes = (
"256 528 LINE",
"194 528 LINE",
"224 1112 LINE"
);
}
);
width = 508;
}
);
leftKerningGroup = A;
rightKerningGroup = A;
unicode = 00C2;
},
{
color = 0;
glyphname = Adieresis;
lastChange = "2019-09-28 02:44:04 +0000";
layers = (
{
layerId = "1AB499B8-18A8-432D-A211-B6882CCB886D";
paths = (
{
closed = 1;
nodes = (
"20 0 LINE",
"242 1470 LINE",
"506 1470 LINE",
"728 0 LINE",
"518 0 LINE",
"478 300 LINE",
"270 300 LINE",
"230 0 LINE"
);
},
{
closed = 1;
nodes = (
"386 992 LINE",
"380 1030 LINE",
"368 1030 LINE",
"362 992 LINE",
"300 528 LINE",
"448 528 LINE"
);
},
{
closed = 1;
nodes = (
"140 1796 LINE",
"326 1796 LINE",
"326 1600 LINE",
"140 1600 LINE"
);
},
{
closed = 1;
nodes = (
"422 1796 LINE",
"608 1796 LINE",
"608 1600 LINE",
"422 1600 LINE"
);
}
);
width = 748;
},
{
layerId = "E10EC336-1202-48FF-9A55-15876E80CDFD";
paths = (
{
closed = 1;
nodes = (
"520 1796 LINE",
"706 1796 LINE",
"666 1600 LINE",
"480 1600 LINE"
);
},
{
closed = 1;
nodes = (
"802 1796 LINE",
"988 1796 LINE",
"948 1600 LINE",
"762 1600 LINE"
);
},
{
closed = 1;
nodes = (
"20 0 LINE",
"554 1470 LINE",
"818 1470 LINE",
"728 0 LINE",
"518 0 LINE",
"540 300 LINE",
"332 300 LINE",
"230 0 LINE"
);
},
{
closed = 1;
nodes = (
"596 992 LINE",
"598 1030 LINE",
"586 1030 LINE",
"572 992 LINE",
"412 528 LINE",
"560 528 LINE"
);
}
);
width = 748;
},
{
layerId = "38BA14EB-08C8-4487-88C1-8F957131FCA1";
paths = (
{
closed = 1;
nodes = (
"300 1600 LINE",
"448 1600 LINE",
"490 1796 LINE",
"342 1796 LINE"
);
},
{
closed = 1;
nodes = (
"494 1600 LINE",
"640 1600 LINE",
"682 1796 LINE",
"536 1796 LINE"
);
},
{
closed = 1;
nodes = (
"60 0 LINE",
"148 300 LINE",
"236 300 LINE",
"196 0 LINE",
"358 0 LINE",
"538 1470 LINE",
"344 1470 LINE",
"-100 0 LINE"
);
},
{
closed = 1;
nodes = (
"270 528 LINE",
"212 528 LINE",
"352 1052 LINE"
);
}
);
width = 508;
},
{
layerId = "6463F33F-C059-4755-9C76-9F35D70521A0";
paths = (
{
closed = 1;
nodes = (
"56 1600 LINE",
"204 1600 LINE",
"204 1796 LINE",
"56 1796 LINE"
);
},
{
closed = 1;
nodes = (
"250 1600 LINE",
"396 1600 LINE",
"396 1796 LINE",
"250 1796 LINE"
);
},
{
closed = 1;
nodes = (
"156 0 LINE",
"180 300 LINE",
"268 300 LINE",
"292 0 LINE",
"454 0 LINE",
"322 1470 LINE",
"128 1470 LINE",
"-6 0 LINE"
);
},
{
closed = 1;
nodes = (
"254 528 LINE",
"196 528 LINE",
"224 1052 LINE"
);
}
);
width = 508;
}
);
leftKerningGroup = A;
rightKerningGroup = A;
unicode = 00C4;
},
{
color = 0;
glyphname = Agrave;
lastChange = "2019-09-28 02:44:04 +0000";
layers = (
{
layerId = "1AB499B8-18A8-432D-A211-B6882CCB886D";
paths = (
{
closed = 1;
nodes = (
"20 0 LINE",
"242 1470 LINE",
"506 1470 LINE",
"728 0 LINE",
"518 0 LINE",
"478 300 LINE",
"270 300 LINE",
"230 0 LINE"
);
},
{
closed = 1;
nodes = (
"386 992 LINE",
"380 1030 LINE",
"368 1030 LINE",
"362 992 LINE",
"300 528 LINE",
"448 528 LINE"
);
},
{
closed = 1;
nodes = (
"348 1780 LINE",
"452 1600 LINE",
"296 1600 LINE",
"138 1780 LINE"
);
}
);
width = 748;
},
{
layerId = "E10EC336-1202-48FF-9A55-15876E80CDFD";
paths = (
{
closed = 1;
nodes = (
"726 1780 LINE",
"792 1600 LINE",
"636 1600 LINE",
"516 1780 LINE"
);
},
{
closed = 1;
nodes = (
"20 0 LINE",
"554 1470 LINE",
"818 1470 LINE",
"728 0 LINE",
"518 0 LINE",
"540 300 LINE",
"332 300 LINE",
"230 0 LINE"
);
},
{
closed = 1;
nodes = (
"596 992 LINE",
"598 1030 LINE",
"586 1030 LINE",
"572 992 LINE",
"412 528 LINE",
"560 528 LINE"
);
}
);
width = 748;
},
{
layerId = "38BA14EB-08C8-4487-88C1-8F957131FCA1";
paths = (
{
closed = 1;
nodes = (
"348 1780 LINE",
"406 1600 LINE",
"534 1600 LINE",
"508 1780 LINE"
);
},
{
closed = 1;
nodes = (
"60 0 LINE",
"146 300 LINE",
"238 300 LINE",
"196 0 LINE",
"358 0 LINE",
"538 1470 LINE",
"344 1470 LINE",
"-100 0 LINE"
);
},
{
closed = 1;
nodes = (
"272 528 LINE",
"210 528 LINE",
"364 1112 LINE"
);
}
);
width = 508;
},
{
layerId = "6463F33F-C059-4755-9C76-9F35D70521A0";
paths = (
{
closed = 1;
nodes = (
"66 1780 LINE",
"162 1600 LINE",
"290 1600 LINE",
"226 1780 LINE"
);
},
{
closed = 1;
nodes = (
"156 0 LINE",
"178 300 LINE",
"270 300 LINE",
"292 0 LINE",
"454 0 LINE",
"322 1470 LINE",
"128 1470 LINE",
"-6 0 LINE"
);
},
{
closed = 1;
nodes = (
"256 528 LINE",
"194 528 LINE",
"224 1112 LINE"
);
}
);
width = 508;
}
);
leftKerningGroup = A;
rightKerningGroup = A;
unicode = 00C0;
},
{
color = 0;
glyphname = Amacron;
lastChange = "2019-09-28 02:44:04 +0000";
layers = (
{
layerId = "1AB499B8-18A8-432D-A211-B6882CCB886D";
paths = (
{
closed = 1;
nodes = (
"20 0 LINE",
"242 1470 LINE",
"506 1470 LINE",
"728 0 LINE",
"518 0 LINE",
"478 300 LINE",
"270 300 LINE",
"230 0 LINE"
);
},
{
closed = 1;
nodes = (
"386 992 LINE",
"380 1030 LINE",
"368 1030 LINE",
"362 992 LINE",
"300 528 LINE",
"448 528 LINE"
);
},
{
closed = 1;
nodes = (
"182 1818 LINE",
"570 1818 LINE",
"570 1660 LINE",
"182 1660 LINE"
);
}
);
width = 748;
},
{
layerId = "E10EC336-1202-48FF-9A55-15876E80CDFD";
paths = (
{
closed = 1;
nodes = (
"568 1818 LINE",
"956 1818 LINE",
"922 1660 LINE",
"534 1660 LINE"
);
},
{
closed = 1;
nodes = (
"20 0 LINE",
"554 1470 LINE",
"818 1470 LINE",
"728 0 LINE",
"518 0 LINE",
"540 300 LINE",
"332 300 LINE",
"230 0 LINE"
);
},
{
closed = 1;
nodes = (
"596 992 LINE",
"598 1030 LINE",
"586 1030 LINE",
"572 992 LINE",
"412 528 LINE",
"560 528 LINE"
);
}
);
width = 748;
},
{
layerId = "38BA14EB-08C8-4487-88C1-8F957131FCA1";
paths = (
{
closed = 1;
nodes = (
"348 1660 LINE",
"616 1660 LINE",
"648 1818 LINE",
"380 1818 LINE"
);
},
{
closed = 1;
nodes = (
"58 0 LINE",
"144 300 LINE",
"236 300 LINE",
"194 0 LINE",
"356 0 LINE",
"536 1470 LINE",
"342 1470 LINE",
"-102 0 LINE"
);
},
{
closed = 1;
nodes = (
"270 528 LINE",
"208 528 LINE",
"362 1112 LINE"
);
}
);
width = 508;
},
{
layerId = "6463F33F-C059-4755-9C76-9F35D70521A0";
paths = (
{
closed = 1;
nodes = (
"92 1660 LINE",
"360 1660 LINE",
"360 1818 LINE",
"92 1818 LINE"
);
},
{
closed = 1;
nodes = (
"156 0 LINE",
"178 300 LINE",
"270 300 LINE",
"292 0 LINE",
"454 0 LINE",
"322 1470 LINE",
"128 1470 LINE",
"-6 0 LINE"
);
},
{
closed = 1;
nodes = (
"256 528 LINE",
"194 528 LINE",
"224 1112 LINE"
);
}
);
width = 508;
}
);
unicode = 0100;
},
{
color = 0;
glyphname = Aogonek;
lastChange = "2019-09-28 02:44:04 +0000";
layers = (
{
layerId = "1AB499B8-18A8-432D-A211-B6882CCB886D";
paths = (
{
closed = 1;
nodes = (
"20 0 LINE",
"242 1470 LINE",
"506 1470 LINE",
"728 0 LINE",
"518 0 LINE",
"478 300 LINE",
"270 300 LINE",
"230 0 LINE"
);
},
{
closed = 1;
nodes = (
"386 992 LINE",
"380 1030 LINE",
"368 1030 LINE",
"362 992 LINE",
"300 528 LINE",
"448 528 LINE"
);
},
{
closed = 1;
nodes = (
"406 -150 OFFCURVE",
"438 -100 OFFCURVE",
"472 -62 CURVE",
"490 -40 OFFCURVE",
"512 -18 OFFCURVE",
"538 0 CURVE",
"634 0 LINE",
"600 -30 OFFCURVE",
"576 -60 OFFCURVE",
"558 -100 CURVE",
"548 -120 OFFCURVE",
"544 -142 OFFCURVE",
"544 -166 CURVE SMOOTH",
"544 -224 OFFCURVE",
"598 -242 OFFCURVE",
"644 -242 CURVE SMOOTH",
"678 -242 OFFCURVE",
"704 -234 OFFCURVE",
"728 -224 CURVE",
"712 -358 LINE",
"670 -372 OFFCURVE",
"644 -376 OFFCURVE",
"610 -376 CURVE SMOOTH",
"480 -376 OFFCURVE",
"406 -296 OFFCURVE",
"406 -206 CURVE SMOOTH"
);
}
);
width = 748;
},
{
layerId = "E10EC336-1202-48FF-9A55-15876E80CDFD";
paths = (
{
closed = 1;
nodes = (
"634 0 LINE",
"592 -30 OFFCURVE",
"560 -62 OFFCURVE",
"536 -100 CURVE SMOOTH",
"522 -122 OFFCURVE",
"512 -144 OFFCURVE",
"508 -166 CURVE SMOOTH",
"502 -196 OFFCURVE",
"512 -212 OFFCURVE",
"528 -224 CURVE SMOOTH",
"544 -236 OFFCURVE",
"568 -242 OFFCURVE",
"592 -242 CURVE SMOOTH",
"626 -242 OFFCURVE",
"654 -234 OFFCURVE",
"680 -224 CURVE",
"634 -358 LINE",
"588 -372 OFFCURVE",
"564 -376 OFFCURVE",
"530 -376 CURVE SMOOTH",
"400 -376 OFFCURVE",
"340 -296 OFFCURVE",
"362 -206 CURVE SMOOTH",
"376 -150 OFFCURVE",
"416 -100 OFFCURVE",
"458 -62 CURVE",
"480 -40 OFFCURVE",
"508 -18 OFFCURVE",
"538 0 CURVE",
"518 0 LINE",
"540 300 LINE",
"332 300 LINE",
"230 0 LINE",
"20 0 LINE",
"554 1470 LINE",
"818 1470 LINE",
"728 0 LINE"
);
},
{
closed = 1;
nodes = (
"560 528 LINE",
"596 992 LINE",
"598 1030 LINE",
"586 1030 LINE",
"572 992 LINE",
"412 528 LINE"
);
}
);
width = 748;
},
{
layerId = "38BA14EB-08C8-4487-88C1-8F957131FCA1";
paths = (
{
closed = 1;
nodes = (
"394 0 LINE",
"576 1470 LINE",
"382 1470 LINE",
"-64 0 LINE",
"96 0 LINE",
"182 300 LINE",
"274 300 LINE",
"232 0 LINE",
"248 0 LINE",
"228 -22 OFFCURVE",
"212 -42 OFFCURVE",
"202 -56 CURVE",
"200 -58 OFFCURVE",
"198 -60 OFFCURVE",
"196 -62 CURVE",
"168 -100 OFFCURVE",
"134 -158 OFFCURVE",
"124 -206 CURVE SMOOTH",
"104 -296 OFFCURVE",
"138 -376 OFFCURVE",
"228 -376 CURVE SMOOTH",
"254 -376 OFFCURVE",
"276 -370 OFFCURVE",
"312 -352 CURVE",
"352 -202 LINE",
"318 -224 OFFCURVE",
"286 -242 OFFCURVE",
"276 -242 CURVE SMOOTH",
"256 -242 OFFCURVE",
"238 -224 OFFCURVE",
"250 -166 CURVE",
"254 -142 OFFCURVE",
"262 -120 OFFCURVE",
"272 -100 CURVE SMOOTH",
"292 -60 OFFCURVE",
"316 -26 OFFCURVE",
"336 0 CURVE"
);
},
{
closed = 1;
nodes = (
"310 528 LINE",
"248 528 LINE",
"402 1112 LINE"
);
}
);
width = 508;
},
{
layerId = "6463F33F-C059-4755-9C76-9F35D70521A0";
paths = (
{
closed = 1;
nodes = (
"454 0 LINE",
"322 1470 LINE",
"128 1470 LINE",
"-6 0 LINE",
"156 0 LINE",
"178 300 LINE",
"270 300 LINE",
"292 0 LINE",
"308 0 LINE",
"292 -22 OFFCURVE",
"280 -42 OFFCURVE",
"272 -56 CURVE",
"272 -58 OFFCURVE",
"270 -60 OFFCURVE",
"268 -62 CURVE",
"248 -100 OFFCURVE",
"226 -158 OFFCURVE",
"226 -206 CURVE SMOOTH",
"226 -296 OFFCURVE",
"276 -376 OFFCURVE",
"366 -376 CURVE SMOOTH",
"392 -376 OFFCURVE",
"414 -370 OFFCURVE",
"446 -352 CURVE",
"454 -202 LINE",
"424 -224 OFFCURVE",
"396 -242 OFFCURVE",
"386 -242 CURVE SMOOTH",
"366 -242 OFFCURVE",
"344 -224 OFFCURVE",
"344 -166 CURVE SMOOTH",
"344 -142 OFFCURVE",
"346 -120 OFFCURVE",
"352 -100 CURVE SMOOTH",
"364 -60 OFFCURVE",
"380 -26 OFFCURVE",
"396 0 CURVE"
);
},
{
closed = 1;
nodes = (
"256 528 LINE",
"194 528 LINE",
"224 1112 LINE"
);
}
);
width = 508;
}
);
unicode = 0104;
},
{
color = 0;
glyphname = Aring;
lastChange = "2019-09-28 02:44:04 +0000";
layers = (
{
layerId = "1AB499B8-18A8-432D-A211-B6882CCB886D";
paths = (
{
closed = 1;
nodes = (
"20 0 LINE",
"242 1470 LINE",
"506 1470 LINE",
"728 0 LINE",
"518 0 LINE",
"478 300 LINE",
"270 300 LINE",
"230 0 LINE"
);
},
{
closed = 1;
nodes = (
"386 992 LINE",
"380 1030 LINE",
"368 1030 LINE",
"362 992 LINE",
"300 528 LINE",
"448 528 LINE"
);
},
{
closed = 1;
nodes = (
"226 1802 OFFCURVE",
"294 1860 OFFCURVE",
"376 1860 CURVE SMOOTH",
"458 1860 OFFCURVE",
"524 1802 OFFCURVE",
"524 1720 CURVE SMOOTH",
"524 1638 OFFCURVE",
"458 1580 OFFCURVE",
"376 1580 CURVE SMOOTH",
"294 1580 OFFCURVE",
"226 1638 OFFCURVE",
"226 1720 CURVE SMOOTH"
);
},
{
closed = 1;
nodes = (
"302 1682 OFFCURVE",
"338 1650 OFFCURVE",
"376 1650 CURVE SMOOTH",
"414 1650 OFFCURVE",
"450 1682 OFFCURVE",
"450 1720 CURVE SMOOTH",
"450 1758 OFFCURVE",
"414 1790 OFFCURVE",
"376 1790 CURVE SMOOTH",
"338 1790 OFFCURVE",
"302 1758 OFFCURVE",
"302 1720 CURVE SMOOTH"
);
}
);
width = 748;
},
{
layerId = "E10EC336-1202-48FF-9A55-15876E80CDFD";
paths = (
{
closed = 1;
nodes = (
"608 1802 OFFCURVE",
"688 1860 OFFCURVE",
"770 1860 CURVE SMOOTH",
"852 1860 OFFCURVE",
"906 1802 OFFCURVE",
"888 1720 CURVE SMOOTH",
"872 1638 OFFCURVE",
"792 1580 OFFCURVE",
"710 1580 CURVE SMOOTH",
"628 1580 OFFCURVE",
"574 1638 OFFCURVE",
"590 1720 CURVE SMOOTH"
);
},
{
closed = 1;
nodes = (
"658 1682 OFFCURVE",
"688 1650 OFFCURVE",
"726 1650 CURVE SMOOTH",
"764 1650 OFFCURVE",
"806 1682 OFFCURVE",
"814 1720 CURVE SMOOTH",
"822 1758 OFFCURVE",
"794 1790 OFFCURVE",
"756 1790 CURVE SMOOTH",
"718 1790 OFFCURVE",
"674 1758 OFFCURVE",
"666 1720 CURVE SMOOTH"
);
},
{
closed = 1;
nodes = (
"20 0 LINE",
"554 1470 LINE",
"818 1470 LINE",
"728 0 LINE",
"518 0 LINE",
"540 300 LINE",
"332 300 LINE",
"230 0 LINE"
);
},
{
closed = 1;
nodes = (
"596 992 LINE",
"598 1030 LINE",
"586 1030 LINE",
"572 992 LINE",
"412 528 LINE",
"560 528 LINE"
);
}
);
width = 748;
},
{
layerId = "38BA14EB-08C8-4487-88C1-8F957131FCA1";
paths = (
{
closed = 1;
nodes = (
"366 1638 OFFCURVE",
"402 1580 OFFCURVE",
"462 1580 CURVE SMOOTH",
"520 1580 OFFCURVE",
"580 1638 OFFCURVE",
"598 1720 CURVE SMOOTH",
"616 1802 OFFCURVE",
"580 1860 OFFCURVE",
"522 1860 CURVE SMOOTH",
"462 1860 OFFCURVE",
"402 1802 OFFCURVE",
"384 1720 CURVE SMOOTH"
);
},
{
closed = 1;
nodes = (
"470 1758 OFFCURVE",
"490 1782 OFFCURVE",
"504 1782 CURVE SMOOTH",
"516 1782 OFFCURVE",
"530 1758 OFFCURVE",
"522 1720 CURVE SMOOTH",
"514 1682 OFFCURVE",
"490 1656 OFFCURVE",
"478 1656 CURVE SMOOTH",
"464 1656 OFFCURVE",
"454 1682 OFFCURVE",
"462 1720 CURVE SMOOTH"
);
},
{
closed = 1;
nodes = (
"56 0 LINE",
"144 300 LINE",
"232 300 LINE",
"192 0 LINE",
"354 0 LINE",
"534 1470 LINE",
"340 1470 LINE",
"-104 0 LINE"
);
},
{
closed = 1;
nodes = (
"266 528 LINE",
"208 528 LINE",
"348 1052 LINE"
);
}
);
width = 508;
},
{
layerId = "6463F33F-C059-4755-9C76-9F35D70521A0";
paths = (
{
closed = 1;
nodes = (
"118 1638 OFFCURVE",
"166 1580 OFFCURVE",
"226 1580 CURVE SMOOTH",
"284 1580 OFFCURVE",
"332 1638 OFFCURVE",
"332 1720 CURVE SMOOTH",
"332 1802 OFFCURVE",
"284 1860 OFFCURVE",
"226 1860 CURVE SMOOTH",
"166 1860 OFFCURVE",
"118 1802 OFFCURVE",
"118 1720 CURVE SMOOTH"
);
},
{
closed = 1;
nodes = (
"196 1758 OFFCURVE",
"212 1782 OFFCURVE",
"226 1782 CURVE SMOOTH",
"238 1782 OFFCURVE",
"256 1758 OFFCURVE",
"256 1720 CURVE SMOOTH",
"256 1682 OFFCURVE",
"238 1656 OFFCURVE",
"226 1656 CURVE SMOOTH",
"212 1656 OFFCURVE",
"196 1682 OFFCURVE",
"196 1720 CURVE SMOOTH"
);
},
{
closed = 1;
nodes = (
"156 0 LINE",
"180 300 LINE",
"268 300 LINE",
"292 0 LINE",
"454 0 LINE",
"322 1470 LINE",
"128 1470 LINE",
"-6 0 LINE"
);
},
{
closed = 1;
nodes = (
"254 528 LINE",
"196 528 LINE",
"224 1052 LINE"
);
}
);
width = 508;
}
);
leftKerningGroup = A;
rightKerningGroup = A;
unicode = 00C5;
},
{
color = 0;
glyphname = Atilde;
lastChange = "2019-09-28 02:44:04 +0000";
layers = (
{
layerId = "1AB499B8-18A8-432D-A211-B6882CCB886D";
paths = (
{
closed = 1;
nodes = (
"20 0 LINE",
"242 1470 LINE",
"506 1470 LINE",
"728 0 LINE",
"518 0 LINE",
"478 300 LINE",
"270 300 LINE",
"230 0 LINE"
);
},
{
closed = 1;
nodes = (
"386 992 LINE",
"380 1030 LINE",
"368 1030 LINE",
"362 992 LINE",
"300 528 LINE",
"448 528 LINE"
);
},
{
closed = 1;
nodes = (
"256 1626 OFFCURVE",
"234 1618 OFFCURVE",
"212 1610 CURVE",
"200 1604 OFFCURVE",
"190 1600 OFFCURVE",
"180 1594 CURVE",
"180 1742 LINE",
"198 1756 OFFCURVE",
"222 1766 OFFCURVE",
"246 1774 CURVE SMOOTH",
"258 1778 OFFCURVE",
"272 1780 OFFCURVE",
"286 1780 CURVE SMOOTH",
"316 1780 OFFCURVE",
"346 1774 OFFCURVE",
"374 1764 CURVE",
"402 1752 OFFCURVE",
"432 1744 OFFCURVE",
"462 1742 CURVE",
"492 1742 OFFCURVE",
"514 1750 OFFCURVE",
"536 1758 CURVE",
"548 1764 OFFCURVE",
"558 1768 OFFCURVE",
"568 1774 CURVE",
"568 1626 LINE",
"550 1610 OFFCURVE",
"526 1600 OFFCURVE",
"502 1594 CURVE",
"490 1590 OFFCURVE",
"476 1588 OFFCURVE",
"462 1588 CURVE SMOOTH",
"432 1588 OFFCURVE",
"402 1594 OFFCURVE",
"376 1606 CURVE SMOOTH",
"348 1618 OFFCURVE",
"318 1624 OFFCURVE",
"286 1626 CURVE"
);
}
);
width = 748;
},
{
layerId = "E10EC336-1202-48FF-9A55-15876E80CDFD";
paths = (
{
closed = 1;
nodes = (
"550 1742 LINE",
"572 1756 OFFCURVE",
"596 1766 OFFCURVE",
"622 1774 CURVE SMOOTH",
"634 1778 OFFCURVE",
"648 1780 OFFCURVE",
"664 1780 CURVE SMOOTH",
"692 1780 OFFCURVE",
"720 1774 OFFCURVE",
"748 1764 CURVE",
"776 1750 OFFCURVE",
"804 1744 OFFCURVE",
"832 1742 CURVE",
"862 1742 OFFCURVE",
"884 1750 OFFCURVE",
"908 1758 CURVE SMOOTH",
"914 1760 OFFCURVE",
"920 1764 OFFCURVE",
"926 1766 CURVE SMOOTH",
"932 1768 OFFCURVE",
"938 1772 OFFCURVE",
"944 1774 CURVE",
"912 1626 LINE",
"894 1612 OFFCURVE",
"870 1600 OFFCURVE",
"840 1594 CURVE",
"826 1590 OFFCURVE",
"812 1588 OFFCURVE",
"798 1588 CURVE SMOOTH",
"768 1588 OFFCURVE",
"740 1594 OFFCURVE",
"716 1606 CURVE",
"692 1616 OFFCURVE",
"664 1624 OFFCURVE",
"630 1626 CURVE",
"600 1626 OFFCURVE",
"576 1618 OFFCURVE",
"554 1610 CURVE SMOOTH",
"548 1608 OFFCURVE",
"542 1604 OFFCURVE",
"536 1602 CURVE SMOOTH",
"530 1600 OFFCURVE",
"524 1596 OFFCURVE",
"518 1594 CURVE"
);
},
{
closed = 1;
nodes = (
"20 0 LINE",
"554 1470 LINE",
"818 1470 LINE",
"728 0 LINE",
"518 0 LINE",
"540 300 LINE",
"332 300 LINE",
"230 0 LINE"
);
},
{
closed = 1;
nodes = (
"596 992 LINE",
"598 1030 LINE",
"586 1030 LINE",
"572 992 LINE",
"412 528 LINE",
"560 528 LINE"
);
}
);
width = 748;
},
{
layerId = "38BA14EB-08C8-4487-88C1-8F957131FCA1";
paths = (
{
closed = 1;
nodes = (
"60 0 LINE",
"144 300 LINE",
"236 300 LINE",
"196 0 LINE",
"358 0 LINE",
"538 1470 LINE",
"344 1470 LINE",
"-100 0 LINE"
);
},
{
closed = 1;
nodes = (
"272 528 LINE",
"210 528 LINE",
"364 1112 LINE"
);
},
{
closed = 1;
nodes = (
"328 1566 LINE",
"340 1580 OFFCURVE",
"396 1626 OFFCURVE",
"420 1626 CURVE SMOOTH",
"460 1626 OFFCURVE",
"474 1588 OFFCURVE",
"520 1588 CURVE SMOOTH",
"556 1588 OFFCURVE",
"590 1612 OFFCURVE",
"612 1638 CURVE",
"646 1804 LINE",
"630 1784 OFFCURVE",
"580 1746 OFFCURVE",
"554 1746 CURVE SMOOTH",
"516 1746 OFFCURVE",
"502 1780 OFFCURVE",
"456 1780 CURVE SMOOTH",
"426 1780 OFFCURVE",
"388 1764 OFFCURVE",
"364 1738 CURVE"
);
}
);
width = 508;
},
{
layerId = "6463F33F-C059-4755-9C76-9F35D70521A0";
paths = (
{
closed = 1;
nodes = (
"156 0 LINE",
"178 300 LINE",
"270 300 LINE",
"292 0 LINE",
"454 0 LINE",
"322 1470 LINE",
"128 1470 LINE",
"-6 0 LINE"
);
},
{
closed = 1;
nodes = (
"256 528 LINE",
"194 528 LINE",
"224 1112 LINE"
);
},
{
closed = 1;
nodes = (
"92 1566 LINE",
"102 1580 OFFCURVE",
"148 1626 OFFCURVE",
"172 1626 CURVE SMOOTH",
"212 1626 OFFCURVE",
"234 1588 OFFCURVE",
"280 1588 CURVE SMOOTH",
"316 1588 OFFCURVE",
"344 1612 OFFCURVE",
"360 1638 CURVE",
"360 1804 LINE",
"348 1784 OFFCURVE",
"306 1746 OFFCURVE",
"280 1746 CURVE SMOOTH",
"242 1746 OFFCURVE",
"220 1780 OFFCURVE",
"174 1780 CURVE SMOOTH",
"144 1780 OFFCURVE",
"110 1764 OFFCURVE",
"92 1738 CURVE"
);
}
);
width = 508;
}
);
leftKerningGroup = A;
rightKerningGroup = A;
unicode = 00C3;
},
{
color = 0;
glyphname = AE;
lastChange = "2019-09-28 02:44:12 +0000";
layers = (
{
anchors = (
{
name = top;
position = "{538, 1470}";
}
);
layerId = "1AB499B8-18A8-432D-A211-B6882CCB886D";
paths = (
{
closed = 1;
nodes = (
"540 300 LINE",
"318 300 LINE",
"230 0 LINE",
"16 0 LINE",
"426 1470 LINE",
"1034 1470 LINE",
"1034 1248 LINE",
"756 1248 LINE",
"756 862 LINE",
"956 862 LINE",
"956 626 LINE",
"756 626 LINE",
"756 222 LINE",
"1034 222 LINE",
"1034 0 LINE",
"540 0 LINE"
);
},
{
closed = 1;
nodes = (
"384 528 LINE",
"540 528 LINE",
"540 1030 LINE",
"530 1030 LINE"
);
}
);
width = 1074;
},
{
anchors = (
{
name = top;
position = "{538, 1470}";
}
);
layerId = "E10EC336-1202-48FF-9A55-15876E80CDFD";
paths = (
{
closed = 1;
nodes = (
"602 300 LINE",
"380 300 LINE",
"230 0 LINE",
"16 0 LINE",
"738 1470 LINE",
"1346 1470 LINE",
"1298 1248 LINE",
"1020 1248 LINE",
"938 862 LINE",
"1138 862 LINE",
"1088 626 LINE",
"888 626 LINE",
"802 222 LINE",
"1080 222 LINE",
"1034 0 LINE",
"540 0 LINE"
);
},
{
closed = 1;
nodes = (
"496 528 LINE",
"652 528 LINE",
"758 1030 LINE",
"748 1030 LINE"
);
}
);
width = 1074;
},
{
anchors = (
{
name = top;
position = "{352, 1470}";
}
);
layerId = "38BA14EB-08C8-4487-88C1-8F957131FCA1";
paths = (
{
closed = 1;
nodes = (
"226 0 LINE",
"558 0 LINE",
"606 222 LINE",
"440 222 LINE",
"526 626 LINE",
"646 626 LINE",
"696 862 LINE",
"576 862 LINE",
"658 1248 LINE",
"824 1248 LINE",
"872 1470 LINE",
"472 1470 LINE",
"-86 0 LINE",
"76 0 LINE",
"192 300 LINE",
"290 300 LINE"
);
},
{
closed = 1;
nodes = (
"456 1076 LINE",
"434 970 OFFCURVE",
"358 618 OFFCURVE",
"340 528 CURVE",
"276 528 LINE"
);
}
);
width = 704;
},
{
anchors = (
{
name = top;
position = "{352, 1470}";
}
);
layerId = "6463F33F-C059-4755-9C76-9F35D70521A0";
paths = (
{
closed = 1;
nodes = (
"306 0 LINE",
"638 0 LINE",
"638 222 LINE",
"472 222 LINE",
"472 626 LINE",
"592 626 LINE",
"592 862 LINE",
"472 862 LINE",
"472 1248 LINE",
"638 1248 LINE",
"638 1470 LINE",
"238 1470 LINE",
"-8 0 LINE",
"156 0 LINE",
"208 300 LINE",
"306 300 LINE"
);
},
{
closed = 1;
nodes = (
"306 1076 LINE",
"306 970 OFFCURVE",
"306 618 OFFCURVE",
"306 528 CURVE",
"242 528 LINE"
);
}
);
width = 704;
}
);
unicode = 00C6;
},
{
color = 0;
glyphname = B;
lastChange = "2019-09-30 01:08:43 +0000";
layers = (
{
background = {
paths = (
{
closed = 1;
nodes = (
"346 0 LINE",
"474 6 OFFCURVE",
"560 56 OFFCURVE",
"610 132 CURVE SMOOTH",
"660 208 OFFCURVE",
"680 306 OFFCURVE",
"680 416 CURVE SMOOTH",
"680 490 OFFCURVE",
"672 550 OFFCURVE",
"656 596 CURVE SMOOTH",
"624 690 OFFCURVE",
"584 746 OFFCURVE",
"530 776 CURVE",
"580 822 OFFCURVE",
"614 862 OFFCURVE",
"636 910 CURVE SMOOTH",
"658 958 OFFCURVE",
"664 1010 OFFCURVE",
"664 1080 CURVE SMOOTH",
"664 1226 OFFCURVE",
"630 1322 OFFCURVE",
"564 1384 CURVE SMOOTH",
"498 1446 OFFCURVE",
"398 1470 OFFCURVE",
"270 1470 CURVE SMOOTH",
"80 1470 LINE",
"80 0 LINE"
);
},
{
closed = 1;
nodes = (
"296 666 LINE",
"314 666 OFFCURVE",
"356 670 OFFCURVE",
"392 644 CURVE SMOOTH",
"428 618 OFFCURVE",
"456 560 OFFCURVE",
"456 440 CURVE SMOOTH",
"456 320 OFFCURVE",
"428 262 OFFCURVE",
"392 236 CURVE SMOOTH",
"356 210 OFFCURVE",
"314 214 OFFCURVE",
"296 214 CURVE"
);
},
{
closed = 1;
nodes = (
"296 1256 LINE",
"314 1256 OFFCURVE",
"356 1258 OFFCURVE",
"392 1234 CURVE SMOOTH",
"428 1210 OFFCURVE",
"456 1162 OFFCURVE",
"456 1060 CURVE SMOOTH",
"456 958 OFFCURVE",
"428 910 OFFCURVE",
"392 886 CURVE SMOOTH",
"356 862 OFFCURVE",
"314 864 OFFCURVE",
"296 864 CURVE"
);
}
);
};
layerId = "1AB499B8-18A8-432D-A211-B6882CCB886D";
paths = (
{
closed = 1;
nodes = (
"346 0 LINE SMOOTH",
"558 0 OFFCURVE",
"680 152 OFFCURVE",
"680 416 CURVE SMOOTH",
"680 620 OFFCURVE",
"606 762 OFFCURVE",
"483 795 CURVE",
"471 725 LINE",
"628 857 OFFCURVE",
"664 923 OFFCURVE",
"664 1080 CURVE SMOOTH",
"664 1356 OFFCURVE",
"549 1470 OFFCURVE",
"270 1470 CURVE SMOOTH",
"80 1470 LINE",
"80 0 LINE"
);
},
{
closed = 1;
nodes = (
"296 757 LINE",
"222 660 LINE",
"395 685 OFFCURVE",
"456 637 OFFCURVE",
"456 440 CURVE SMOOTH",
"456 244 OFFCURVE",
"395 195 OFFCURVE",
"222 220 CURVE",
"296 123 LINE"
);
},
{
closed = 1;
nodes = (
"296 1347 LINE",
"217 1249 LINE",
"388 1276 OFFCURVE",
"456 1228 OFFCURVE",
"456 1060 CURVE SMOOTH",
"456 892 OFFCURVE",
"388 844 OFFCURVE",
"217 871 CURVE",
"296 773 LINE"
);
}
);
width = 728;
},
{
background = {
paths = (
{
closed = 1;
nodes = (
"346 0 LINE",
"474 6 OFFCURVE",
"568 54 OFFCURVE",
"638 132 CURVE SMOOTH",
"704 210 OFFCURVE",
"744 304 OFFCURVE",
"768 416 CURVE SMOOTH",
"800 560 OFFCURVE",
"788 718 OFFCURVE",
"694 776 CURVE",
"756 822 OFFCURVE",
"796 862 OFFCURVE",
"828 910 CURVE SMOOTH",
"860 958 OFFCURVE",
"878 1010 OFFCURVE",
"892 1080 CURVE SMOOTH",
"924 1226 OFFCURVE",
"912 1322 OFFCURVE",
"858 1384 CURVE SMOOTH",
"804 1446 OFFCURVE",
"710 1470 OFFCURVE",
"582 1470 CURVE SMOOTH",
"392 1470 LINE",
"80 0 LINE"
);
},
{
closed = 1;
nodes = (
"436 666 LINE",
"446 666 OFFCURVE",
"460 666 OFFCURVE",
"478 666 CURVE",
"516 664 OFFCURVE",
"548 640 OFFCURVE",
"560 578 CURVE SMOOTH",
"566 546 OFFCURVE",
"562 500 OFFCURVE",
"548 440 CURVE SMOOTH",
"524 320 OFFCURVE",
"482 262 OFFCURVE",
"442 236 CURVE SMOOTH",
"400 210 OFFCURVE",
"358 214 OFFCURVE",
"340 214 CURVE"
);
},
{
closed = 1;
nodes = (
"562 1256 LINE",
"572 1256 OFFCURVE",
"586 1256 OFFCURVE",
"604 1254 CURVE",
"640 1252 OFFCURVE",
"672 1230 OFFCURVE",
"686 1176 CURVE SMOOTH",
"692 1150 OFFCURVE",
"690 1110 OFFCURVE",
"680 1060 CURVE SMOOTH",
"658 958 OFFCURVE",
"620 910 OFFCURVE",
"580 886 CURVE SMOOTH",
"538 862 OFFCURVE",
"496 864 OFFCURVE",
"478 864 CURVE"
);
}
);
};
layerId = "E10EC336-1202-48FF-9A55-15876E80CDFD";
paths = (
{
closed = 1;
nodes = (
"346 0 LINE SMOOTH",
"606 0 OFFCURVE",
"784 250 OFFCURVE",
"784 555 CURVE SMOOTH",
"784 709 OFFCURVE",
"736 780 OFFCURVE",
"620 796 CURVE",
"618 739 LINE",
"789 802 OFFCURVE",
"908 978 OFFCURVE",
"908 1195 CURVE SMOOTH",
"908 1401 OFFCURVE",
"820 1470 OFFCURVE",
"582 1470 CURVE SMOOTH",
"392 1470 LINE",
"80 0 LINE"
);
},
{
closed = 1;
nodes = (
"455 755 LINE",
"432 667 LINE",
"501 667 OFFCURVE",
"563 654 OFFCURVE",
"563 547 CURVE SMOOTH",
"563 338 OFFCURVE",
"468 207 OFFCURVE",
"329 207 CURVE",
"321 125 LINE"
);
},
{
closed = 1;
nodes = (
"581 1345 LINE",
"561 1256 LINE",
"642 1256 OFFCURVE",
"689 1231 OFFCURVE",
"689 1132 CURVE SMOOTH",
"689 981 OFFCURVE",
"619 864 OFFCURVE",
"477 864 CURVE",
"459 775 LINE"
);
}
);
width = 728;
},
{
background = {
paths = (
{
closed = 1;
nodes = (
"168 0 LINE SMOOTH",
"254 0 OFFCURVE",
"314 78 OFFCURVE",
"342 126 CURVE SMOOTH",
"370 174 OFFCURVE",
"412 306 OFFCURVE",
"436 416 CURVE SMOOTH",
"450 488 OFFCURVE",
"468 586 OFFCURVE",
"468 632 CURVE",
"466 714 OFFCURVE",
"444 744 OFFCURVE",
"416 776 CURVE",
"460 804 OFFCURVE",
"486 846 OFFCURVE",
"510 890 CURVE",
"532 938 OFFCURVE",
"552 1010 OFFCURVE",
"566 1080 CURVE SMOOTH",
"596 1222 OFFCURVE",
"592 1320 OFFCURVE",
"564 1384 CURVE",
"536 1442 OFFCURVE",
"494 1470 OFFCURVE",
"410 1470 CURVE SMOOTH",
"264 1470 LINE",
"-48 0 LINE"
);
},
{
closed = 1;
nodes = (
"258 666 LINE",
"268 666 OFFCURVE",
"286 668 OFFCURVE",
"296 656 CURVE SMOOTH",
"312 636 OFFCURVE",
"298 564 OFFCURVE",
"272 440 CURVE SMOOTH",
"246 314 OFFCURVE",
"226 246 OFFCURVE",
"204 224 CURVE SMOOTH",
"192 212 OFFCURVE",
"170 214 OFFCURVE",
"162 214 CURVE"
);
},
{
closed = 1;
nodes = (
"384 1256 LINE",
"396 1256 OFFCURVE",
"412 1256 OFFCURVE",
"422 1244 CURVE",
"432 1222 OFFCURVE",
"426 1166 OFFCURVE",
"404 1060 CURVE SMOOTH",
"382 954 OFFCURVE",
"364 898 OFFCURVE",
"344 876 CURVE",
"332 864 OFFCURVE",
"310 864 OFFCURVE",
"300 864 CURVE"
);
}
);
};
layerId = "38BA14EB-08C8-4487-88C1-8F957131FCA1";
paths = (
{
closed = 1;
nodes = (
"168 0 LINE SMOOTH",
"254 0 OFFCURVE",
"314 78 OFFCURVE",
"342 126 CURVE SMOOTH",
"370 174 OFFCURVE",
"412 306 OFFCURVE",
"436 416 CURVE SMOOTH",
"450 488 OFFCURVE",
"468 586 OFFCURVE",
"468 632 CURVE",
"466 714 OFFCURVE",
"444 744 OFFCURVE",
"416 776 CURVE",
"460 804 OFFCURVE",
"486 846 OFFCURVE",
"510 890 CURVE",
"532 938 OFFCURVE",
"552 1010 OFFCURVE",
"566 1080 CURVE SMOOTH",
"596 1222 OFFCURVE",
"592 1320 OFFCURVE",
"564 1384 CURVE",
"536 1442 OFFCURVE",
"494 1470 OFFCURVE",
"410 1470 CURVE SMOOTH",
"264 1470 LINE",
"-48 0 LINE"
);
},
{
closed = 1;
nodes = (
"258 666 LINE",
"268 666 OFFCURVE",
"286 668 OFFCURVE",
"296 656 CURVE SMOOTH",
"312 636 OFFCURVE",
"298 564 OFFCURVE",
"272 440 CURVE SMOOTH",
"246 314 OFFCURVE",
"226 246 OFFCURVE",
"204 224 CURVE SMOOTH",
"192 212 OFFCURVE",
"170 214 OFFCURVE",
"162 214 CURVE"
);
},
{
closed = 1;
nodes = (
"384 1256 LINE",
"396 1256 OFFCURVE",
"412 1256 OFFCURVE",
"422 1244 CURVE",
"432 1222 OFFCURVE",
"426 1166 OFFCURVE",
"404 1060 CURVE SMOOTH",
"382 954 OFFCURVE",
"364 898 OFFCURVE",
"344 876 CURVE",
"332 864 OFFCURVE",
"310 864 OFFCURVE",
"300 864 CURVE"
);
}
);
width = 496;
},
{
background = {
paths = (
{
closed = 1;
nodes = (
"248 0 LINE SMOOTH",
"334 0 OFFCURVE",
"376 78 OFFCURVE",
"394 126 CURVE SMOOTH",
"412 174 OFFCURVE",
"426 306 OFFCURVE",
"426 416 CURVE SMOOTH",
"426 488 OFFCURVE",
"422 586 OFFCURVE",
"412 632 CURVE SMOOTH",
"394 714 OFFCURVE",
"364 744 OFFCURVE",
"330 776 CURVE",
"368 804 OFFCURVE",
"386 846 OFFCURVE",
"400 890 CURVE",
"412 938 OFFCURVE",
"416 1010 OFFCURVE",
"416 1080 CURVE SMOOTH",
"416 1222 OFFCURVE",
"390 1320 OFFCURVE",
"348 1384 CURVE SMOOTH",
"308 1442 OFFCURVE",
"260 1470 OFFCURVE",
"176 1470 CURVE SMOOTH",
"30 1470 LINE",
"30 0 LINE"
);
},
{
closed = 1;
nodes = (
"196 666 LINE",
"206 666 OFFCURVE",
"224 668 OFFCURVE",
"236 656 CURVE SMOOTH",
"256 636 OFFCURVE",
"258 564 OFFCURVE",
"258 440 CURVE SMOOTH",
"258 314 OFFCURVE",
"252 246 OFFCURVE",
"236 224 CURVE",
"226 212 OFFCURVE",
"204 214 OFFCURVE",
"196 214 CURVE"
);
},
{
closed = 1;
nodes = (
"196 1256 LINE",
"208 1256 OFFCURVE",
"224 1256 OFFCURVE",
"236 1244 CURVE",
"252 1222 OFFCURVE",
"258 1166 OFFCURVE",
"258 1060 CURVE SMOOTH",
"258 954 OFFCURVE",
"252 898 OFFCURVE",
"236 876 CURVE",
"228 864 OFFCURVE",
"206 864 OFFCURVE",
"196 864 CURVE"
);
}
);
};
layerId = "6463F33F-C059-4755-9C76-9F35D70521A0";
paths = (
{
closed = 1;
nodes = (
"248 0 LINE SMOOTH",
"334 0 OFFCURVE",
"376 78 OFFCURVE",
"394 126 CURVE SMOOTH",
"412 174 OFFCURVE",
"426 306 OFFCURVE",
"426 416 CURVE SMOOTH",
"426 488 OFFCURVE",
"422 586 OFFCURVE",
"412 632 CURVE SMOOTH",
"394 714 OFFCURVE",
"364 744 OFFCURVE",
"330 776 CURVE",
"368 804 OFFCURVE",
"386 846 OFFCURVE",
"400 890 CURVE",
"412 938 OFFCURVE",
"416 1010 OFFCURVE",
"416 1080 CURVE SMOOTH",
"416 1222 OFFCURVE",
"390 1320 OFFCURVE",
"348 1384 CURVE SMOOTH",
"308 1442 OFFCURVE",
"260 1470 OFFCURVE",
"176 1470 CURVE SMOOTH",
"30 1470 LINE",
"30 0 LINE"
);
},
{
closed = 1;
nodes = (
"196 666 LINE",
"206 666 OFFCURVE",
"224 668 OFFCURVE",
"236 656 CURVE SMOOTH",
"256 636 OFFCURVE",
"258 564 OFFCURVE",
"258 440 CURVE SMOOTH",
"258 314 OFFCURVE",
"252 246 OFFCURVE",
"236 224 CURVE",
"226 212 OFFCURVE",
"204 214 OFFCURVE",
"196 214 CURVE"
);
},
{
closed = 1;
nodes = (
"196 1256 LINE",
"208 1256 OFFCURVE",
"224 1256 OFFCURVE",
"236 1244 CURVE",
"252 1222 OFFCURVE",
"258 1166 OFFCURVE",
"258 1060 CURVE SMOOTH",
"258 954 OFFCURVE",
"252 898 OFFCURVE",
"236 876 CURVE",
"228 864 OFFCURVE",
"206 864 OFFCURVE",
"196 864 CURVE"
);
}
);
width = 496;
}
);
unicode = 0042;
},
{
color = 0;
glyphname = C;
lastChange = "2019-09-28 02:44:12 +0000";
layers = (
{
anchors = (
{
name = bottom;
position = "{346, 0}";
},
{
name = top;
position = "{346, 1470}";
}
);
layerId = "1AB499B8-18A8-432D-A211-B6882CCB886D";
paths = (
{
closed = 1;
nodes = (
"642 504 LINE",
"642 302 LINE SMOOTH",
"640 242 OFFCURVE",
"628 188 OFFCURVE",
"606 142 CURVE SMOOTH",
"588 102 OFFCURVE",
"560 64 OFFCURVE",
"520 34 CURVE SMOOTH",
"480 2 OFFCURVE",
"426 -16 OFFCURVE",
"354 -16 CURVE SMOOTH",
"282 -16 OFFCURVE",
"226 2 OFFCURVE",
"186 34 CURVE SMOOTH",
"146 64 OFFCURVE",
"120 102 OFFCURVE",
"102 142 CURVE SMOOTH",
"80 188 OFFCURVE",
"68 242 OFFCURVE",
"66 302 CURVE",
"66 1168 LINE SMOOTH",
"68 1226 OFFCURVE",
"80 1280 OFFCURVE",
"102 1326 CURVE SMOOTH",
"120 1366 OFFCURVE",
"146 1406 OFFCURVE",
"186 1436 CURVE SMOOTH",
"226 1466 OFFCURVE",
"282 1486 OFFCURVE",
"354 1486 CURVE SMOOTH",
"426 1486 OFFCURVE",
"480 1466 OFFCURVE",
"520 1436 CURVE SMOOTH",
"560 1406 OFFCURVE",
"588 1366 OFFCURVE",
"606 1326 CURVE SMOOTH",
"628 1280 OFFCURVE",
"640 1226 OFFCURVE",
"642 1168 CURVE SMOOTH",
"642 966 LINE",
"440 966 LINE",
"440 1168 LINE SMOOTH",
"440 1208 OFFCURVE",
"430 1236 OFFCURVE",
"408 1260 CURVE",
"398 1270 OFFCURVE",
"380 1276 OFFCURVE",
"358 1276 CURVE SMOOTH",
"320 1276 OFFCURVE",
"302 1248 OFFCURVE",
"292 1222 CURVE SMOOTH",
"286 1206 OFFCURVE",
"284 1188 OFFCURVE",
"282 1168 CURVE",
"282 302 LINE",
"284 260 OFFCURVE",
"296 232 OFFCURVE",
"316 210 CURVE",
"326 200 OFFCURVE",
"340 194 OFFCURVE",
"358 194 CURVE SMOOTH",
"404 194 OFFCURVE",
"422 218 OFFCURVE",
"432 248 CURVE",
"438 262 OFFCURVE",
"440 280 OFFCURVE",
"440 302 CURVE SMOOTH",
"440 504 LINE"
);
}
);
width = 692;
},
{
anchors = (
{
name = bottom;
position = "{346, 0}";
},
{
name = top;
position = "{346, 1470}";
}
);
layerId = "E10EC336-1202-48FF-9A55-15876E80CDFD";
paths = (
{
closed = 1;
nodes = (
"748 504 LINE",
"706 302 LINE",
"690 242 OFFCURVE",
"666 188 OFFCURVE",
"636 142 CURVE",
"606 102 OFFCURVE",
"572 64 OFFCURVE",
"526 34 CURVE",
"478 0 OFFCURVE",
"420 -16 OFFCURVE",
"350 -16 CURVE SMOOTH",
"280 -16 OFFCURVE",
"228 0 OFFCURVE",
"192 34 CURVE SMOOTH",
"158 64 OFFCURVE",
"140 102 OFFCURVE",
"132 142 CURVE",
"118 188 OFFCURVE",
"118 240 OFFCURVE",
"130 302 CURVE SMOOTH",
"314 1168 LINE SMOOTH",
"328 1226 OFFCURVE",
"350 1278 OFFCURVE",
"382 1326 CURVE",
"412 1366 OFFCURVE",
"444 1406 OFFCURVE",
"490 1436 CURVE SMOOTH",
"536 1466 OFFCURVE",
"596 1486 OFFCURVE",
"668 1486 CURVE SMOOTH",
"740 1486 OFFCURVE",
"790 1466 OFFCURVE",
"824 1436 CURVE SMOOTH",
"858 1406 OFFCURVE",
"878 1366 OFFCURVE",
"886 1326 CURVE",
"900 1282 OFFCURVE",
"900 1230 OFFCURVE",
"890 1168 CURVE",
"846 966 LINE",
"644 966 LINE",
"688 1168 LINE SMOOTH",
"696 1206 OFFCURVE",
"692 1238 OFFCURVE",
"674 1260 CURVE SMOOTH",
"666 1270 OFFCURVE",
"650 1276 OFFCURVE",
"628 1276 CURVE SMOOTH",
"590 1276 OFFCURVE",
"566 1248 OFFCURVE",
"550 1222 CURVE",
"544 1208 OFFCURVE",
"536 1190 OFFCURVE",
"530 1168 CURVE",
"346 302 LINE",
"340 264 OFFCURVE",
"344 232 OFFCURVE",
"360 210 CURVE",
"368 200 OFFCURVE",
"380 194 OFFCURVE",
"398 194 CURVE SMOOTH",
"444 194 OFFCURVE",
"468 218 OFFCURVE",
"484 248 CURVE SMOOTH",
"490 260 OFFCURVE",
"498 278 OFFCURVE",
"504 302 CURVE",
"546 504 LINE"
);
}
);
width = 692;
},
{
anchors = (
{
name = bottom;
position = "{238, 0}";
},
{
name = top;
position = "{238, 1470}";
}
);
layerId = "38BA14EB-08C8-4487-88C1-8F957131FCA1";
paths = (
{
closed = 1;
nodes = (
"278 504 LINE",
"230 282 LINE SMOOTH",
"224 254 OFFCURVE",
"210 194 OFFCURVE",
"178 194 CURVE SMOOTH",
"154 194 OFFCURVE",
"162 254 OFFCURVE",
"168 282 CURVE SMOOTH",
"364 1196 LINE SMOOTH",
"370 1228 OFFCURVE",
"382 1276 OFFCURVE",
"408 1276 CURVE SMOOTH",
"440 1276 OFFCURVE",
"430 1214 OFFCURVE",
"424 1188 CURVE SMOOTH",
"376 966 LINE",
"538 966 LINE",
"586 1188 LINE SMOOTH",
"608 1292 OFFCURVE",
"610 1486 OFFCURVE",
"450 1486 CURVE SMOOTH",
"300 1486 OFFCURVE",
"220 1318 OFFCURVE",
"192 1188 CURVE SMOOTH",
"0 282 LINE SMOOTH",
"-26 152 OFFCURVE",
"-22 -16 OFFCURVE",
"132 -16 CURVE SMOOTH",
"284 -16 OFFCURVE",
"360 128 OFFCURVE",
"392 282 CURVE SMOOTH",
"440 504 LINE"
);
}
);
width = 476;
},
{
anchors = (
{
name = bottom;
position = "{238, 0}";
},
{
name = top;
position = "{238, 1470}";
}
);
layerId = "6463F33F-C059-4755-9C76-9F35D70521A0";
paths = (
{
closed = 1;
nodes = (
"250 504 LINE",
"250 282 LINE SMOOTH",
"250 254 OFFCURVE",
"248 194 OFFCURVE",
"216 194 CURVE SMOOTH",
"192 194 OFFCURVE",
"188 254 OFFCURVE",
"188 282 CURVE SMOOTH",
"188 1196 LINE SMOOTH",
"188 1228 OFFCURVE",
"190 1276 OFFCURVE",
"216 1276 CURVE SMOOTH",
"248 1276 OFFCURVE",
"250 1214 OFFCURVE",
"250 1188 CURVE SMOOTH",
"250 966 LINE",
"412 966 LINE",
"412 1188 LINE SMOOTH",
"412 1292 OFFCURVE",
"374 1486 OFFCURVE",
"214 1486 CURVE SMOOTH",
"64 1486 OFFCURVE",
"18 1318 OFFCURVE",
"18 1188 CURVE SMOOTH",
"18 282 LINE SMOOTH",
"18 152 OFFCURVE",
"58 -16 OFFCURVE",
"214 -16 CURVE SMOOTH",
"366 -16 OFFCURVE",
"412 128 OFFCURVE",
"412 282 CURVE SMOOTH",
"412 504 LINE"
);
}
);
width = 476;
}
);
unicode = 0043;
},
{
color = 0;
glyphname = Cacute;
lastChange = "2019-09-28 02:44:12 +0000";
layers = (
{
layerId = "1AB499B8-18A8-432D-A211-B6882CCB886D";
paths = (
{
closed = 1;
nodes = (
"642 504 LINE",
"642 302 LINE SMOOTH",
"640 242 OFFCURVE",
"628 188 OFFCURVE",
"606 142 CURVE SMOOTH",
"588 102 OFFCURVE",
"560 64 OFFCURVE",
"520 34 CURVE SMOOTH",
"480 2 OFFCURVE",
"426 -16 OFFCURVE",
"354 -16 CURVE SMOOTH",
"282 -16 OFFCURVE",
"226 2 OFFCURVE",
"186 34 CURVE SMOOTH",
"146 64 OFFCURVE",
"120 102 OFFCURVE",
"102 142 CURVE SMOOTH",
"80 188 OFFCURVE",
"68 242 OFFCURVE",
"66 302 CURVE",
"66 1168 LINE SMOOTH",
"68 1226 OFFCURVE",
"80 1280 OFFCURVE",
"102 1326 CURVE SMOOTH",
"120 1366 OFFCURVE",
"146 1406 OFFCURVE",
"186 1436 CURVE SMOOTH",
"226 1466 OFFCURVE",
"282 1486 OFFCURVE",
"354 1486 CURVE SMOOTH",
"426 1486 OFFCURVE",
"480 1466 OFFCURVE",
"520 1436 CURVE SMOOTH",
"560 1406 OFFCURVE",
"588 1366 OFFCURVE",
"606 1326 CURVE SMOOTH",
"628 1280 OFFCURVE",
"640 1226 OFFCURVE",
"642 1168 CURVE SMOOTH",
"642 966 LINE",
"440 966 LINE",
"440 1168 LINE SMOOTH",
"440 1208 OFFCURVE",
"430 1236 OFFCURVE",
"408 1260 CURVE",
"398 1270 OFFCURVE",
"380 1276 OFFCURVE",
"358 1276 CURVE SMOOTH",
"320 1276 OFFCURVE",
"302 1248 OFFCURVE",
"292 1222 CURVE SMOOTH",
"286 1206 OFFCURVE",
"284 1188 OFFCURVE",
"282 1168 CURVE",
"282 302 LINE",
"284 260 OFFCURVE",
"296 232 OFFCURVE",
"316 210 CURVE",
"326 200 OFFCURVE",
"340 194 OFFCURVE",
"358 194 CURVE SMOOTH",
"404 194 OFFCURVE",
"422 218 OFFCURVE",
"432 248 CURVE",
"438 262 OFFCURVE",
"440 280 OFFCURVE",
"440 302 CURVE SMOOTH",
"440 504 LINE"
);
},
{
closed = 1;
nodes = (
"506 1830 LINE",
"348 1650 LINE",
"192 1650 LINE",
"296 1830 LINE"
);
}
);
width = 692;
},
{
layerId = "E10EC336-1202-48FF-9A55-15876E80CDFD";
paths = (
{
closed = 1;
nodes = (
"894 1830 LINE",
"698 1650 LINE",
"542 1650 LINE",
"684 1830 LINE"
);
},
{
closed = 1;
nodes = (
"748 504 LINE",
"706 302 LINE",
"690 242 OFFCURVE",
"666 188 OFFCURVE",
"636 142 CURVE",
"606 102 OFFCURVE",
"572 64 OFFCURVE",
"526 34 CURVE",
"478 0 OFFCURVE",
"420 -16 OFFCURVE",
"350 -16 CURVE SMOOTH",
"280 -16 OFFCURVE",
"228 0 OFFCURVE",
"192 34 CURVE SMOOTH",
"158 64 OFFCURVE",
"140 102 OFFCURVE",
"132 142 CURVE",
"118 188 OFFCURVE",
"118 240 OFFCURVE",
"130 302 CURVE SMOOTH",
"314 1168 LINE SMOOTH",
"328 1226 OFFCURVE",
"350 1278 OFFCURVE",
"382 1326 CURVE",
"412 1366 OFFCURVE",
"444 1406 OFFCURVE",
"490 1436 CURVE SMOOTH",
"536 1466 OFFCURVE",
"596 1486 OFFCURVE",
"668 1486 CURVE SMOOTH",
"740 1486 OFFCURVE",
"790 1466 OFFCURVE",
"824 1436 CURVE SMOOTH",
"858 1406 OFFCURVE",
"878 1366 OFFCURVE",
"886 1326 CURVE",
"900 1282 OFFCURVE",
"900 1230 OFFCURVE",
"890 1168 CURVE",
"846 966 LINE",
"644 966 LINE",
"688 1168 LINE SMOOTH",
"696 1206 OFFCURVE",
"692 1238 OFFCURVE",
"674 1260 CURVE SMOOTH",
"666 1270 OFFCURVE",
"650 1276 OFFCURVE",
"628 1276 CURVE SMOOTH",
"590 1276 OFFCURVE",
"566 1248 OFFCURVE",
"550 1222 CURVE",
"544 1208 OFFCURVE",
"536 1190 OFFCURVE",
"530 1168 CURVE",
"346 302 LINE",
"340 264 OFFCURVE",
"344 232 OFFCURVE",
"360 210 CURVE",
"368 200 OFFCURVE",
"380 194 OFFCURVE",
"398 194 CURVE SMOOTH",
"444 194 OFFCURVE",
"468 218 OFFCURVE",
"484 248 CURVE SMOOTH",
"490 260 OFFCURVE",
"498 278 OFFCURVE",
"504 302 CURVE",
"546 504 LINE"
);
}
);
width = 692;
},
{
layerId = "38BA14EB-08C8-4487-88C1-8F957131FCA1";
paths = (
{
closed = 1;
nodes = (
"452 1830 LINE",
"352 1650 LINE",
"478 1650 LINE",
"612 1830 LINE"
);
},
{
closed = 1;
nodes = (
"260 504 LINE",
"212 282 LINE SMOOTH",
"206 254 OFFCURVE",
"192 194 OFFCURVE",
"160 194 CURVE SMOOTH",
"136 194 OFFCURVE",
"144 254 OFFCURVE",
"150 282 CURVE SMOOTH",
"344 1196 LINE",
"352 1228 OFFCURVE",
"364 1276 OFFCURVE",
"390 1276 CURVE SMOOTH",
"422 1276 OFFCURVE",
"410 1214 OFFCURVE",
"406 1188 CURVE",
"358 966 LINE",
"520 966 LINE",
"568 1188 LINE SMOOTH",
"590 1292 OFFCURVE",
"592 1486 OFFCURVE",
"432 1486 CURVE SMOOTH",
"282 1486 OFFCURVE",
"200 1318 OFFCURVE",
"174 1188 CURVE SMOOTH",
"-18 282 LINE SMOOTH",
"-44 152 OFFCURVE",
"-40 -16 OFFCURVE",
"114 -16 CURVE SMOOTH",
"266 -16 OFFCURVE",
"342 128 OFFCURVE",
"374 282 CURVE SMOOTH",
"422 504 LINE"
);
}
);
width = 476;
},
{
layerId = "6463F33F-C059-4755-9C76-9F35D70521A0";
paths = (
{
closed = 1;
nodes = (
"160 1830 LINE",
"98 1650 LINE",
"224 1650 LINE",
"320 1830 LINE"
);
},
{
closed = 1;
nodes = (
"250 504 LINE",
"250 282 LINE SMOOTH",
"250 254 OFFCURVE",
"248 194 OFFCURVE",
"216 194 CURVE SMOOTH",
"192 194 OFFCURVE",
"188 254 OFFCURVE",
"188 282 CURVE SMOOTH",
"188 1196 LINE SMOOTH",
"188 1228 OFFCURVE",
"190 1276 OFFCURVE",
"216 1276 CURVE SMOOTH",
"248 1276 OFFCURVE",
"250 1214 OFFCURVE",
"250 1188 CURVE SMOOTH",
"250 966 LINE",
"412 966 LINE",
"412 1188 LINE SMOOTH",
"412 1292 OFFCURVE",
"374 1486 OFFCURVE",
"214 1486 CURVE SMOOTH",
"64 1486 OFFCURVE",
"18 1318 OFFCURVE",
"18 1188 CURVE SMOOTH",
"18 282 LINE SMOOTH",
"18 152 OFFCURVE",
"58 -16 OFFCURVE",
"214 -16 CURVE SMOOTH",
"366 -16 OFFCURVE",
"412 128 OFFCURVE",
"412 282 CURVE SMOOTH",
"412 504 LINE"
);
}
);
width = 476;
}
);
unicode = 0106;
},
{
color = 0;
glyphname = Ccaron;
lastChange = "2019-09-28 02:44:12 +0000";
layers = (
{
layerId = "1AB499B8-18A8-432D-A211-B6882CCB886D";
paths = (
{
closed = 1;
nodes = (
"642 504 LINE",
"642 302 LINE SMOOTH",
"640 242 OFFCURVE",
"628 188 OFFCURVE",
"606 142 CURVE SMOOTH",
"588 102 OFFCURVE",
"560 64 OFFCURVE",
"520 34 CURVE SMOOTH",
"480 2 OFFCURVE",
"426 -16 OFFCURVE",
"354 -16 CURVE SMOOTH",
"282 -16 OFFCURVE",
"226 2 OFFCURVE",
"186 34 CURVE SMOOTH",
"146 64 OFFCURVE",
"120 102 OFFCURVE",
"102 142 CURVE SMOOTH",
"80 188 OFFCURVE",
"68 242 OFFCURVE",
"66 302 CURVE",
"66 1168 LINE SMOOTH",
"68 1226 OFFCURVE",
"80 1280 OFFCURVE",
"102 1326 CURVE SMOOTH",
"120 1366 OFFCURVE",
"146 1406 OFFCURVE",
"186 1436 CURVE SMOOTH",
"226 1466 OFFCURVE",
"282 1486 OFFCURVE",
"354 1486 CURVE SMOOTH",
"426 1486 OFFCURVE",
"480 1466 OFFCURVE",
"520 1436 CURVE SMOOTH",
"560 1406 OFFCURVE",
"588 1366 OFFCURVE",
"606 1326 CURVE SMOOTH",
"628 1280 OFFCURVE",
"640 1226 OFFCURVE",
"642 1168 CURVE SMOOTH",
"642 966 LINE",
"440 966 LINE",
"440 1168 LINE SMOOTH",
"440 1208 OFFCURVE",
"430 1236 OFFCURVE",
"408 1260 CURVE",
"398 1270 OFFCURVE",
"380 1276 OFFCURVE",
"358 1276 CURVE SMOOTH",
"320 1276 OFFCURVE",
"302 1248 OFFCURVE",
"292 1222 CURVE SMOOTH",
"286 1206 OFFCURVE",
"284 1188 OFFCURVE",
"282 1168 CURVE",
"282 302 LINE",
"284 260 OFFCURVE",
"296 232 OFFCURVE",
"316 210 CURVE",
"326 200 OFFCURVE",
"340 194 OFFCURVE",
"358 194 CURVE SMOOTH",
"404 194 OFFCURVE",
"422 218 OFFCURVE",
"432 248 CURVE",
"438 262 OFFCURVE",
"440 280 OFFCURVE",
"440 302 CURVE SMOOTH",
"440 504 LINE"
);
},
{
closed = 1;
nodes = (
"242 1650 LINE",
"104 1830 LINE",
"288 1830 LINE",
"348 1760 LINE",
"410 1830 LINE",
"594 1830 LINE",
"456 1650 LINE"
);
}
);
width = 692;
},
{
layerId = "E10EC336-1202-48FF-9A55-15876E80CDFD";
paths = (
{
closed = 1;
nodes = (
"592 1650 LINE",
"492 1830 LINE",
"676 1830 LINE",
"722 1760 LINE",
"798 1830 LINE",
"982 1830 LINE",
"806 1650 LINE"
);
},
{
closed = 1;
nodes = (
"748 504 LINE",
"706 302 LINE",
"690 242 OFFCURVE",
"666 188 OFFCURVE",
"636 142 CURVE",
"606 102 OFFCURVE",
"572 64 OFFCURVE",
"526 34 CURVE",
"478 0 OFFCURVE",
"420 -16 OFFCURVE",
"350 -16 CURVE SMOOTH",
"280 -16 OFFCURVE",
"228 0 OFFCURVE",
"192 34 CURVE SMOOTH",
"158 64 OFFCURVE",
"140 102 OFFCURVE",
"132 142 CURVE",
"118 188 OFFCURVE",
"118 240 OFFCURVE",
"130 302 CURVE SMOOTH",
"314 1168 LINE SMOOTH",
"328 1226 OFFCURVE",
"350 1278 OFFCURVE",
"382 1326 CURVE",
"412 1366 OFFCURVE",
"444 1406 OFFCURVE",
"490 1436 CURVE SMOOTH",
"536 1466 OFFCURVE",
"596 1486 OFFCURVE",
"668 1486 CURVE SMOOTH",
"740 1486 OFFCURVE",
"790 1466 OFFCURVE",
"824 1436 CURVE SMOOTH",
"858 1406 OFFCURVE",
"878 1366 OFFCURVE",
"886 1326 CURVE",
"900 1282 OFFCURVE",
"900 1230 OFFCURVE",
"890 1168 CURVE",
"846 966 LINE",
"644 966 LINE",
"688 1168 LINE SMOOTH",
"696 1206 OFFCURVE",
"692 1238 OFFCURVE",
"674 1260 CURVE SMOOTH",
"666 1270 OFFCURVE",
"650 1276 OFFCURVE",
"628 1276 CURVE SMOOTH",
"590 1276 OFFCURVE",
"566 1248 OFFCURVE",
"550 1222 CURVE",
"544 1208 OFFCURVE",
"536 1190 OFFCURVE",
"530 1168 CURVE",
"346 302 LINE",
"340 264 OFFCURVE",
"344 232 OFFCURVE",
"360 210 CURVE",
"368 200 OFFCURVE",
"380 194 OFFCURVE",
"398 194 CURVE SMOOTH",
"444 194 OFFCURVE",
"468 218 OFFCURVE",
"484 248 CURVE SMOOTH",
"490 260 OFFCURVE",
"498 278 OFFCURVE",
"504 302 CURVE",
"546 504 LINE"
);
}
);
width = 692;
},
{
layerId = "38BA14EB-08C8-4487-88C1-8F957131FCA1";
paths = (
{
closed = 1;
nodes = (
"260 504 LINE",
"212 282 LINE SMOOTH",
"206 254 OFFCURVE",
"192 194 OFFCURVE",
"160 194 CURVE SMOOTH",
"136 194 OFFCURVE",
"144 254 OFFCURVE",
"150 282 CURVE SMOOTH",
"344 1196 LINE",
"352 1228 OFFCURVE",
"364 1276 OFFCURVE",
"390 1276 CURVE SMOOTH",
"422 1276 OFFCURVE",
"410 1214 OFFCURVE",
"406 1188 CURVE",
"358 966 LINE",
"520 966 LINE",
"568 1188 LINE SMOOTH",
"590 1292 OFFCURVE",
"592 1486 OFFCURVE",
"432 1486 CURVE SMOOTH",
"282 1486 OFFCURVE",
"200 1318 OFFCURVE",
"174 1188 CURVE SMOOTH",
"-18 282 LINE SMOOTH",
"-44 152 OFFCURVE",
"-40 -16 OFFCURVE",
"114 -16 CURVE SMOOTH",
"266 -16 OFFCURVE",
"342 128 OFFCURVE",
"374 282 CURVE SMOOTH",
"422 504 LINE"
);
},
{
closed = 1;
nodes = (
"548 1650 LINE",
"668 1830 LINE",
"538 1830 LINE",
"488 1752 LINE",
"470 1830 LINE",
"340 1830 LINE",
"386 1650 LINE"
);
}
);
width = 476;
},
{
layerId = "6463F33F-C059-4755-9C76-9F35D70521A0";
paths = (
{
closed = 1;
nodes = (
"250 504 LINE",
"250 282 LINE SMOOTH",
"250 254 OFFCURVE",
"248 194 OFFCURVE",
"216 194 CURVE SMOOTH",
"192 194 OFFCURVE",
"188 254 OFFCURVE",
"188 282 CURVE SMOOTH",
"188 1196 LINE SMOOTH",
"188 1228 OFFCURVE",
"190 1276 OFFCURVE",
"216 1276 CURVE SMOOTH",
"248 1276 OFFCURVE",
"250 1214 OFFCURVE",
"250 1188 CURVE SMOOTH",
"250 966 LINE",
"412 966 LINE",
"412 1188 LINE SMOOTH",
"412 1292 OFFCURVE",
"374 1486 OFFCURVE",
"214 1486 CURVE SMOOTH",
"64 1486 OFFCURVE",
"18 1318 OFFCURVE",
"18 1188 CURVE SMOOTH",
"18 282 LINE SMOOTH",
"18 152 OFFCURVE",
"58 -16 OFFCURVE",
"214 -16 CURVE SMOOTH",
"366 -16 OFFCURVE",
"412 128 OFFCURVE",
"412 282 CURVE SMOOTH",
"412 504 LINE"
);
},
{
closed = 1;
nodes = (
"294 1650 LINE",
"376 1830 LINE",
"246 1830 LINE",
"212 1752 LINE",
"178 1830 LINE",
"48 1830 LINE",
"132 1650 LINE"
);
}
);
width = 476;
}
);
unicode = 010C;
},
{
color = 0;
glyphname = Ccedilla;
lastChange = "2019-09-28 02:44:12 +0000";
layers = (
{
layerId = "1AB499B8-18A8-432D-A211-B6882CCB886D";
paths = (
{
closed = 1;
nodes = (
"642 504 LINE",
"642 302 LINE SMOOTH",
"640 242 OFFCURVE",
"628 188 OFFCURVE",
"606 142 CURVE SMOOTH",
"588 102 OFFCURVE",
"560 64 OFFCURVE",
"520 34 CURVE SMOOTH",
"480 2 OFFCURVE",
"426 -16 OFFCURVE",
"354 -16 CURVE SMOOTH",
"282 -16 OFFCURVE",
"226 2 OFFCURVE",
"186 34 CURVE SMOOTH",
"146 64 OFFCURVE",
"120 102 OFFCURVE",
"102 142 CURVE SMOOTH",
"80 188 OFFCURVE",
"68 242 OFFCURVE",
"66 302 CURVE",
"66 1168 LINE SMOOTH",
"68 1226 OFFCURVE",
"80 1280 OFFCURVE",
"102 1326 CURVE SMOOTH",
"120 1366 OFFCURVE",
"146 1406 OFFCURVE",
"186 1436 CURVE SMOOTH",
"226 1466 OFFCURVE",
"282 1486 OFFCURVE",
"354 1486 CURVE SMOOTH",
"426 1486 OFFCURVE",
"480 1466 OFFCURVE",
"520 1436 CURVE SMOOTH",
"560 1406 OFFCURVE",
"588 1366 OFFCURVE",
"606 1326 CURVE SMOOTH",
"628 1280 OFFCURVE",
"640 1226 OFFCURVE",
"642 1168 CURVE SMOOTH",
"642 966 LINE",
"440 966 LINE",
"440 1168 LINE SMOOTH",
"440 1208 OFFCURVE",
"430 1236 OFFCURVE",
"408 1260 CURVE",
"398 1270 OFFCURVE",
"380 1276 OFFCURVE",
"358 1276 CURVE SMOOTH",
"320 1276 OFFCURVE",
"302 1248 OFFCURVE",
"292 1222 CURVE SMOOTH",
"286 1206 OFFCURVE",
"284 1188 OFFCURVE",
"282 1168 CURVE",
"282 302 LINE",
"284 260 OFFCURVE",
"296 232 OFFCURVE",
"316 210 CURVE",
"326 200 OFFCURVE",
"340 194 OFFCURVE",
"358 194 CURVE SMOOTH",
"404 194 OFFCURVE",
"422 218 OFFCURVE",
"432 248 CURVE",
"438 262 OFFCURVE",
"440 280 OFFCURVE",
"440 302 CURVE SMOOTH",
"440 504 LINE"
);
},
{
closed = 1;
nodes = (
"430 -246 LINE",
"386 -376 LINE",
"284 -376 LINE",
"324 -246 LINE",
"262 -246 LINE",
"262 -108 LINE",
"430 -108 LINE"
);
}
);
width = 692;
},
{
layerId = "E10EC336-1202-48FF-9A55-15876E80CDFD";
paths = (
{
closed = 1;
nodes = (
"748 504 LINE",
"706 302 LINE",
"690 242 OFFCURVE",
"666 188 OFFCURVE",
"636 142 CURVE",
"606 102 OFFCURVE",
"572 64 OFFCURVE",
"526 34 CURVE",
"478 0 OFFCURVE",
"420 -16 OFFCURVE",
"350 -16 CURVE SMOOTH",
"280 -16 OFFCURVE",
"228 0 OFFCURVE",
"192 34 CURVE SMOOTH",
"158 64 OFFCURVE",
"140 102 OFFCURVE",
"132 142 CURVE",
"118 188 OFFCURVE",
"118 240 OFFCURVE",
"130 302 CURVE SMOOTH",
"314 1168 LINE SMOOTH",
"328 1226 OFFCURVE",
"350 1278 OFFCURVE",
"382 1326 CURVE",
"412 1366 OFFCURVE",
"444 1406 OFFCURVE",
"490 1436 CURVE SMOOTH",
"536 1466 OFFCURVE",
"596 1486 OFFCURVE",
"668 1486 CURVE SMOOTH",
"740 1486 OFFCURVE",
"790 1466 OFFCURVE",
"824 1436 CURVE SMOOTH",
"858 1406 OFFCURVE",
"878 1366 OFFCURVE",
"886 1326 CURVE",
"900 1282 OFFCURVE",
"900 1230 OFFCURVE",
"890 1168 CURVE",
"846 966 LINE",
"644 966 LINE",
"688 1168 LINE SMOOTH",
"696 1206 OFFCURVE",
"692 1238 OFFCURVE",
"674 1260 CURVE SMOOTH",
"666 1270 OFFCURVE",
"650 1276 OFFCURVE",
"628 1276 CURVE SMOOTH",
"590 1276 OFFCURVE",
"566 1248 OFFCURVE",
"550 1222 CURVE",
"544 1208 OFFCURVE",
"536 1190 OFFCURVE",
"530 1168 CURVE",
"346 302 LINE",
"340 264 OFFCURVE",
"344 232 OFFCURVE",
"360 210 CURVE",
"368 200 OFFCURVE",
"380 194 OFFCURVE",
"398 194 CURVE SMOOTH",
"444 194 OFFCURVE",
"468 218 OFFCURVE",
"484 248 CURVE SMOOTH",
"490 260 OFFCURVE",
"498 278 OFFCURVE",
"504 302 CURVE",
"546 504 LINE"
);
},
{
closed = 1;
nodes = (
"376 -246 LINE",
"306 -376 LINE",
"204 -376 LINE",
"270 -246 LINE",
"208 -246 LINE",
"238 -108 LINE",
"406 -108 LINE"
);
}
);
width = 692;
},
{
layerId = "38BA14EB-08C8-4487-88C1-8F957131FCA1";
paths = (
{
closed = 1;
nodes = (
"194 -108 LINE",
"58 -108 LINE",
"28 -246 LINE",
"64 -246 LINE",
"12 -376 LINE",
"110 -376 LINE",
"164 -246 LINE"
);
},
{
closed = 1;
nodes = (
"298 504 LINE",
"250 282 LINE SMOOTH",
"244 254 OFFCURVE",
"230 194 OFFCURVE",
"198 194 CURVE SMOOTH",
"174 194 OFFCURVE",
"182 254 OFFCURVE",
"188 282 CURVE SMOOTH",
"382 1196 LINE",
"390 1228 OFFCURVE",
"402 1276 OFFCURVE",
"428 1276 CURVE SMOOTH",
"460 1276 OFFCURVE",
"448 1214 OFFCURVE",
"442 1188 CURVE SMOOTH",
"396 966 LINE",
"558 966 LINE",
"604 1188 LINE SMOOTH",
"626 1292 OFFCURVE",
"630 1486 OFFCURVE",
"470 1486 CURVE SMOOTH",
"320 1486 OFFCURVE",
"238 1318 OFFCURVE",
"210 1188 CURVE SMOOTH",
"18 282 LINE SMOOTH",
"-8 152 OFFCURVE",
"-4 -16 OFFCURVE",
"150 -16 CURVE SMOOTH",
"302 -16 OFFCURVE",
"380 128 OFFCURVE",
"412 282 CURVE SMOOTH",
"460 504 LINE"
);
}
);
width = 476;
},
{
layerId = "6463F33F-C059-4755-9C76-9F35D70521A0";
paths = (
{
closed = 1;
nodes = (
"276 -108 LINE",
"140 -108 LINE",
"140 -246 LINE",
"176 -246 LINE",
"152 -376 LINE",
"250 -376 LINE",
"276 -246 LINE"
);
},
{
closed = 1;
nodes = (
"250 504 LINE",
"250 282 LINE SMOOTH",
"250 254 OFFCURVE",
"248 194 OFFCURVE",
"216 194 CURVE SMOOTH",
"192 194 OFFCURVE",
"188 254 OFFCURVE",
"188 282 CURVE SMOOTH",
"188 1196 LINE SMOOTH",
"188 1228 OFFCURVE",
"190 1276 OFFCURVE",
"216 1276 CURVE SMOOTH",
"248 1276 OFFCURVE",
"250 1214 OFFCURVE",
"250 1188 CURVE SMOOTH",
"250 966 LINE",
"412 966 LINE",
"412 1188 LINE SMOOTH",
"412 1292 OFFCURVE",
"374 1486 OFFCURVE",
"214 1486 CURVE SMOOTH",
"64 1486 OFFCURVE",
"18 1318 OFFCURVE",
"18 1188 CURVE SMOOTH",
"18 282 LINE SMOOTH",
"18 152 OFFCURVE",
"58 -16 OFFCURVE",
"214 -16 CURVE SMOOTH",
"366 -16 OFFCURVE",
"412 128 OFFCURVE",
"412 282 CURVE SMOOTH",
"412 504 LINE"
);
}
);
width = 476;
}
);
unicode = 00C7;
},
{
color = 0;
glyphname = Ccircumflex;
lastChange = "2019-09-28 02:44:12 +0000";
layers = (
{
layerId = "1AB499B8-18A8-432D-A211-B6882CCB886D";
paths = (
{
closed = 1;
nodes = (
"642 504 LINE",
"642 302 LINE SMOOTH",
"640 242 OFFCURVE",
"628 188 OFFCURVE",
"606 142 CURVE SMOOTH",
"588 102 OFFCURVE",
"560 64 OFFCURVE",
"520 34 CURVE SMOOTH",
"480 2 OFFCURVE",
"426 -16 OFFCURVE",
"354 -16 CURVE SMOOTH",
"282 -16 OFFCURVE",
"226 2 OFFCURVE",
"186 34 CURVE SMOOTH",
"146 64 OFFCURVE",
"120 102 OFFCURVE",
"102 142 CURVE SMOOTH",
"80 188 OFFCURVE",
"68 242 OFFCURVE",
"66 302 CURVE",
"66 1168 LINE SMOOTH",
"68 1226 OFFCURVE",
"80 1280 OFFCURVE",
"102 1326 CURVE SMOOTH",
"120 1366 OFFCURVE",
"146 1406 OFFCURVE",
"186 1436 CURVE SMOOTH",
"226 1466 OFFCURVE",
"282 1486 OFFCURVE",
"354 1486 CURVE SMOOTH",
"426 1486 OFFCURVE",
"480 1466 OFFCURVE",
"520 1436 CURVE SMOOTH",
"560 1406 OFFCURVE",
"588 1366 OFFCURVE",
"606 1326 CURVE SMOOTH",
"628 1280 OFFCURVE",
"640 1226 OFFCURVE",
"642 1168 CURVE SMOOTH",
"642 966 LINE",
"440 966 LINE",
"440 1168 LINE SMOOTH",
"440 1208 OFFCURVE",
"430 1236 OFFCURVE",
"408 1260 CURVE",
"398 1270 OFFCURVE",
"380 1276 OFFCURVE",
"358 1276 CURVE SMOOTH",
"320 1276 OFFCURVE",
"302 1248 OFFCURVE",
"292 1222 CURVE SMOOTH",
"286 1206 OFFCURVE",
"284 1188 OFFCURVE",
"282 1168 CURVE",
"282 302 LINE",
"284 260 OFFCURVE",
"296 232 OFFCURVE",
"316 210 CURVE",
"326 200 OFFCURVE",
"340 194 OFFCURVE",
"358 194 CURVE SMOOTH",
"404 194 OFFCURVE",
"422 218 OFFCURVE",
"432 248 CURVE",
"438 262 OFFCURVE",
"440 280 OFFCURVE",
"440 302 CURVE SMOOTH",
"440 504 LINE"
);
},
{
closed = 1;
nodes = (
"456 1830 LINE",
"594 1650 LINE",
"410 1650 LINE",
"348 1720 LINE",
"288 1650 LINE",
"104 1650 LINE",
"242 1830 LINE"
);
}
);
width = 692;
},
{
layerId = "E10EC336-1202-48FF-9A55-15876E80CDFD";
paths = (
{
closed = 1;
nodes = (
"844 1830 LINE",
"944 1650 LINE",
"760 1650 LINE",
"712 1720 LINE",
"638 1650 LINE",
"454 1650 LINE",
"630 1830 LINE"
);
},
{
closed = 1;
nodes = (
"748 504 LINE",
"706 302 LINE",
"690 242 OFFCURVE",
"666 188 OFFCURVE",
"636 142 CURVE",
"606 102 OFFCURVE",
"572 64 OFFCURVE",
"526 34 CURVE",
"478 0 OFFCURVE",
"420 -16 OFFCURVE",
"350 -16 CURVE SMOOTH",
"280 -16 OFFCURVE",
"228 0 OFFCURVE",
"192 34 CURVE SMOOTH",
"158 64 OFFCURVE",
"140 102 OFFCURVE",
"132 142 CURVE",
"118 188 OFFCURVE",
"118 240 OFFCURVE",
"130 302 CURVE SMOOTH",
"314 1168 LINE SMOOTH",
"328 1226 OFFCURVE",
"350 1278 OFFCURVE",
"382 1326 CURVE",
"412 1366 OFFCURVE",
"444 1406 OFFCURVE",
"490 1436 CURVE SMOOTH",
"536 1466 OFFCURVE",
"596 1486 OFFCURVE",
"668 1486 CURVE SMOOTH",
"740 1486 OFFCURVE",
"790 1466 OFFCURVE",
"824 1436 CURVE SMOOTH",
"858 1406 OFFCURVE",
"878 1366 OFFCURVE",
"886 1326 CURVE",
"900 1282 OFFCURVE",
"900 1230 OFFCURVE",
"890 1168 CURVE",
"846 966 LINE",
"644 966 LINE",
"688 1168 LINE SMOOTH",
"696 1206 OFFCURVE",
"692 1238 OFFCURVE",
"674 1260 CURVE SMOOTH",
"666 1270 OFFCURVE",
"650 1276 OFFCURVE",
"628 1276 CURVE SMOOTH",
"590 1276 OFFCURVE",
"566 1248 OFFCURVE",
"550 1222 CURVE",
"544 1208 OFFCURVE",
"536 1190 OFFCURVE",
"530 1168 CURVE",
"346 302 LINE",
"340 264 OFFCURVE",
"344 232 OFFCURVE",
"360 210 CURVE",
"368 200 OFFCURVE",
"380 194 OFFCURVE",
"398 194 CURVE SMOOTH",
"444 194 OFFCURVE",
"468 218 OFFCURVE",
"484 248 CURVE SMOOTH",
"490 260 OFFCURVE",
"498 278 OFFCURVE",
"504 302 CURVE",
"546 504 LINE"
);
}
);
width = 692;
},
{
layerId = "38BA14EB-08C8-4487-88C1-8F957131FCA1";
paths = (
{
closed = 1;
nodes = (
"262 504 LINE",
"216 282 LINE SMOOTH",
"210 254 OFFCURVE",
"194 194 OFFCURVE",
"162 194 CURVE SMOOTH",
"138 194 OFFCURVE",
"148 254 OFFCURVE",
"154 282 CURVE SMOOTH",
"348 1196 LINE SMOOTH",
"354 1228 OFFCURVE",
"366 1276 OFFCURVE",
"392 1276 CURVE SMOOTH",
"424 1276 OFFCURVE",
"414 1214 OFFCURVE",
"408 1188 CURVE SMOOTH",
"360 966 LINE",
"522 966 LINE",
"570 1188 LINE SMOOTH",
"592 1292 OFFCURVE",
"596 1486 OFFCURVE",
"436 1486 CURVE SMOOTH",
"286 1486 OFFCURVE",
"204 1318 OFFCURVE",
"176 1188 CURVE SMOOTH",
"-14 282 LINE SMOOTH",
"-42 152 OFFCURVE",
"-38 -16 OFFCURVE",
"116 -16 CURVE SMOOTH",
"268 -16 OFFCURVE",
"344 128 OFFCURVE",
"378 282 CURVE SMOOTH",
"424 504 LINE"
);
},
{
closed = 1;
nodes = (
"412 1780 LINE",
"290 1600 LINE",
"420 1600 LINE",
"470 1678 LINE",
"488 1600 LINE",
"618 1600 LINE",
"574 1780 LINE"
);
}
);
width = 476;
},
{
layerId = "6463F33F-C059-4755-9C76-9F35D70521A0";
paths = (
{
closed = 1;
nodes = (
"250 504 LINE",
"250 282 LINE SMOOTH",
"250 254 OFFCURVE",
"248 194 OFFCURVE",
"216 194 CURVE SMOOTH",
"192 194 OFFCURVE",
"188 254 OFFCURVE",
"188 282 CURVE SMOOTH",
"188 1196 LINE SMOOTH",
"188 1228 OFFCURVE",
"190 1276 OFFCURVE",
"216 1276 CURVE SMOOTH",
"248 1276 OFFCURVE",
"250 1214 OFFCURVE",
"250 1188 CURVE SMOOTH",
"250 966 LINE",
"412 966 LINE",
"412 1188 LINE SMOOTH",
"412 1292 OFFCURVE",
"374 1486 OFFCURVE",
"214 1486 CURVE SMOOTH",
"64 1486 OFFCURVE",
"18 1318 OFFCURVE",
"18 1188 CURVE SMOOTH",
"18 282 LINE SMOOTH",
"18 152 OFFCURVE",
"58 -16 OFFCURVE",
"214 -16 CURVE SMOOTH",
"366 -16 OFFCURVE",
"412 128 OFFCURVE",
"412 282 CURVE SMOOTH",
"412 504 LINE"
);
},
{
closed = 1;
nodes = (
"128 1780 LINE",
"44 1600 LINE",
"174 1600 LINE",
"208 1678 LINE",
"242 1600 LINE",
"372 1600 LINE",
"290 1780 LINE"
);
}
);
width = 476;
}
);
unicode = 0108;
},
{
color = 0;
glyphname = Cdotaccent;
lastChange = "2019-09-28 02:44:12 +0000";
layers = (
{
layerId = "1AB499B8-18A8-432D-A211-B6882CCB886D";
paths = (
{
closed = 1;
nodes = (
"642 504 LINE",
"642 302 LINE SMOOTH",
"640 242 OFFCURVE",
"628 188 OFFCURVE",
"606 142 CURVE SMOOTH",
"588 102 OFFCURVE",
"560 64 OFFCURVE",
"520 34 CURVE SMOOTH",
"480 2 OFFCURVE",
"426 -16 OFFCURVE",
"354 -16 CURVE SMOOTH",
"282 -16 OFFCURVE",
"226 2 OFFCURVE",
"186 34 CURVE SMOOTH",
"146 64 OFFCURVE",
"120 102 OFFCURVE",
"102 142 CURVE SMOOTH",
"80 188 OFFCURVE",
"68 242 OFFCURVE",
"66 302 CURVE",
"66 1168 LINE SMOOTH",
"68 1226 OFFCURVE",
"80 1280 OFFCURVE",
"102 1326 CURVE SMOOTH",
"120 1366 OFFCURVE",
"146 1406 OFFCURVE",
"186 1436 CURVE SMOOTH",
"226 1466 OFFCURVE",
"282 1486 OFFCURVE",
"354 1486 CURVE SMOOTH",
"426 1486 OFFCURVE",
"480 1466 OFFCURVE",
"520 1436 CURVE SMOOTH",
"560 1406 OFFCURVE",
"588 1366 OFFCURVE",
"606 1326 CURVE SMOOTH",
"628 1280 OFFCURVE",
"640 1226 OFFCURVE",
"642 1168 CURVE SMOOTH",
"642 966 LINE",
"440 966 LINE",
"440 1168 LINE SMOOTH",
"440 1208 OFFCURVE",
"430 1236 OFFCURVE",
"408 1260 CURVE",
"398 1270 OFFCURVE",
"380 1276 OFFCURVE",
"358 1276 CURVE SMOOTH",
"320 1276 OFFCURVE",
"302 1248 OFFCURVE",
"292 1222 CURVE SMOOTH",
"286 1206 OFFCURVE",
"284 1188 OFFCURVE",
"282 1168 CURVE",
"282 302 LINE",
"284 260 OFFCURVE",
"296 232 OFFCURVE",
"316 210 CURVE",
"326 200 OFFCURVE",
"340 194 OFFCURVE",
"358 194 CURVE SMOOTH",
"404 194 OFFCURVE",
"422 218 OFFCURVE",
"432 248 CURVE",
"438 262 OFFCURVE",
"440 280 OFFCURVE",
"440 302 CURVE SMOOTH",
"440 504 LINE"
);
},
{
closed = 1;
nodes = (
"248 1846 LINE",
"450 1846 LINE",
"450 1644 LINE",
"248 1644 LINE"
);
}
);
width = 692;
},
{
layerId = "E10EC336-1202-48FF-9A55-15876E80CDFD";
paths = (
{
closed = 1;
nodes = (
"640 1846 LINE",
"842 1846 LINE",
"798 1644 LINE",
"596 1644 LINE"
);
},
{
closed = 1;
nodes = (
"748 504 LINE",
"706 302 LINE",
"690 242 OFFCURVE",
"666 188 OFFCURVE",
"636 142 CURVE",
"606 102 OFFCURVE",
"572 64 OFFCURVE",
"526 34 CURVE",
"478 0 OFFCURVE",
"420 -16 OFFCURVE",
"350 -16 CURVE SMOOTH",
"280 -16 OFFCURVE",
"228 0 OFFCURVE",
"192 34 CURVE SMOOTH",
"158 64 OFFCURVE",
"140 102 OFFCURVE",
"132 142 CURVE",
"118 188 OFFCURVE",
"118 240 OFFCURVE",
"130 302 CURVE SMOOTH",
"314 1168 LINE SMOOTH",
"328 1226 OFFCURVE",
"350 1278 OFFCURVE",
"382 1326 CURVE",
"412 1366 OFFCURVE",
"444 1406 OFFCURVE",
"490 1436 CURVE SMOOTH",
"536 1466 OFFCURVE",
"596 1486 OFFCURVE",
"668 1486 CURVE SMOOTH",
"740 1486 OFFCURVE",
"790 1466 OFFCURVE",
"824 1436 CURVE SMOOTH",
"858 1406 OFFCURVE",
"878 1366 OFFCURVE",
"886 1326 CURVE",
"900 1282 OFFCURVE",
"900 1230 OFFCURVE",
"890 1168 CURVE",
"846 966 LINE",
"644 966 LINE",
"688 1168 LINE SMOOTH",
"696 1206 OFFCURVE",
"692 1238 OFFCURVE",
"674 1260 CURVE SMOOTH",
"666 1270 OFFCURVE",
"650 1276 OFFCURVE",
"628 1276 CURVE SMOOTH",
"590 1276 OFFCURVE",
"566 1248 OFFCURVE",
"550 1222 CURVE",
"544 1208 OFFCURVE",
"536 1190 OFFCURVE",
"530 1168 CURVE",
"346 302 LINE",
"340 264 OFFCURVE",
"344 232 OFFCURVE",
"360 210 CURVE",
"368 200 OFFCURVE",
"380 194 OFFCURVE",
"398 194 CURVE SMOOTH",
"444 194 OFFCURVE",
"468 218 OFFCURVE",
"484 248 CURVE SMOOTH",
"490 260 OFFCURVE",
"498 278 OFFCURVE",
"504 302 CURVE",
"546 504 LINE"
);
}
);
width = 692;
},
{
layerId = "38BA14EB-08C8-4487-88C1-8F957131FCA1";
paths = (
{
closed = 1;
nodes = (
"382 1644 LINE",
"540 1644 LINE",
"582 1846 LINE",
"424 1846 LINE"
);
},
{
closed = 1;
nodes = (
"258 504 LINE",
"212 282 LINE SMOOTH",
"206 254 OFFCURVE",
"192 194 OFFCURVE",
"160 194 CURVE SMOOTH",
"136 194 OFFCURVE",
"144 254 OFFCURVE",
"150 282 CURVE SMOOTH",
"344 1196 LINE SMOOTH",
"350 1228 OFFCURVE",
"364 1276 OFFCURVE",
"390 1276 CURVE SMOOTH",
"422 1276 OFFCURVE",
"410 1214 OFFCURVE",
"404 1188 CURVE SMOOTH",
"358 966 LINE",
"520 966 LINE",
"566 1188 LINE SMOOTH",
"588 1292 OFFCURVE",
"592 1486 OFFCURVE",
"432 1486 CURVE SMOOTH",
"282 1486 OFFCURVE",
"200 1318 OFFCURVE",
"172 1188 CURVE SMOOTH",
"-18 282 LINE SMOOTH",
"-46 152 OFFCURVE",
"-42 -16 OFFCURVE",
"112 -16 CURVE SMOOTH",
"264 -16 OFFCURVE",
"342 128 OFFCURVE",
"374 282 CURVE SMOOTH",
"420 504 LINE"
);
}
);
width = 476;
},
{
layerId = "6463F33F-C059-4755-9C76-9F35D70521A0";
paths = (
{
closed = 1;
nodes = (
"130 1644 LINE",
"288 1644 LINE",
"288 1846 LINE",
"130 1846 LINE"
);
},
{
closed = 1;
nodes = (
"250 504 LINE",
"250 282 LINE SMOOTH",
"250 254 OFFCURVE",
"248 194 OFFCURVE",
"216 194 CURVE SMOOTH",
"192 194 OFFCURVE",
"188 254 OFFCURVE",
"188 282 CURVE SMOOTH",
"188 1196 LINE SMOOTH",
"188 1228 OFFCURVE",
"190 1276 OFFCURVE",
"216 1276 CURVE SMOOTH",
"248 1276 OFFCURVE",
"250 1214 OFFCURVE",
"250 1188 CURVE SMOOTH",
"250 966 LINE",
"412 966 LINE",
"412 1188 LINE SMOOTH",
"412 1292 OFFCURVE",
"374 1486 OFFCURVE",
"214 1486 CURVE SMOOTH",
"64 1486 OFFCURVE",
"18 1318 OFFCURVE",
"18 1188 CURVE SMOOTH",
"18 282 LINE SMOOTH",
"18 152 OFFCURVE",
"58 -16 OFFCURVE",
"214 -16 CURVE SMOOTH",
"366 -16 OFFCURVE",
"412 128 OFFCURVE",
"412 282 CURVE SMOOTH",
"412 504 LINE"
);
}
);
width = 476;
}
);
unicode = 010A;
},
{
color = 0;
glyphname = D;
lastChange = "2019-09-28 02:44:12 +0000";
layers = (
{
anchors = (
{
name = center;
position = "{372, 736}";
},
{
name = top;
position = "{372, 1470}";
}
);
layerId = "1AB499B8-18A8-432D-A211-B6882CCB886D";
paths = (
{
closed = 1;
nodes = (
"680 446 OFFCURVE",
"672 264 OFFCURVE",
"616 152 CURVE SMOOTH",
"558 40 OFFCURVE",
"450 0 OFFCURVE",
"250 0 CURVE SMOOTH",
"80 0 LINE",
"80 1470 LINE",
"250 1470 LINE SMOOTH",
"450 1470 OFFCURVE",
"558 1430 OFFCURVE",
"616 1318 CURVE SMOOTH",
"672 1206 OFFCURVE",
"680 1022 OFFCURVE",
"680 734 CURVE SMOOTH"
);
},
{
closed = 1;
nodes = (
"296 216 LINE",
"370 216 OFFCURVE",
"412 224 OFFCURVE",
"434 296 CURVE SMOOTH",
"444 330 OFFCURVE",
"452 382 OFFCURVE",
"454 452 CURVE SMOOTH",
"456 522 OFFCURVE",
"456 616 OFFCURVE",
"456 736 CURVE SMOOTH",
"456 856 OFFCURVE",
"456 950 OFFCURVE",
"454 1020 CURVE SMOOTH",
"452 1088 OFFCURVE",
"444 1140 OFFCURVE",
"434 1176 CURVE SMOOTH",
"412 1246 OFFCURVE",
"370 1254 OFFCURVE",
"296 1254 CURVE"
);
}
);
width = 744;
},
{
anchors = (
{
name = center;
position = "{372, 736}";
},
{
name = top;
position = "{372, 1470}";
}
);
layerId = "E10EC336-1202-48FF-9A55-15876E80CDFD";
paths = (
{
closed = 1;
nodes = (
"80 0 LINE",
"392 1470 LINE",
"562 1470 LINE SMOOTH",
"762 1470 OFFCURVE",
"858 1430 OFFCURVE",
"896 1318 CURVE",
"928 1206 OFFCURVE",
"898 1024 OFFCURVE",
"836 734 CURVE SMOOTH",
"774 446 OFFCURVE",
"728 264 OFFCURVE",
"648 152 CURVE SMOOTH",
"566 40 OFFCURVE",
"450 0 OFFCURVE",
"250 0 CURVE SMOOTH"
);
},
{
closed = 1;
nodes = (
"340 216 LINE",
"414 216 OFFCURVE",
"458 224 OFFCURVE",
"496 296 CURVE SMOOTH",
"530 362 OFFCURVE",
"558 480 OFFCURVE",
"578 576 CURVE SMOOTH",
"588 622 OFFCURVE",
"598 676 OFFCURVE",
"612 736 CURVE SMOOTH",
"624 796 OFFCURVE",
"636 850 OFFCURVE",
"646 898 CURVE SMOOTH",
"666 992 OFFCURVE",
"690 1104 OFFCURVE",
"682 1176 CURVE SMOOTH",
"676 1246 OFFCURVE",
"636 1254 OFFCURVE",
"562 1254 CURVE"
);
}
);
width = 744;
},
{
anchors = (
{
name = center;
position = "{254, 736}";
},
{
name = top;
position = "{254, 1470}";
}
);
layerId = "38BA14EB-08C8-4487-88C1-8F957131FCA1";
paths = (
{
closed = 1;
nodes = (
"110 0 LINE SMOOTH",
"242 0 OFFCURVE",
"302 52 OFFCURVE",
"344 130 CURVE SMOOTH",
"394 218 OFFCURVE",
"442 446 OFFCURVE",
"504 734 CURVE SMOOTH",
"564 1022 OFFCURVE",
"600 1206 OFFCURVE",
"590 1318 CURVE",
"576 1430 OFFCURVE",
"534 1470 OFFCURVE",
"402 1470 CURVE SMOOTH",
"264 1470 LINE",
"-48 0 LINE"
);
},
{
closed = 1;
nodes = (
"384 1254 LINE",
"408 1252 OFFCURVE",
"438 1258 OFFCURVE",
"434 1206 CURVE SMOOTH",
"424 1116 OFFCURVE",
"390 974 OFFCURVE",
"326 672 CURVE SMOOTH",
"288 496 OFFCURVE",
"250 312 OFFCURVE",
"234 264 CURVE",
"212 208 OFFCURVE",
"188 216 OFFCURVE",
"162 216 CURVE"
);
}
);
width = 506;
},
{
anchors = (
{
name = center;
position = "{254, 736}";
},
{
name = top;
position = "{254, 1470}";
}
);
layerId = "6463F33F-C059-4755-9C76-9F35D70521A0";
paths = (
{
closed = 1;
nodes = (
"190 0 LINE SMOOTH",
"322 0 OFFCURVE",
"370 52 OFFCURVE",
"396 130 CURVE SMOOTH",
"426 218 OFFCURVE",
"426 446 OFFCURVE",
"426 734 CURVE SMOOTH",
"426 1022 OFFCURVE",
"422 1206 OFFCURVE",
"388 1318 CURVE SMOOTH",
"352 1430 OFFCURVE",
"300 1470 OFFCURVE",
"168 1470 CURVE SMOOTH",
"30 1470 LINE",
"30 0 LINE"
);
},
{
closed = 1;
nodes = (
"196 1254 LINE",
"220 1252 OFFCURVE",
"250 1258 OFFCURVE",
"256 1206 CURVE SMOOTH",
"266 1116 OFFCURVE",
"262 974 OFFCURVE",
"262 672 CURVE",
"262 328 OFFCURVE",
"262 328 OFFCURVE",
"262 328 CURVE",
"262 210 OFFCURVE",
"222 216 OFFCURVE",
"196 216 CURVE"
);
}
);
width = 506;
}
);
unicode = 0044;
},
{
color = 0;
glyphname = Eth;
lastChange = "2019-09-28 02:44:12 +0000";
layers = (
{
layerId = "1AB499B8-18A8-432D-A211-B6882CCB886D";
paths = (
{
closed = 1;
nodes = (
"20 862 LINE",
"80 862 LINE",
"80 1470 LINE",
"250 1470 LINE SMOOTH",
"450 1470 OFFCURVE",
"558 1430 OFFCURVE",
"616 1318 CURVE SMOOTH",
"672 1206 OFFCURVE",
"680 1022 OFFCURVE",
"680 734 CURVE SMOOTH",
"680 446 OFFCURVE",
"672 264 OFFCURVE",
"616 152 CURVE SMOOTH",
"558 40 OFFCURVE",
"450 0 OFFCURVE",
"250 0 CURVE SMOOTH",
"80 0 LINE",
"80 640 LINE",
"20 640 LINE"
);
},
{
closed = 1;
nodes = (
"296 862 LINE",
"378 862 LINE",
"378 640 LINE",
"296 640 LINE",
"296 216 LINE",
"370 216 OFFCURVE",
"412 224 OFFCURVE",
"434 296 CURVE SMOOTH",
"444 330 OFFCURVE",
"452 382 OFFCURVE",
"454 452 CURVE SMOOTH",
"456 522 OFFCURVE",
"456 616 OFFCURVE",
"456 736 CURVE SMOOTH",
"456 856 OFFCURVE",
"456 950 OFFCURVE",
"454 1020 CURVE SMOOTH",
"452 1088 OFFCURVE",
"444 1140 OFFCURVE",
"434 1176 CURVE SMOOTH",
"412 1246 OFFCURVE",
"370 1254 OFFCURVE",
"296 1254 CURVE"
);
}
);
width = 744;
},
{
layerId = "E10EC336-1202-48FF-9A55-15876E80CDFD";
paths = (
{
closed = 1;
nodes = (
"202 862 LINE",
"262 862 LINE",
"392 1470 LINE",
"562 1470 LINE SMOOTH",
"762 1470 OFFCURVE",
"858 1430 OFFCURVE",
"896 1318 CURVE",
"928 1206 OFFCURVE",
"898 1024 OFFCURVE",
"836 734 CURVE SMOOTH",
"774 446 OFFCURVE",
"728 264 OFFCURVE",
"648 152 CURVE SMOOTH",
"566 40 OFFCURVE",
"450 0 OFFCURVE",
"250 0 CURVE SMOOTH",
"80 0 LINE",
"216 640 LINE",
"156 640 LINE"
);
},
{
closed = 1;
nodes = (
"478 862 LINE",
"560 862 LINE",
"514 640 LINE",
"432 640 LINE",
"340 216 LINE",
"414 216 OFFCURVE",
"458 224 OFFCURVE",
"496 296 CURVE SMOOTH",
"530 362 OFFCURVE",
"558 480 OFFCURVE",
"578 576 CURVE SMOOTH",
"588 622 OFFCURVE",
"598 676 OFFCURVE",
"612 736 CURVE SMOOTH",
"624 796 OFFCURVE",
"636 850 OFFCURVE",
"646 898 CURVE SMOOTH",
"666 992 OFFCURVE",
"690 1104 OFFCURVE",
"682 1176 CURVE SMOOTH",
"676 1246 OFFCURVE",
"636 1254 OFFCURVE",
"562 1254 CURVE"
);
}
);
width = 744;
},
{
layerId = "38BA14EB-08C8-4487-88C1-8F957131FCA1";
paths = (
{
closed = 1;
nodes = (
"52 640 LINE",
"88 640 LINE",
"-48 0 LINE",
"70 0 LINE SMOOTH",
"338 0 OFFCURVE",
"376 132 OFFCURVE",
"504 734 CURVE SMOOTH",
"634 1346 OFFCURVE",
"656 1470 OFFCURVE",
"384 1470 CURVE SMOOTH",
"264 1470 LINE",
"134 862 LINE",
"98 862 LINE"
);
},
{
closed = 1;
nodes = (
"384 1254 LINE",
"406 1252 OFFCURVE",
"438 1246 OFFCURVE",
"436 1186 CURVE SMOOTH",
"434 1150 OFFCURVE",
"426 1088 OFFCURVE",
"412 1020 CURVE SMOOTH",
"398 950 OFFCURVE",
"378 856 OFFCURVE",
"354 736 CURVE SMOOTH",
"328 616 OFFCURVE",
"308 522 OFFCURVE",
"292 452 CURVE SMOOTH",
"276 382 OFFCURVE",
"258 320 OFFCURVE",
"244 286 CURVE",
"224 228 OFFCURVE",
"184 220 OFFCURVE",
"162 216 CURVE",
"254 640 LINE",
"284 640 LINE",
"330 862 LINE",
"300 862 LINE"
);
}
);
width = 506;
},
{
layerId = "6463F33F-C059-4755-9C76-9F35D70521A0";
paths = (
{
closed = 1;
nodes = (
"-6 640 LINE",
"30 640 LINE",
"30 0 LINE",
"150 0 LINE SMOOTH",
"418 0 OFFCURVE",
"426 132 OFFCURVE",
"426 734 CURVE SMOOTH",
"426 1346 OFFCURVE",
"422 1470 OFFCURVE",
"150 1470 CURVE SMOOTH",
"30 1470 LINE",
"30 862 LINE",
"-6 862 LINE"
);
},
{
closed = 1;
nodes = (
"196 1254 LINE",
"196 216 LINE",
"196 640 LINE",
"226 640 LINE",
"226 862 LINE",
"196 862 LINE"
);
},
{
closed = 1;
nodes = (
"196 1254 LINE",
"220 1252 OFFCURVE",
"250 1258 OFFCURVE",
"256 1206 CURVE SMOOTH",
"266 1116 OFFCURVE",
"262 974 OFFCURVE",
"262 672 CURVE",
"262 328 OFFCURVE",
"262 328 OFFCURVE",
"262 328 CURVE",
"262 210 OFFCURVE",
"222 216 OFFCURVE",
"196 216 CURVE"
);
}
);
width = 506;
}
);
unicode = 00D0;
},
{
color = 0;
glyphname = Dcaron;
lastChange = "2019-09-28 02:44:12 +0000";
layers = (
{
layerId = "1AB499B8-18A8-432D-A211-B6882CCB886D";
paths = (
{
closed = 1;
nodes = (
"680 446 OFFCURVE",
"672 264 OFFCURVE",
"616 152 CURVE SMOOTH",
"558 40 OFFCURVE",
"450 0 OFFCURVE",
"250 0 CURVE SMOOTH",
"80 0 LINE",
"80 1470 LINE",
"250 1470 LINE SMOOTH",
"450 1470 OFFCURVE",
"558 1430 OFFCURVE",
"616 1318 CURVE SMOOTH",
"672 1206 OFFCURVE",
"680 1022 OFFCURVE",
"680 734 CURVE SMOOTH"
);
},
{
closed = 1;
nodes = (
"296 216 LINE",
"370 216 OFFCURVE",
"412 224 OFFCURVE",
"434 296 CURVE SMOOTH",
"444 330 OFFCURVE",
"452 382 OFFCURVE",
"454 452 CURVE SMOOTH",
"456 522 OFFCURVE",
"456 616 OFFCURVE",
"456 736 CURVE SMOOTH",
"456 856 OFFCURVE",
"456 950 OFFCURVE",
"454 1020 CURVE SMOOTH",
"452 1088 OFFCURVE",
"444 1140 OFFCURVE",
"434 1176 CURVE SMOOTH",
"412 1246 OFFCURVE",
"370 1254 OFFCURVE",
"296 1254 CURVE"
);
},
{
closed = 1;
nodes = (
"268 1650 LINE",
"130 1830 LINE",
"314 1830 LINE",
"374 1760 LINE",
"436 1830 LINE",
"620 1830 LINE",
"482 1650 LINE"
);
}
);
width = 744;
},
{
layerId = "E10EC336-1202-48FF-9A55-15876E80CDFD";
paths = (
{
closed = 1;
nodes = (
"618 1650 LINE",
"518 1830 LINE",
"702 1830 LINE",
"748 1760 LINE",
"824 1830 LINE",
"1008 1830 LINE",
"832 1650 LINE"
);
},
{
closed = 1;
nodes = (
"80 0 LINE",
"392 1470 LINE",
"562 1470 LINE SMOOTH",
"762 1470 OFFCURVE",
"858 1430 OFFCURVE",
"896 1318 CURVE",
"928 1206 OFFCURVE",
"898 1024 OFFCURVE",
"836 734 CURVE SMOOTH",
"774 446 OFFCURVE",
"728 264 OFFCURVE",
"648 152 CURVE SMOOTH",
"566 40 OFFCURVE",
"450 0 OFFCURVE",
"250 0 CURVE SMOOTH"
);
},
{
closed = 1;
nodes = (
"340 216 LINE",
"414 216 OFFCURVE",
"458 224 OFFCURVE",
"496 296 CURVE SMOOTH",
"530 362 OFFCURVE",
"558 480 OFFCURVE",
"578 576 CURVE SMOOTH",
"588 622 OFFCURVE",
"598 676 OFFCURVE",
"612 736 CURVE SMOOTH",
"624 796 OFFCURVE",
"636 850 OFFCURVE",
"646 898 CURVE SMOOTH",
"666 992 OFFCURVE",
"690 1104 OFFCURVE",
"682 1176 CURVE SMOOTH",
"676 1246 OFFCURVE",
"636 1254 OFFCURVE",
"562 1254 CURVE"
);
}
);
width = 744;
},
{
layerId = "38BA14EB-08C8-4487-88C1-8F957131FCA1";
paths = (
{
closed = 1;
nodes = (
"92 0 LINE SMOOTH",
"224 0 OFFCURVE",
"282 52 OFFCURVE",
"326 130 CURVE SMOOTH",
"374 218 OFFCURVE",
"422 446 OFFCURVE",
"484 734 CURVE SMOOTH",
"546 1022 OFFCURVE",
"580 1206 OFFCURVE",
"570 1318 CURVE SMOOTH",
"558 1430 OFFCURVE",
"514 1470 OFFCURVE",
"382 1470 CURVE SMOOTH",
"244 1470 LINE",
"-66 0 LINE"
);
},
{
closed = 1;
nodes = (
"364 1254 LINE",
"388 1252 OFFCURVE",
"420 1258 OFFCURVE",
"414 1206 CURVE SMOOTH",
"406 1116 OFFCURVE",
"370 974 OFFCURVE",
"306 672 CURVE SMOOTH",
"270 496 OFFCURVE",
"230 312 OFFCURVE",
"214 264 CURVE",
"192 208 OFFCURVE",
"170 216 OFFCURVE",
"144 216 CURVE"
);
},
{
closed = 1;
nodes = (
"552 1650 LINE",
"672 1830 LINE",
"542 1830 LINE",
"492 1752 LINE",
"474 1830 LINE",
"344 1830 LINE",
"390 1650 LINE"
);
}
);
width = 506;
},
{
layerId = "6463F33F-C059-4755-9C76-9F35D70521A0";
paths = (
{
closed = 1;
nodes = (
"190 0 LINE SMOOTH",
"322 0 OFFCURVE",
"370 52 OFFCURVE",
"396 130 CURVE SMOOTH",
"426 218 OFFCURVE",
"426 446 OFFCURVE",
"426 734 CURVE SMOOTH",
"426 1022 OFFCURVE",
"422 1206 OFFCURVE",
"388 1318 CURVE SMOOTH",
"352 1430 OFFCURVE",
"300 1470 OFFCURVE",
"168 1470 CURVE SMOOTH",
"30 1470 LINE",
"30 0 LINE"
);
},
{
closed = 1;
nodes = (
"196 1254 LINE",
"196 216 LINE"
);
},
{
closed = 1;
nodes = (
"300 1650 LINE",
"382 1830 LINE",
"252 1830 LINE",
"218 1752 LINE",
"184 1830 LINE",
"54 1830 LINE",
"138 1650 LINE"
);
},
{
closed = 1;
nodes = (
"196 1254 LINE",
"220 1252 OFFCURVE",
"250 1258 OFFCURVE",
"256 1206 CURVE SMOOTH",
"266 1116 OFFCURVE",
"262 974 OFFCURVE",
"262 672 CURVE",
"262 328 OFFCURVE",
"262 328 OFFCURVE",
"262 328 CURVE",
"262 210 OFFCURVE",
"222 216 OFFCURVE",
"196 216 CURVE"
);
}
);
width = 506;
}
);
unicode = 010E;
},
{
color = 0;
glyphname = Dcroat;
lastChange = "2019-09-28 02:44:12 +0000";
layers = (
{
layerId = "1AB499B8-18A8-432D-A211-B6882CCB886D";
paths = (
{
closed = 1;
nodes = (
"680 446 OFFCURVE",
"672 264 OFFCURVE",
"616 152 CURVE SMOOTH",
"558 40 OFFCURVE",
"450 0 OFFCURVE",
"250 0 CURVE SMOOTH",
"80 0 LINE",
"80 1470 LINE",
"250 1470 LINE SMOOTH",
"450 1470 OFFCURVE",
"558 1430 OFFCURVE",
"616 1318 CURVE SMOOTH",
"672 1206 OFFCURVE",
"680 1022 OFFCURVE",
"680 734 CURVE SMOOTH"
);
},
{
closed = 1;
nodes = (
"296 216 LINE",
"370 216 OFFCURVE",
"412 224 OFFCURVE",
"434 296 CURVE SMOOTH",
"444 330 OFFCURVE",
"452 382 OFFCURVE",
"454 452 CURVE SMOOTH",
"456 522 OFFCURVE",
"456 616 OFFCURVE",
"456 736 CURVE SMOOTH",
"456 856 OFFCURVE",
"456 950 OFFCURVE",
"454 1020 CURVE SMOOTH",
"452 1088 OFFCURVE",
"444 1140 OFFCURVE",
"434 1176 CURVE SMOOTH",
"412 1246 OFFCURVE",
"370 1254 OFFCURVE",
"296 1254 CURVE"
);
},
{
closed = 1;
nodes = (
"-38 820 LINE",
"350 820 LINE",
"350 662 LINE",
"-38 662 LINE"
);
}
);
width = 744;
},
{
layerId = "E10EC336-1202-48FF-9A55-15876E80CDFD";
paths = (
{
closed = 1;
nodes = (
"562 1470 LINE SMOOTH",
"762 1470 OFFCURVE",
"858 1430 OFFCURVE",
"896 1318 CURVE",
"928 1206 OFFCURVE",
"898 1024 OFFCURVE",
"836 734 CURVE SMOOTH",
"774 446 OFFCURVE",
"728 264 OFFCURVE",
"648 152 CURVE SMOOTH",
"566 40 OFFCURVE",
"450 0 OFFCURVE",
"250 0 CURVE SMOOTH",
"80 0 LINE",
"220 662 LINE",
"102 662 LINE",
"136 820 LINE",
"254 820 LINE",
"392 1470 LINE"
);
},
{
closed = 1;
nodes = (
"340 216 LINE",
"414 216 OFFCURVE",
"458 224 OFFCURVE",
"496 296 CURVE SMOOTH",
"530 362 OFFCURVE",
"558 480 OFFCURVE",
"578 576 CURVE SMOOTH",
"588 622 OFFCURVE",
"598 676 OFFCURVE",
"612 736 CURVE SMOOTH",
"624 796 OFFCURVE",
"636 850 OFFCURVE",
"646 898 CURVE SMOOTH",
"666 992 OFFCURVE",
"690 1104 OFFCURVE",
"682 1176 CURVE SMOOTH",
"676 1246 OFFCURVE",
"636 1254 OFFCURVE",
"562 1254 CURVE",
"470 820 LINE",
"524 820 LINE",
"490 662 LINE",
"436 662 LINE"
);
}
);
width = 744;
},
{
layerId = "38BA14EB-08C8-4487-88C1-8F957131FCA1";
paths = (
{
closed = 1;
nodes = (
"110 0 LINE SMOOTH",
"242 0 OFFCURVE",
"302 52 OFFCURVE",
"344 130 CURVE SMOOTH",
"394 218 OFFCURVE",
"442 446 OFFCURVE",
"504 734 CURVE SMOOTH",
"564 1022 OFFCURVE",
"600 1206 OFFCURVE",
"590 1318 CURVE",
"576 1430 OFFCURVE",
"534 1470 OFFCURVE",
"402 1470 CURVE SMOOTH",
"264 1470 LINE",
"126 820 LINE",
"56 820 LINE",
"22 662 LINE",
"92 662 LINE",
"-48 0 LINE"
);
},
{
closed = 1;
nodes = (
"384 1254 LINE",
"408 1252 OFFCURVE",
"438 1258 OFFCURVE",
"434 1206 CURVE SMOOTH",
"424 1116 OFFCURVE",
"390 974 OFFCURVE",
"326 672 CURVE SMOOTH",
"288 496 OFFCURVE",
"250 312 OFFCURVE",
"234 264 CURVE",
"212 208 OFFCURVE",
"188 216 OFFCURVE",
"162 216 CURVE",
"258 662 LINE",
"290 662 LINE",
"324 820 LINE",
"292 820 LINE"
);
}
);
width = 506;
},
{
layerId = "6463F33F-C059-4755-9C76-9F35D70521A0";
paths = (
{
closed = 1;
nodes = (
"190 0 LINE SMOOTH",
"322 0 OFFCURVE",
"370 52 OFFCURVE",
"396 130 CURVE SMOOTH",
"426 218 OFFCURVE",
"426 446 OFFCURVE",
"426 734 CURVE SMOOTH",
"426 1022 OFFCURVE",
"422 1206 OFFCURVE",
"388 1318 CURVE SMOOTH",
"352 1430 OFFCURVE",
"300 1470 OFFCURVE",
"168 1470 CURVE SMOOTH",
"30 1470 LINE",
"30 820 LINE",
"-40 820 LINE",
"-40 662 LINE",
"30 662 LINE",
"30 0 LINE"
);
},
{
closed = 1;
nodes = (
"196 1254 LINE",
"196 216 LINE",
"196 662 LINE",
"228 662 LINE",
"228 820 LINE",
"196 820 LINE"
);
},
{
closed = 1;
nodes = (
"196 1254 LINE",
"220 1252 OFFCURVE",
"250 1258 OFFCURVE",
"256 1206 CURVE SMOOTH",
"266 1116 OFFCURVE",
"262 974 OFFCURVE",
"262 672 CURVE",
"262 328 OFFCURVE",
"262 328 OFFCURVE",
"262 328 CURVE",
"262 210 OFFCURVE",
"222 216 OFFCURVE",
"196 216 CURVE"
);
}
);
width = 506;
}
);
unicode = 0110;
},
{
color = 0;
glyphname = E;
lastChange = "2019-09-28 02:44:12 +0000";
layers = (
{
anchors = (
{
name = bottom;
position = "{308, 0}";
},
{
name = ogonek;
position = "{552, 20}";
},
{
name = top;
position = "{308, 1470}";
}
);
layerId = "1AB499B8-18A8-432D-A211-B6882CCB886D";
paths = (
{
closed = 1;
nodes = (
"80 1470 LINE",
"574 1470 LINE",
"574 1248 LINE",
"296 1248 LINE",
"296 862 LINE",
"496 862 LINE",
"496 626 LINE",
"296 626 LINE",
"296 222 LINE",
"574 222 LINE",
"574 0 LINE",
"80 0 LINE"
);
}
);
width = 614;
},
{
anchors = (
{
name = bottom;
position = "{308, 0}";
},
{
name = ogonek;
position = "{552, 20}";
},
{
name = top;
position = "{308, 1470}";
}
);
layerId = "E10EC336-1202-48FF-9A55-15876E80CDFD";
paths = (
{
closed = 1;
nodes = (
"392 1470 LINE",
"886 1470 LINE",
"838 1248 LINE",
"560 1248 LINE",
"478 862 LINE",
"678 862 LINE",
"628 626 LINE",
"428 626 LINE",
"342 222 LINE",
"620 222 LINE",
"574 0 LINE",
"80 0 LINE"
);
}
);
width = 614;
},
{
anchors = (
{
name = bottom;
position = "{214, 0}";
},
{
name = ogonek;
position = "{386, 20}";
},
{
name = top;
position = "{214, 1470}";
}
);
layerId = "38BA14EB-08C8-4487-88C1-8F957131FCA1";
paths = (
{
closed = 1;
nodes = (
"-48 0 LINE",
"282 0 LINE",
"330 222 LINE",
"164 222 LINE",
"250 626 LINE",
"370 626 LINE",
"420 862 LINE",
"300 862 LINE",
"382 1248 LINE",
"548 1248 LINE",
"596 1470 LINE",
"264 1470 LINE"
);
}
);
width = 428;
},
{
anchors = (
{
name = bottom;
position = "{214, 0}";
},
{
name = ogonek;
position = "{386, 20}";
},
{
name = top;
position = "{214, 1470}";
}
);
layerId = "6463F33F-C059-4755-9C76-9F35D70521A0";
paths = (
{
closed = 1;
nodes = (
"30 0 LINE",
"362 0 LINE",
"362 222 LINE",
"196 222 LINE",
"196 626 LINE",
"316 626 LINE",
"316 862 LINE",
"196 862 LINE",
"196 1248 LINE",
"362 1248 LINE",
"362 1470 LINE",
"30 1470 LINE"
);
}
);
width = 428;
}
);
rightKerningGroup = E;
unicode = 0045;
},
{
color = 0;
glyphname = Eacute;
lastChange = "2019-09-28 02:44:12 +0000";
layers = (
{
layerId = "1AB499B8-18A8-432D-A211-B6882CCB886D";
paths = (
{
closed = 1;
nodes = (
"80 1470 LINE",
"574 1470 LINE",
"574 1248 LINE",
"296 1248 LINE",
"296 862 LINE",
"496 862 LINE",
"496 626 LINE",
"296 626 LINE",
"296 222 LINE",
"574 222 LINE",
"574 0 LINE",
"80 0 LINE"
);
},
{
closed = 1;
nodes = (
"544 1780 LINE",
"386 1600 LINE",
"230 1600 LINE",
"334 1780 LINE"
);
}
);
width = 614;
},
{
layerId = "E10EC336-1202-48FF-9A55-15876E80CDFD";
paths = (
{
closed = 1;
nodes = (
"922 1780 LINE",
"726 1600 LINE",
"570 1600 LINE",
"712 1780 LINE"
);
},
{
closed = 1;
nodes = (
"392 1470 LINE",
"886 1470 LINE",
"838 1248 LINE",
"560 1248 LINE",
"478 862 LINE",
"678 862 LINE",
"628 626 LINE",
"428 626 LINE",
"342 222 LINE",
"620 222 LINE",
"574 0 LINE",
"80 0 LINE"
);
}
);
width = 614;
},
{
layerId = "38BA14EB-08C8-4487-88C1-8F957131FCA1";
paths = (
{
closed = 1;
nodes = (
"464 1780 LINE",
"364 1600 LINE",
"492 1600 LINE",
"624 1780 LINE"
);
},
{
closed = 1;
nodes = (
"-64 0 LINE",
"266 0 LINE",
"314 222 LINE",
"148 222 LINE",
"234 626 LINE",
"354 626 LINE",
"404 862 LINE",
"284 862 LINE",
"366 1248 LINE",
"532 1248 LINE",
"578 1470 LINE",
"246 1470 LINE"
);
}
);
width = 428;
},
{
layerId = "6463F33F-C059-4755-9C76-9F35D70521A0";
paths = (
{
closed = 1;
nodes = (
"182 1780 LINE",
"120 1600 LINE",
"248 1600 LINE",
"342 1780 LINE"
);
},
{
closed = 1;
nodes = (
"30 0 LINE",
"362 0 LINE",
"362 222 LINE",
"196 222 LINE",
"196 626 LINE",
"316 626 LINE",
"316 862 LINE",
"196 862 LINE",
"196 1248 LINE",
"362 1248 LINE",
"362 1470 LINE",
"30 1470 LINE"
);
}
);
width = 428;
}
);
rightKerningGroup = E;
unicode = 00C9;
},
{
color = 0;
glyphname = Ebreve;
lastChange = "2019-09-28 02:44:12 +0000";
layers = (
{
layerId = "1AB499B8-18A8-432D-A211-B6882CCB886D";
paths = (
{
closed = 1;
nodes = (
"80 1470 LINE",
"574 1470 LINE",
"574 1248 LINE",
"296 1248 LINE",
"296 862 LINE",
"496 862 LINE",
"496 626 LINE",
"296 626 LINE",
"296 222 LINE",
"574 222 LINE",
"574 0 LINE",
"80 0 LINE"
);
},
{
closed = 1;
nodes = (
"530 1742 LINE",
"496 1708 OFFCURVE",
"456 1680 OFFCURVE",
"402 1662 CURVE",
"376 1652 OFFCURVE",
"344 1648 OFFCURVE",
"310 1648 CURVE SMOOTH",
"240 1648 OFFCURVE",
"186 1670 OFFCURVE",
"148 1694 CURVE SMOOTH",
"126 1708 OFFCURVE",
"106 1724 OFFCURVE",
"90 1742 CURVE",
"198 1834 LINE",
"212 1816 OFFCURVE",
"234 1802 OFFCURVE",
"262 1794 CURVE SMOOTH",
"276 1790 OFFCURVE",
"292 1788 OFFCURVE",
"310 1788 CURVE SMOOTH",
"348 1788 OFFCURVE",
"374 1796 OFFCURVE",
"396 1810 CURVE",
"408 1816 OFFCURVE",
"418 1824 OFFCURVE",
"426 1834 CURVE"
);
}
);
width = 614;
},
{
layerId = "E10EC336-1202-48FF-9A55-15876E80CDFD";
paths = (
{
closed = 1;
nodes = (
"900 1742 LINE",
"858 1708 OFFCURVE",
"812 1680 OFFCURVE",
"754 1662 CURVE",
"728 1652 OFFCURVE",
"696 1648 OFFCURVE",
"660 1648 CURVE SMOOTH",
"590 1648 OFFCURVE",
"540 1670 OFFCURVE",
"508 1694 CURVE SMOOTH",
"488 1708 OFFCURVE",
"472 1724 OFFCURVE",
"460 1742 CURVE",
"586 1834 LINE",
"612 1796 OFFCURVE",
"652 1788 OFFCURVE",
"690 1788 CURVE SMOOTH",
"728 1788 OFFCURVE",
"754 1796 OFFCURVE",
"780 1810 CURVE SMOOTH",
"792 1816 OFFCURVE",
"804 1824 OFFCURVE",
"814 1834 CURVE"
);
},
{
closed = 1;
nodes = (
"392 1470 LINE",
"886 1470 LINE",
"838 1248 LINE",
"560 1248 LINE",
"478 862 LINE",
"678 862 LINE",
"628 626 LINE",
"428 626 LINE",
"342 222 LINE",
"620 222 LINE",
"574 0 LINE",
"80 0 LINE"
);
}
);
width = 614;
},
{
layerId = "38BA14EB-08C8-4487-88C1-8F957131FCA1";
paths = (
{
closed = 1;
nodes = (
"550 1856 LINE",
"512 1810 LINE",
"496 1798 OFFCURVE",
"478 1788 OFFCURVE",
"466 1788 CURVE SMOOTH",
"460 1788 OFFCURVE",
"452 1790 OFFCURVE",
"446 1794 CURVE",
"436 1798 OFFCURVE",
"428 1822 OFFCURVE",
"416 1858 CURVE",
"308 1740 LINE",
"310 1732 OFFCURVE",
"320 1714 OFFCURVE",
"334 1694 CURVE",
"354 1670 OFFCURVE",
"382 1648 OFFCURVE",
"436 1648 CURVE SMOOTH",
"462 1648 OFFCURVE",
"488 1652 OFFCURVE",
"506 1662 CURVE",
"504 1662 LINE",
"550 1684 OFFCURVE",
"582 1712 OFFCURVE",
"604 1740 CURVE"
);
},
{
closed = 1;
nodes = (
"-68 0 LINE",
"262 0 LINE",
"310 222 LINE",
"144 222 LINE",
"230 626 LINE",
"350 626 LINE",
"400 862 LINE",
"280 862 LINE",
"362 1248 LINE",
"528 1248 LINE",
"574 1470 LINE",
"242 1470 LINE"
);
}
);
width = 428;
},
{
layerId = "6463F33F-C059-4755-9C76-9F35D70521A0";
paths = (
{
closed = 1;
nodes = (
"256 1856 LINE",
"226 1810 LINE",
"214 1798 OFFCURVE",
"198 1788 OFFCURVE",
"186 1788 CURVE SMOOTH",
"180 1788 OFFCURVE",
"172 1790 OFFCURVE",
"164 1794 CURVE",
"154 1798 OFFCURVE",
"140 1822 OFFCURVE",
"120 1858 CURVE",
"38 1740 LINE",
"42 1732 OFFCURVE",
"56 1714 OFFCURVE",
"74 1694 CURVE",
"98 1670 OFFCURVE",
"132 1648 OFFCURVE",
"186 1648 CURVE SMOOTH",
"212 1648 OFFCURVE",
"236 1652 OFFCURVE",
"252 1662 CURVE",
"250 1662 LINE",
"292 1684 OFFCURVE",
"318 1712 OFFCURVE",
"334 1740 CURVE"
);
},
{
closed = 1;
nodes = (
"30 0 LINE",
"362 0 LINE",
"362 222 LINE",
"196 222 LINE",
"196 626 LINE",
"316 626 LINE",
"316 862 LINE",
"196 862 LINE",
"196 1248 LINE",
"362 1248 LINE",
"362 1470 LINE",
"30 1470 LINE"
);
}
);
width = 428;
}
);
unicode = 0114;
},
{
color = 0;
glyphname = Ecaron;
lastChange = "2019-09-28 02:44:12 +0000";
layers = (
{
layerId = "1AB499B8-18A8-432D-A211-B6882CCB886D";
paths = (
{
closed = 1;
nodes = (
"80 1470 LINE",
"574 1470 LINE",
"574 1248 LINE",
"296 1248 LINE",
"296 862 LINE",
"496 862 LINE",
"496 626 LINE",
"296 626 LINE",
"296 222 LINE",
"574 222 LINE",
"574 0 LINE",
"80 0 LINE"
);
},
{
closed = 1;
nodes = (
"202 1650 LINE",
"64 1830 LINE",
"248 1830 LINE",
"308 1760 LINE",
"370 1830 LINE",
"554 1830 LINE",
"416 1650 LINE"
);
}
);
width = 614;
},
{
layerId = "E10EC336-1202-48FF-9A55-15876E80CDFD";
paths = (
{
closed = 1;
nodes = (
"552 1650 LINE",
"452 1830 LINE",
"636 1830 LINE",
"682 1760 LINE",
"758 1830 LINE",
"942 1830 LINE",
"766 1650 LINE"
);
},
{
closed = 1;
nodes = (
"392 1470 LINE",
"886 1470 LINE",
"838 1248 LINE",
"560 1248 LINE",
"478 862 LINE",
"678 862 LINE",
"628 626 LINE",
"428 626 LINE",
"342 222 LINE",
"620 222 LINE",
"574 0 LINE",
"80 0 LINE"
);
}
);
width = 614;
},
{
layerId = "38BA14EB-08C8-4487-88C1-8F957131FCA1";
paths = (
{
closed = 1;
nodes = (
"-66 0 LINE",
"264 0 LINE",
"312 222 LINE",
"146 222 LINE",
"230 626 LINE",
"350 626 LINE",
"402 862 LINE",
"282 862 LINE",
"364 1248 LINE",
"530 1248 LINE",
"576 1470 LINE",
"244 1470 LINE"
);
},
{
closed = 1;
nodes = (
"528 1650 LINE",
"648 1830 LINE",
"518 1830 LINE",
"468 1752 LINE",
"450 1830 LINE",
"320 1830 LINE",
"366 1650 LINE"
);
}
);
width = 428;
},
{
layerId = "6463F33F-C059-4755-9C76-9F35D70521A0";
paths = (
{
closed = 1;
nodes = (
"30 0 LINE",
"362 0 LINE",
"362 222 LINE",
"196 222 LINE",
"196 626 LINE",
"316 626 LINE",
"316 862 LINE",
"196 862 LINE",
"196 1248 LINE",
"362 1248 LINE",
"362 1470 LINE",
"30 1470 LINE"
);
},
{
closed = 1;
nodes = (
"276 1650 LINE",
"358 1830 LINE",
"228 1830 LINE",
"194 1752 LINE",
"160 1830 LINE",
"30 1830 LINE",
"114 1650 LINE"
);
}
);
width = 428;
}
);
unicode = 011A;
},
{
color = 0;
glyphname = Ecircumflex;
lastChange = "2019-09-28 02:44:12 +0000";
layers = (
{
layerId = "1AB499B8-18A8-432D-A211-B6882CCB886D";
paths = (
{
closed = 1;
nodes = (
"80 1470 LINE",
"574 1470 LINE",
"574 1248 LINE",
"296 1248 LINE",
"296 862 LINE",
"496 862 LINE",
"496 626 LINE",
"296 626 LINE",
"296 222 LINE",
"574 222 LINE",
"574 0 LINE",
"80 0 LINE"
);
},
{
closed = 1;
nodes = (
"434 1780 LINE",
"572 1600 LINE",
"388 1600 LINE",
"326 1670 LINE",
"266 1600 LINE",
"82 1600 LINE",
"220 1780 LINE"
);
}
);
width = 614;
},
{
layerId = "E10EC336-1202-48FF-9A55-15876E80CDFD";
paths = (
{
closed = 1;
nodes = (
"812 1780 LINE",
"912 1600 LINE",
"728 1600 LINE",
"680 1670 LINE",
"606 1600 LINE",
"422 1600 LINE",
"598 1780 LINE"
);
},
{
closed = 1;
nodes = (
"392 1470 LINE",
"886 1470 LINE",
"838 1248 LINE",
"560 1248 LINE",
"478 862 LINE",
"678 862 LINE",
"628 626 LINE",
"428 626 LINE",
"342 222 LINE",
"620 222 LINE",
"574 0 LINE",
"80 0 LINE"
);
}
);
width = 614;
},
{
layerId = "38BA14EB-08C8-4487-88C1-8F957131FCA1";
paths = (
{
closed = 1;
nodes = (
"-64 0 LINE",
"266 0 LINE",
"314 222 LINE",
"148 222 LINE",
"234 626 LINE",
"354 626 LINE",
"404 862 LINE",
"284 862 LINE",
"366 1248 LINE",
"532 1248 LINE",
"578 1470 LINE",
"246 1470 LINE"
);
},
{
closed = 1;
nodes = (
"402 1780 LINE",
"280 1600 LINE",
"410 1600 LINE",
"462 1678 LINE",
"478 1600 LINE",
"608 1600 LINE",
"564 1780 LINE"
);
}
);
width = 428;
},
{
layerId = "6463F33F-C059-4755-9C76-9F35D70521A0";
paths = (
{
closed = 1;
nodes = (
"30 0 LINE",
"362 0 LINE",
"362 222 LINE",
"196 222 LINE",
"196 626 LINE",
"316 626 LINE",
"316 862 LINE",
"196 862 LINE",
"196 1248 LINE",
"362 1248 LINE",
"362 1470 LINE",
"30 1470 LINE"
);
},
{
closed = 1;
nodes = (
"120 1780 LINE",
"36 1600 LINE",
"166 1600 LINE",
"200 1678 LINE",
"234 1600 LINE",
"364 1600 LINE",
"282 1780 LINE"
);
}
);
width = 428;
}
);
rightKerningGroup = E;
unicode = 00CA;
},
{
color = 0;
glyphname = Edieresis;
lastChange = "2019-09-28 02:44:12 +0000";
layers = (
{
layerId = "1AB499B8-18A8-432D-A211-B6882CCB886D";
paths = (
{
closed = 1;
nodes = (
"80 1470 LINE",
"574 1470 LINE",
"574 1248 LINE",
"296 1248 LINE",
"296 862 LINE",
"496 862 LINE",
"496 626 LINE",
"296 626 LINE",
"296 222 LINE",
"574 222 LINE",
"574 0 LINE",
"80 0 LINE"
);
},
{
closed = 1;
nodes = (
"92 1796 LINE",
"278 1796 LINE",
"278 1600 LINE",
"92 1600 LINE"
);
},
{
closed = 1;
nodes = (
"374 1796 LINE",
"560 1796 LINE",
"560 1600 LINE",
"374 1600 LINE"
);
}
);
width = 614;
},
{
layerId = "E10EC336-1202-48FF-9A55-15876E80CDFD";
paths = (
{
closed = 1;
nodes = (
"472 1796 LINE",
"658 1796 LINE",
"618 1600 LINE",
"432 1600 LINE"
);
},
{
closed = 1;
nodes = (
"754 1796 LINE",
"940 1796 LINE",
"900 1600 LINE",
"714 1600 LINE"
);
},
{
closed = 1;
nodes = (
"392 1470 LINE",
"886 1470 LINE",
"838 1248 LINE",
"560 1248 LINE",
"478 862 LINE",
"678 862 LINE",
"628 626 LINE",
"428 626 LINE",
"342 222 LINE",
"620 222 LINE",
"574 0 LINE",
"80 0 LINE"
);
}
);
width = 614;
},
{
layerId = "38BA14EB-08C8-4487-88C1-8F957131FCA1";
paths = (
{
closed = 1;
nodes = (
"-64 0 LINE",
"266 0 LINE",
"312 222 LINE",
"146 222 LINE",
"232 626 LINE",
"352 626 LINE",
"402 862 LINE",
"282 862 LINE",
"364 1248 LINE",
"530 1248 LINE",
"578 1470 LINE",
"246 1470 LINE"
);
},
{
closed = 1;
nodes = (
"274 1600 LINE",
"422 1600 LINE",
"464 1796 LINE",
"316 1796 LINE"
);
},
{
closed = 1;
nodes = (
"468 1600 LINE",
"614 1600 LINE",
"656 1796 LINE",
"510 1796 LINE"
);
}
);
width = 428;
},
{
layerId = "6463F33F-C059-4755-9C76-9F35D70521A0";
paths = (
{
closed = 1;
nodes = (
"30 0 LINE",
"362 0 LINE",
"362 222 LINE",
"196 222 LINE",
"196 626 LINE",
"316 626 LINE",
"316 862 LINE",
"196 862 LINE",
"196 1248 LINE",
"362 1248 LINE",
"362 1470 LINE",
"30 1470 LINE"
);
},
{
closed = 1;
nodes = (
"30 1600 LINE",
"178 1600 LINE",
"178 1796 LINE",
"30 1796 LINE"
);
},
{
closed = 1;
nodes = (
"224 1600 LINE",
"370 1600 LINE",
"370 1796 LINE",
"224 1796 LINE"
);
}
);
width = 428;
}
);
rightKerningGroup = E;
unicode = 00CB;
},
{
color = 0;
glyphname = Edotaccent;
lastChange = "2019-09-28 02:44:12 +0000";
layers = (
{
layerId = "1AB499B8-18A8-432D-A211-B6882CCB886D";
paths = (
{
closed = 1;
nodes = (
"80 1470 LINE",
"574 1470 LINE",
"574 1248 LINE",
"296 1248 LINE",
"296 862 LINE",
"496 862 LINE",
"496 626 LINE",
"296 626 LINE",
"296 222 LINE",
"574 222 LINE",
"574 0 LINE",
"80 0 LINE"
);
},
{
closed = 1;
nodes = (
"208 1846 LINE",
"410 1846 LINE",
"410 1644 LINE",
"208 1644 LINE"
);
}
);
width = 614;
},
{
layerId = "E10EC336-1202-48FF-9A55-15876E80CDFD";
paths = (
{
closed = 1;
nodes = (
"600 1846 LINE",
"802 1846 LINE",
"758 1644 LINE",
"556 1644 LINE"
);
},
{
closed = 1;
nodes = (
"392 1470 LINE",
"886 1470 LINE",
"838 1248 LINE",
"560 1248 LINE",
"478 862 LINE",
"678 862 LINE",
"628 626 LINE",
"428 626 LINE",
"342 222 LINE",
"620 222 LINE",
"574 0 LINE",
"80 0 LINE"
);
}
);
width = 614;
},
{
layerId = "38BA14EB-08C8-4487-88C1-8F957131FCA1";
paths = (
{
closed = 1;
nodes = (
"356 1644 LINE",
"514 1644 LINE",
"558 1846 LINE",
"400 1846 LINE"
);
},
{
closed = 1;
nodes = (
"-66 0 LINE",
"264 0 LINE",
"310 222 LINE",
"144 222 LINE",
"230 626 LINE",
"350 626 LINE",
"400 862 LINE",
"280 862 LINE",
"362 1248 LINE",
"528 1248 LINE",
"576 1470 LINE",
"244 1470 LINE"
);
}
);
width = 428;
},
{
layerId = "6463F33F-C059-4755-9C76-9F35D70521A0";
paths = (
{
closed = 1;
nodes = (
"106 1644 LINE",
"264 1644 LINE",
"264 1846 LINE",
"106 1846 LINE"
);
},
{
closed = 1;
nodes = (
"30 0 LINE",
"362 0 LINE",
"362 222 LINE",
"196 222 LINE",
"196 626 LINE",
"316 626 LINE",
"316 862 LINE",
"196 862 LINE",
"196 1248 LINE",
"362 1248 LINE",
"362 1470 LINE",
"30 1470 LINE"
);
}
);
width = 428;
}
);
unicode = 0116;
},
{
color = 0;
glyphname = Egrave;
lastChange = "2019-09-28 02:44:12 +0000";
layers = (
{
layerId = "1AB499B8-18A8-432D-A211-B6882CCB886D";
paths = (
{
closed = 1;
nodes = (
"80 1470 LINE",
"574 1470 LINE",
"574 1248 LINE",
"296 1248 LINE",
"296 862 LINE",
"496 862 LINE",
"496 626 LINE",
"296 626 LINE",
"296 222 LINE",
"574 222 LINE",
"574 0 LINE",
"80 0 LINE"
);
},
{
closed = 1;
nodes = (
"318 1780 LINE",
"422 1600 LINE",
"266 1600 LINE",
"108 1780 LINE"
);
}
);
width = 614;
},
{
layerId = "E10EC336-1202-48FF-9A55-15876E80CDFD";
paths = (
{
closed = 1;
nodes = (
"696 1780 LINE",
"762 1600 LINE",
"606 1600 LINE",
"486 1780 LINE"
);
},
{
closed = 1;
nodes = (
"392 1470 LINE",
"886 1470 LINE",
"838 1248 LINE",
"560 1248 LINE",
"478 862 LINE",
"678 862 LINE",
"628 626 LINE",
"428 626 LINE",
"342 222 LINE",
"620 222 LINE",
"574 0 LINE",
"80 0 LINE"
);
}
);
width = 614;
},
{
layerId = "38BA14EB-08C8-4487-88C1-8F957131FCA1";
paths = (
{
closed = 1;
nodes = (
"330 1780 LINE",
"388 1600 LINE",
"516 1600 LINE",
"490 1780 LINE"
);
},
{
closed = 1;
nodes = (
"-64 0 LINE",
"266 0 LINE",
"314 222 LINE",
"148 222 LINE",
"234 626 LINE",
"354 626 LINE",
"404 862 LINE",
"284 862 LINE",
"366 1248 LINE",
"532 1248 LINE",
"578 1470 LINE",
"246 1470 LINE"
);
}
);
width = 428;
},
{
layerId = "6463F33F-C059-4755-9C76-9F35D70521A0";
paths = (
{
closed = 1;
nodes = (
"48 1780 LINE",
"144 1600 LINE",
"272 1600 LINE",
"208 1780 LINE"
);
},
{
closed = 1;
nodes = (
"30 0 LINE",
"362 0 LINE",
"362 222 LINE",
"196 222 LINE",
"196 626 LINE",
"316 626 LINE",
"316 862 LINE",
"196 862 LINE",
"196 1248 LINE",
"362 1248 LINE",
"362 1470 LINE",
"30 1470 LINE"
);
}
);
width = 428;
}
);
rightKerningGroup = E;
unicode = 00C8;
},
{
color = 0;
glyphname = Emacron;
lastChange = "2019-09-28 02:44:12 +0000";
layers = (
{
layerId = "1AB499B8-18A8-432D-A211-B6882CCB886D";
paths = (
{
closed = 1;
nodes = (
"80 1470 LINE",
"574 1470 LINE",
"574 1248 LINE",
"296 1248 LINE",
"296 862 LINE",
"496 862 LINE",
"496 626 LINE",
"296 626 LINE",
"296 222 LINE",
"574 222 LINE",
"574 0 LINE",
"80 0 LINE"
);
},
{
closed = 1;
nodes = (
"116 1818 LINE",
"504 1818 LINE",
"504 1660 LINE",
"116 1660 LINE"
);
}
);
width = 614;
},
{
layerId = "E10EC336-1202-48FF-9A55-15876E80CDFD";
paths = (
{
closed = 1;
nodes = (
"502 1818 LINE",
"890 1818 LINE",
"856 1660 LINE",
"468 1660 LINE"
);
},
{
closed = 1;
nodes = (
"392 1470 LINE",
"886 1470 LINE",
"838 1248 LINE",
"560 1248 LINE",
"478 862 LINE",
"678 862 LINE",
"628 626 LINE",
"428 626 LINE",
"342 222 LINE",
"620 222 LINE",
"574 0 LINE",
"80 0 LINE"
);
}
);
width = 614;
},
{
layerId = "38BA14EB-08C8-4487-88C1-8F957131FCA1";
paths = (
{
closed = 1;
nodes = (
"308 1660 LINE",
"576 1660 LINE",
"608 1818 LINE",
"340 1818 LINE"
);
},
{
closed = 1;
nodes = (
"-66 0 LINE",
"264 0 LINE",
"312 222 LINE",
"146 222 LINE",
"232 626 LINE",
"352 626 LINE",
"402 862 LINE",
"282 862 LINE",
"364 1248 LINE",
"530 1248 LINE",
"576 1470 LINE",
"244 1470 LINE"
);
}
);
width = 428;
},
{
layerId = "6463F33F-C059-4755-9C76-9F35D70521A0";
paths = (
{
closed = 1;
nodes = (
"52 1660 LINE",
"320 1660 LINE",
"320 1818 LINE",
"52 1818 LINE"
);
},
{
closed = 1;
nodes = (
"30 0 LINE",
"362 0 LINE",
"362 222 LINE",
"196 222 LINE",
"196 626 LINE",
"316 626 LINE",
"316 862 LINE",
"196 862 LINE",
"196 1248 LINE",
"362 1248 LINE",
"362 1470 LINE",
"30 1470 LINE"
);
}
);
width = 428;
}
);
unicode = 0112;
},
{
color = 0;
glyphname = Eogonek;
lastChange = "2019-09-28 02:44:12 +0000";
layers = (
{
layerId = "1AB499B8-18A8-432D-A211-B6882CCB886D";
paths = (
{
closed = 1;
nodes = (
"80 1470 LINE",
"574 1470 LINE",
"574 1248 LINE",
"296 1248 LINE",
"296 862 LINE",
"496 862 LINE",
"496 626 LINE",
"296 626 LINE",
"296 222 LINE",
"574 222 LINE",
"574 0 LINE",
"80 0 LINE"
);
},
{
closed = 1;
nodes = (
"254 -150 OFFCURVE",
"286 -100 OFFCURVE",
"320 -62 CURVE",
"338 -40 OFFCURVE",
"360 -18 OFFCURVE",
"386 0 CURVE",
"482 0 LINE",
"448 -30 OFFCURVE",
"424 -60 OFFCURVE",
"406 -100 CURVE",
"396 -120 OFFCURVE",
"392 -142 OFFCURVE",
"392 -166 CURVE SMOOTH",
"392 -224 OFFCURVE",
"446 -242 OFFCURVE",
"492 -242 CURVE SMOOTH",
"526 -242 OFFCURVE",
"552 -234 OFFCURVE",
"576 -224 CURVE",
"560 -358 LINE",
"518 -372 OFFCURVE",
"492 -376 OFFCURVE",
"458 -376 CURVE SMOOTH",
"328 -376 OFFCURVE",
"254 -296 OFFCURVE",
"254 -206 CURVE SMOOTH"
);
}
);
width = 614;
},
{
layerId = "E10EC336-1202-48FF-9A55-15876E80CDFD";
paths = (
{
closed = 1;
nodes = (
"482 0 LINE",
"440 -30 OFFCURVE",
"408 -62 OFFCURVE",
"384 -100 CURVE SMOOTH",
"370 -122 OFFCURVE",
"360 -144 OFFCURVE",
"356 -166 CURVE SMOOTH",
"350 -196 OFFCURVE",
"360 -212 OFFCURVE",
"376 -224 CURVE SMOOTH",
"392 -236 OFFCURVE",
"416 -242 OFFCURVE",
"440 -242 CURVE SMOOTH",
"474 -242 OFFCURVE",
"502 -234 OFFCURVE",
"528 -224 CURVE",
"482 -358 LINE",
"436 -372 OFFCURVE",
"412 -376 OFFCURVE",
"378 -376 CURVE SMOOTH",
"248 -376 OFFCURVE",
"188 -296 OFFCURVE",
"210 -206 CURVE SMOOTH",
"224 -150 OFFCURVE",
"264 -100 OFFCURVE",
"306 -62 CURVE",
"328 -40 OFFCURVE",
"356 -18 OFFCURVE",
"386 0 CURVE",
"80 0 LINE",
"392 1470 LINE",
"886 1470 LINE",
"838 1248 LINE",
"560 1248 LINE",
"478 862 LINE",
"678 862 LINE",
"628 626 LINE",
"428 626 LINE",
"342 222 LINE",
"620 222 LINE",
"574 0 LINE"
);
}
);
width = 614;
},
{
layerId = "38BA14EB-08C8-4487-88C1-8F957131FCA1";
paths = (
{
closed = 1;
nodes = (
"302 0 LINE",
"350 222 LINE",
"184 222 LINE",
"270 626 LINE",
"390 626 LINE",
"440 862 LINE",
"320 862 LINE",
"402 1248 LINE",
"568 1248 LINE",
"616 1470 LINE",
"284 1470 LINE",
"-28 0 LINE",
"160 0 LINE",
"138 -22 OFFCURVE",
"120 -44 OFFCURVE",
"110 -56 CURVE",
"108 -58 OFFCURVE",
"106 -60 OFFCURVE",
"104 -62 CURVE",
"76 -100 OFFCURVE",
"40 -160 OFFCURVE",
"32 -206 CURVE",
"12 -296 OFFCURVE",
"46 -376 OFFCURVE",
"136 -376 CURVE SMOOTH",
"164 -376 OFFCURVE",
"184 -370 OFFCURVE",
"220 -352 CURVE",
"262 -202 LINE",
"228 -224 OFFCURVE",
"196 -242 OFFCURVE",
"186 -242 CURVE SMOOTH",
"166 -242 OFFCURVE",
"148 -224 OFFCURVE",
"160 -166 CURVE",
"164 -142 OFFCURVE",
"172 -120 OFFCURVE",
"182 -100 CURVE SMOOTH",
"204 -56 OFFCURVE",
"224 -22 OFFCURVE",
"244 0 CURVE"
);
}
);
width = 428;
},
{
layerId = "6463F33F-C059-4755-9C76-9F35D70521A0";
paths = (
{
closed = 1;
nodes = (
"362 0 LINE",
"362 222 LINE",
"196 222 LINE",
"196 626 LINE",
"316 626 LINE",
"316 862 LINE",
"196 862 LINE",
"196 1248 LINE",
"362 1248 LINE",
"362 1470 LINE",
"30 1470 LINE",
"30 0 LINE",
"220 0 LINE",
"202 -22 OFFCURVE",
"188 -44 OFFCURVE",
"180 -56 CURVE",
"180 -58 OFFCURVE",
"178 -60 OFFCURVE",
"176 -62 CURVE",
"156 -100 OFFCURVE",
"134 -160 OFFCURVE",
"134 -206 CURVE SMOOTH",
"134 -296 OFFCURVE",
"184 -376 OFFCURVE",
"274 -376 CURVE SMOOTH",
"302 -376 OFFCURVE",
"322 -370 OFFCURVE",
"354 -352 CURVE",
"364 -202 LINE",
"334 -224 OFFCURVE",
"306 -242 OFFCURVE",
"296 -242 CURVE SMOOTH",
"276 -242 OFFCURVE",
"254 -224 OFFCURVE",
"254 -166 CURVE SMOOTH",
"254 -142 OFFCURVE",
"256 -120 OFFCURVE",
"262 -100 CURVE SMOOTH",
"274 -56 OFFCURVE",
"288 -22 OFFCURVE",
"304 0 CURVE"
);
}
);
width = 428;
}
);
unicode = 0118;
},
{
color = 0;
glyphname = F;
lastChange = "2019-09-28 02:44:12 +0000";
layers = (
{
layerId = "1AB499B8-18A8-432D-A211-B6882CCB886D";
paths = (
{
closed = 1;
nodes = (
"594 1248 LINE",
"296 1248 LINE",
"296 862 LINE",
"496 862 LINE",
"496 640 LINE",
"296 640 LINE",
"296 0 LINE",
"80 0 LINE",
"80 1470 LINE",
"594 1470 LINE"
);
}
);
width = 602;
},
{
layerId = "E10EC336-1202-48FF-9A55-15876E80CDFD";
paths = (
{
closed = 1;
nodes = (
"858 1248 LINE",
"560 1248 LINE",
"478 862 LINE",
"678 862 LINE",
"632 640 LINE",
"432 640 LINE",
"296 0 LINE",
"80 0 LINE",
"392 1470 LINE",
"906 1470 LINE"
);
}
);
width = 602;
},
{
layerId = "38BA14EB-08C8-4487-88C1-8F957131FCA1";
paths = (
{
closed = 1;
nodes = (
"608 1470 LINE",
"264 1470 LINE",
"-48 0 LINE",
"116 0 LINE",
"254 640 LINE",
"374 640 LINE",
"420 862 LINE",
"300 862 LINE",
"382 1248 LINE",
"560 1248 LINE"
);
}
);
width = 422;
},
{
layerId = "6463F33F-C059-4755-9C76-9F35D70521A0";
paths = (
{
closed = 1;
nodes = (
"374 1470 LINE",
"30 1470 LINE",
"30 0 LINE",
"196 0 LINE",
"196 640 LINE",
"316 640 LINE",
"316 862 LINE",
"196 862 LINE",
"196 1248 LINE",
"374 1248 LINE"
);
}
);
width = 422;
}
);
unicode = 0046;
},
{
color = 0;
glyphname = G;
lastChange = "2019-09-28 02:44:12 +0000";
layers = (
{
anchors = (
{
name = bottom;
position = "{360, 0}";
},
{
name = top;
position = "{360, 1470}";
}
);
layerId = "1AB499B8-18A8-432D-A211-B6882CCB886D";
paths = (
{
closed = 1;
nodes = (
"426 942 LINE",
"426 1168 LINE SMOOTH",
"426 1208 OFFCURVE",
"418 1236 OFFCURVE",
"398 1260 CURVE",
"388 1270 OFFCURVE",
"372 1276 OFFCURVE",
"354 1276 CURVE SMOOTH",
"316 1276 OFFCURVE",
"298 1248 OFFCURVE",
"290 1222 CURVE",
"284 1206 OFFCURVE",
"282 1188 OFFCURVE",
"282 1168 CURVE SMOOTH",
"282 284 LINE SMOOTH",
"282 242 OFFCURVE",
"292 214 OFFCURVE",
"312 192 CURVE",
"322 182 OFFCURVE",
"336 176 OFFCURVE",
"354 176 CURVE SMOOTH",
"392 176 OFFCURVE",
"410 200 OFFCURVE",
"418 230 CURVE",
"424 244 OFFCURVE",
"426 262 OFFCURVE",
"426 284 CURVE SMOOTH",
"426 550 LINE",
"340 550 LINE",
"340 732 LINE",
"642 732 LINE",
"642 0 LINE",
"514 0 LINE",
"488 70 LINE",
"448 20 OFFCURVE",
"390 -16 OFFCURVE",
"320 -16 CURVE SMOOTH",
"250 -16 OFFCURVE",
"202 2 OFFCURVE",
"166 34 CURVE SMOOTH",
"130 64 OFFCURVE",
"106 102 OFFCURVE",
"90 142 CURVE SMOOTH",
"72 188 OFFCURVE",
"64 242 OFFCURVE",
"66 302 CURVE SMOOTH",
"66 1168 LINE SMOOTH",
"68 1226 OFFCURVE",
"80 1280 OFFCURVE",
"102 1326 CURVE SMOOTH",
"120 1366 OFFCURVE",
"146 1406 OFFCURVE",
"186 1436 CURVE SMOOTH",
"226 1466 OFFCURVE",
"282 1486 OFFCURVE",
"354 1486 CURVE SMOOTH",
"426 1486 OFFCURVE",
"480 1466 OFFCURVE",
"520 1436 CURVE SMOOTH",
"560 1406 OFFCURVE",
"588 1366 OFFCURVE",
"606 1326 CURVE SMOOTH",
"628 1280 OFFCURVE",
"640 1226 OFFCURVE",
"642 1168 CURVE SMOOTH",
"642 942 LINE"
);
}
);
width = 720;
},
{
anchors = (
{
name = bottom;
position = "{360, 0}";
},
{
name = top;
position = "{360, 1470}";
}
);
layerId = "E10EC336-1202-48FF-9A55-15876E80CDFD";
paths = (
{
closed = 1;
nodes = (
"626 942 LINE",
"674 1168 LINE SMOOTH",
"682 1208 OFFCURVE",
"678 1238 OFFCURVE",
"664 1260 CURVE",
"656 1270 OFFCURVE",
"642 1276 OFFCURVE",
"624 1276 CURVE SMOOTH",
"586 1276 OFFCURVE",
"562 1248 OFFCURVE",
"548 1222 CURVE SMOOTH",
"540 1206 OFFCURVE",
"534 1188 OFFCURVE",
"530 1168 CURVE SMOOTH",
"342 284 LINE",
"332 246 OFFCURVE",
"336 214 OFFCURVE",
"352 192 CURVE",
"360 182 OFFCURVE",
"372 176 OFFCURVE",
"390 176 CURVE SMOOTH",
"428 176 OFFCURVE",
"452 200 OFFCURVE",
"466 230 CURVE SMOOTH",
"472 242 OFFCURVE",
"480 260 OFFCURVE",
"486 284 CURVE",
"542 550 LINE",
"456 550 LINE",
"494 732 LINE",
"796 732 LINE",
"642 0 LINE",
"514 0 LINE",
"502 70 LINE",
"452 20 OFFCURVE",
"386 -16 OFFCURVE",
"316 -16 CURVE SMOOTH",
"246 -16 OFFCURVE",
"202 2 OFFCURVE",
"172 34 CURVE SMOOTH",
"142 64 OFFCURVE",
"126 102 OFFCURVE",
"120 142 CURVE",
"110 188 OFFCURVE",
"114 240 OFFCURVE",
"130 302 CURVE",
"314 1168 LINE SMOOTH",
"328 1226 OFFCURVE",
"350 1278 OFFCURVE",
"382 1326 CURVE",
"412 1366 OFFCURVE",
"444 1406 OFFCURVE",
"490 1436 CURVE SMOOTH",
"536 1466 OFFCURVE",
"596 1486 OFFCURVE",
"668 1486 CURVE SMOOTH",
"740 1486 OFFCURVE",
"790 1466 OFFCURVE",
"824 1436 CURVE SMOOTH",
"858 1406 OFFCURVE",
"878 1366 OFFCURVE",
"886 1326 CURVE",
"900 1282 OFFCURVE",
"900 1230 OFFCURVE",
"890 1168 CURVE",
"842 942 LINE"
);
}
);
width = 720;
},
{
anchors = (
{
name = bottom;
position = "{246, 0}";
},
{
name = top;
position = "{246, 1470}";
}
);
layerId = "38BA14EB-08C8-4487-88C1-8F957131FCA1";
paths = (
{
closed = 1;
nodes = (
"536 942 LINE",
"588 1188 LINE SMOOTH",
"612 1306 OFFCURVE",
"612 1486 OFFCURVE",
"452 1486 CURVE SMOOTH",
"302 1486 OFFCURVE",
"220 1320 OFFCURVE",
"192 1188 CURVE SMOOTH",
"0 282 LINE SMOOTH",
"-22 178 OFFCURVE",
"-28 -16 OFFCURVE",
"118 -16 CURVE SMOOTH",
"154 -16 OFFCURVE",
"216 18 OFFCURVE",
"242 54 CURVE",
"248 0 LINE",
"334 0 LINE",
"490 732 LINE",
"300 732 LINE",
"262 550 LINE",
"298 550 LINE",
"238 264 LINE SMOOTH",
"230 228 OFFCURVE",
"214 176 OFFCURVE",
"178 176 CURVE SMOOTH",
"154 176 OFFCURVE",
"154 218 OFFCURVE",
"164 264 CURVE SMOOTH",
"360 1188 LINE SMOOTH",
"368 1224 OFFCURVE",
"386 1276 OFFCURVE",
"408 1276 CURVE SMOOTH",
"436 1276 OFFCURVE",
"428 1218 OFFCURVE",
"422 1188 CURVE SMOOTH",
"370 942 LINE"
);
}
);
width = 492;
},
{
anchors = (
{
name = bottom;
position = "{246, 0}";
},
{
name = top;
position = "{246, 1470}";
}
);
layerId = "6463F33F-C059-4755-9C76-9F35D70521A0";
paths = (
{
closed = 1;
nodes = (
"414 942 LINE",
"414 1188 LINE SMOOTH",
"414 1306 OFFCURVE",
"376 1486 OFFCURVE",
"216 1486 CURVE SMOOTH",
"66 1486 OFFCURVE",
"18 1320 OFFCURVE",
"18 1188 CURVE SMOOTH",
"18 282 LINE SMOOTH",
"18 178 OFFCURVE",
"52 -16 OFFCURVE",
"200 -16 CURVE SMOOTH",
"236 -16 OFFCURVE",
"292 18 OFFCURVE",
"310 54 CURVE",
"328 0 LINE",
"414 0 LINE",
"414 732 LINE",
"224 732 LINE",
"224 550 LINE",
"260 550 LINE",
"260 264 LINE SMOOTH",
"260 228 OFFCURVE",
"256 176 OFFCURVE",
"220 176 CURVE SMOOTH",
"196 176 OFFCURVE",
"186 218 OFFCURVE",
"186 264 CURVE SMOOTH",
"186 1188 LINE SMOOTH",
"186 1224 OFFCURVE",
"194 1276 OFFCURVE",
"216 1276 CURVE SMOOTH",
"244 1276 OFFCURVE",
"248 1218 OFFCURVE",
"248 1188 CURVE SMOOTH",
"248 942 LINE"
);
}
);
width = 492;
}
);
unicode = 0047;
},
{
color = 0;
glyphname = Gbreve;
lastChange = "2019-09-28 02:44:12 +0000";
layers = (
{
layerId = "1AB499B8-18A8-432D-A211-B6882CCB886D";
paths = (
{
closed = 1;
nodes = (
"426 942 LINE",
"426 1168 LINE SMOOTH",
"426 1208 OFFCURVE",
"418 1236 OFFCURVE",
"398 1260 CURVE",
"388 1270 OFFCURVE",
"372 1276 OFFCURVE",
"354 1276 CURVE SMOOTH",
"316 1276 OFFCURVE",
"298 1248 OFFCURVE",
"290 1222 CURVE",
"284 1206 OFFCURVE",
"282 1188 OFFCURVE",
"282 1168 CURVE SMOOTH",
"282 284 LINE SMOOTH",
"282 242 OFFCURVE",
"292 214 OFFCURVE",
"312 192 CURVE",
"322 182 OFFCURVE",
"336 176 OFFCURVE",
"354 176 CURVE SMOOTH",
"392 176 OFFCURVE",
"410 200 OFFCURVE",
"418 230 CURVE",
"424 244 OFFCURVE",
"426 262 OFFCURVE",
"426 284 CURVE SMOOTH",
"426 550 LINE",
"340 550 LINE",
"340 732 LINE",
"642 732 LINE",
"642 0 LINE",
"514 0 LINE",
"488 70 LINE",
"448 20 OFFCURVE",
"390 -16 OFFCURVE",
"320 -16 CURVE SMOOTH",
"250 -16 OFFCURVE",
"202 2 OFFCURVE",
"166 34 CURVE SMOOTH",
"130 64 OFFCURVE",
"106 102 OFFCURVE",
"90 142 CURVE SMOOTH",
"72 188 OFFCURVE",
"64 242 OFFCURVE",
"66 302 CURVE SMOOTH",
"66 1168 LINE SMOOTH",
"68 1226 OFFCURVE",
"80 1280 OFFCURVE",
"102 1326 CURVE SMOOTH",
"120 1366 OFFCURVE",
"146 1406 OFFCURVE",
"186 1436 CURVE SMOOTH",
"226 1466 OFFCURVE",
"282 1486 OFFCURVE",
"354 1486 CURVE SMOOTH",
"426 1486 OFFCURVE",
"480 1466 OFFCURVE",
"520 1436 CURVE SMOOTH",
"560 1406 OFFCURVE",
"588 1366 OFFCURVE",
"606 1326 CURVE SMOOTH",
"628 1280 OFFCURVE",
"640 1226 OFFCURVE",
"642 1168 CURVE SMOOTH",
"642 942 LINE"
);
},
{
closed = 1;
nodes = (
"582 1742 LINE",
"548 1708 OFFCURVE",
"508 1680 OFFCURVE",
"454 1662 CURVE",
"428 1652 OFFCURVE",
"396 1648 OFFCURVE",
"362 1648 CURVE SMOOTH",
"292 1648 OFFCURVE",
"238 1670 OFFCURVE",
"200 1694 CURVE SMOOTH",
"178 1708 OFFCURVE",
"158 1724 OFFCURVE",
"142 1742 CURVE",
"250 1834 LINE",
"264 1816 OFFCURVE",
"286 1802 OFFCURVE",
"314 1794 CURVE SMOOTH",
"328 1790 OFFCURVE",
"344 1788 OFFCURVE",
"362 1788 CURVE SMOOTH",
"400 1788 OFFCURVE",
"426 1796 OFFCURVE",
"448 1810 CURVE",
"460 1816 OFFCURVE",
"470 1824 OFFCURVE",
"478 1834 CURVE"
);
}
);
width = 720;
},
{
layerId = "E10EC336-1202-48FF-9A55-15876E80CDFD";
paths = (
{
closed = 1;
nodes = (
"952 1742 LINE",
"910 1708 OFFCURVE",
"864 1680 OFFCURVE",
"806 1662 CURVE",
"780 1652 OFFCURVE",
"748 1648 OFFCURVE",
"712 1648 CURVE SMOOTH",
"642 1648 OFFCURVE",
"592 1670 OFFCURVE",
"560 1694 CURVE SMOOTH",
"540 1708 OFFCURVE",
"524 1724 OFFCURVE",
"512 1742 CURVE",
"638 1834 LINE",
"664 1796 OFFCURVE",
"704 1788 OFFCURVE",
"742 1788 CURVE SMOOTH",
"780 1788 OFFCURVE",
"806 1796 OFFCURVE",
"832 1810 CURVE SMOOTH",
"844 1816 OFFCURVE",
"856 1824 OFFCURVE",
"866 1834 CURVE"
);
},
{
closed = 1;
nodes = (
"626 942 LINE",
"674 1168 LINE SMOOTH",
"682 1208 OFFCURVE",
"678 1238 OFFCURVE",
"664 1260 CURVE",
"656 1270 OFFCURVE",
"642 1276 OFFCURVE",
"624 1276 CURVE SMOOTH",
"586 1276 OFFCURVE",
"562 1248 OFFCURVE",
"548 1222 CURVE SMOOTH",
"540 1206 OFFCURVE",
"534 1188 OFFCURVE",
"530 1168 CURVE SMOOTH",
"342 284 LINE",
"332 246 OFFCURVE",
"336 214 OFFCURVE",
"352 192 CURVE",
"360 182 OFFCURVE",
"372 176 OFFCURVE",
"390 176 CURVE SMOOTH",
"428 176 OFFCURVE",
"452 200 OFFCURVE",
"466 230 CURVE SMOOTH",
"472 242 OFFCURVE",
"480 260 OFFCURVE",
"486 284 CURVE",
"542 550 LINE",
"456 550 LINE",
"494 732 LINE",
"796 732 LINE",
"642 0 LINE",
"514 0 LINE",
"502 70 LINE",
"452 20 OFFCURVE",
"386 -16 OFFCURVE",
"316 -16 CURVE SMOOTH",
"246 -16 OFFCURVE",
"202 2 OFFCURVE",
"172 34 CURVE SMOOTH",
"142 64 OFFCURVE",
"126 102 OFFCURVE",
"120 142 CURVE",
"110 188 OFFCURVE",
"114 240 OFFCURVE",
"130 302 CURVE",
"314 1168 LINE SMOOTH",
"328 1226 OFFCURVE",
"350 1278 OFFCURVE",
"382 1326 CURVE",
"412 1366 OFFCURVE",
"444 1406 OFFCURVE",
"490 1436 CURVE SMOOTH",
"536 1466 OFFCURVE",
"596 1486 OFFCURVE",
"668 1486 CURVE SMOOTH",
"740 1486 OFFCURVE",
"790 1466 OFFCURVE",
"824 1436 CURVE SMOOTH",
"858 1406 OFFCURVE",
"878 1366 OFFCURVE",
"886 1326 CURVE",
"900 1282 OFFCURVE",
"900 1230 OFFCURVE",
"890 1168 CURVE",
"842 942 LINE"
);
}
);
width = 720;
},
{
layerId = "38BA14EB-08C8-4487-88C1-8F957131FCA1";
paths = (
{
closed = 1;
nodes = (
"516 942 LINE",
"568 1188 LINE SMOOTH",
"592 1306 OFFCURVE",
"594 1486 OFFCURVE",
"434 1486 CURVE SMOOTH",
"284 1486 OFFCURVE",
"200 1320 OFFCURVE",
"172 1188 CURVE SMOOTH",
"-18 282 LINE SMOOTH",
"-40 178 OFFCURVE",
"-48 -16 OFFCURVE",
"98 -16 CURVE SMOOTH",
"134 -16 OFFCURVE",
"198 18 OFFCURVE",
"222 54 CURVE",
"230 0 LINE",
"316 0 LINE",
"470 732 LINE",
"280 732 LINE",
"242 550 LINE",
"278 550 LINE",
"218 264 LINE SMOOTH",
"210 228 OFFCURVE",
"194 176 OFFCURVE",
"158 176 CURVE SMOOTH",
"134 176 OFFCURVE",
"134 218 OFFCURVE",
"144 264 CURVE SMOOTH",
"340 1188 LINE SMOOTH",
"348 1224 OFFCURVE",
"366 1276 OFFCURVE",
"388 1276 CURVE SMOOTH",
"416 1276 OFFCURVE",
"408 1218 OFFCURVE",
"402 1188 CURVE SMOOTH",
"350 942 LINE"
);
},
{
closed = 1;
nodes = (
"584 1854 LINE",
"584 1854 OFFCURVE",
"532 1792 OFFCURVE",
"500 1792 CURVE SMOOTH",
"464 1792 OFFCURVE",
"448 1856 OFFCURVE",
"448 1856 CURVE",
"342 1742 LINE",
"356 1690 OFFCURVE",
"408 1646 OFFCURVE",
"470 1646 CURVE SMOOTH",
"532 1646 OFFCURVE",
"590 1686 OFFCURVE",
"638 1742 CURVE"
);
}
);
width = 492;
},
{
layerId = "6463F33F-C059-4755-9C76-9F35D70521A0";
paths = (
{
closed = 1;
nodes = (
"414 942 LINE",
"414 1188 LINE SMOOTH",
"414 1306 OFFCURVE",
"376 1486 OFFCURVE",
"216 1486 CURVE SMOOTH",
"66 1486 OFFCURVE",
"18 1320 OFFCURVE",
"18 1188 CURVE SMOOTH",
"18 282 LINE SMOOTH",
"18 178 OFFCURVE",
"52 -16 OFFCURVE",
"200 -16 CURVE SMOOTH",
"236 -16 OFFCURVE",
"292 18 OFFCURVE",
"310 54 CURVE",
"328 0 LINE",
"414 0 LINE",
"414 732 LINE",
"224 732 LINE",
"224 550 LINE",
"260 550 LINE",
"260 264 LINE SMOOTH",
"260 228 OFFCURVE",
"256 176 OFFCURVE",
"220 176 CURVE SMOOTH",
"196 176 OFFCURVE",
"186 218 OFFCURVE",
"186 264 CURVE SMOOTH",
"186 1188 LINE SMOOTH",
"186 1224 OFFCURVE",
"194 1276 OFFCURVE",
"216 1276 CURVE SMOOTH",
"244 1276 OFFCURVE",
"248 1218 OFFCURVE",
"248 1188 CURVE SMOOTH",
"248 942 LINE"
);
},
{
closed = 1;
nodes = (
"288 1854 LINE",
"288 1854 OFFCURVE",
"250 1792 OFFCURVE",
"218 1792 CURVE SMOOTH",
"182 1792 OFFCURVE",
"152 1856 OFFCURVE",
"152 1856 CURVE",
"70 1742 LINE",
"96 1690 OFFCURVE",
"156 1646 OFFCURVE",
"218 1646 CURVE SMOOTH",
"280 1646 OFFCURVE",
"330 1686 OFFCURVE",
"366 1742 CURVE"
);
}
);
width = 492;
}
);
unicode = 011E;
},
{
color = 0;
glyphname = Gcircumflex;
lastChange = "2019-09-28 02:44:12 +0000";
layers = (
{
layerId = "1AB499B8-18A8-432D-A211-B6882CCB886D";
paths = (
{
closed = 1;
nodes = (
"426 942 LINE",
"426 1168 LINE SMOOTH",
"426 1208 OFFCURVE",
"418 1236 OFFCURVE",
"398 1260 CURVE",
"388 1270 OFFCURVE",
"372 1276 OFFCURVE",
"354 1276 CURVE SMOOTH",
"316 1276 OFFCURVE",
"298 1248 OFFCURVE",
"290 1222 CURVE",
"284 1206 OFFCURVE",
"282 1188 OFFCURVE",
"282 1168 CURVE SMOOTH",
"282 284 LINE SMOOTH",
"282 242 OFFCURVE",
"292 214 OFFCURVE",
"312 192 CURVE",
"322 182 OFFCURVE",
"336 176 OFFCURVE",
"354 176 CURVE SMOOTH",
"392 176 OFFCURVE",
"410 200 OFFCURVE",
"418 230 CURVE",
"424 244 OFFCURVE",
"426 262 OFFCURVE",
"426 284 CURVE SMOOTH",
"426 550 LINE",
"340 550 LINE",
"340 732 LINE",
"642 732 LINE",
"642 0 LINE",
"514 0 LINE",
"488 70 LINE",
"448 20 OFFCURVE",
"390 -16 OFFCURVE",
"320 -16 CURVE SMOOTH",
"250 -16 OFFCURVE",
"202 2 OFFCURVE",
"166 34 CURVE SMOOTH",
"130 64 OFFCURVE",
"106 102 OFFCURVE",
"90 142 CURVE SMOOTH",
"72 188 OFFCURVE",
"64 242 OFFCURVE",
"66 302 CURVE SMOOTH",
"66 1168 LINE SMOOTH",
"68 1226 OFFCURVE",
"80 1280 OFFCURVE",
"102 1326 CURVE SMOOTH",
"120 1366 OFFCURVE",
"146 1406 OFFCURVE",
"186 1436 CURVE SMOOTH",
"226 1466 OFFCURVE",
"282 1486 OFFCURVE",
"354 1486 CURVE SMOOTH",
"426 1486 OFFCURVE",
"480 1466 OFFCURVE",
"520 1436 CURVE SMOOTH",
"560 1406 OFFCURVE",
"588 1366 OFFCURVE",
"606 1326 CURVE SMOOTH",
"628 1280 OFFCURVE",
"640 1226 OFFCURVE",
"642 1168 CURVE SMOOTH",
"642 942 LINE"
);
},
{
closed = 1;
nodes = (
"470 1830 LINE",
"608 1650 LINE",
"424 1650 LINE",
"362 1720 LINE",
"302 1650 LINE",
"118 1650 LINE",
"256 1830 LINE"
);
}
);
width = 720;
},
{
layerId = "E10EC336-1202-48FF-9A55-15876E80CDFD";
paths = (
{
closed = 1;
nodes = (
"858 1830 LINE",
"958 1650 LINE",
"774 1650 LINE",
"726 1720 LINE",
"652 1650 LINE",
"468 1650 LINE",
"644 1830 LINE"
);
},
{
closed = 1;
nodes = (
"626 942 LINE",
"674 1168 LINE SMOOTH",
"682 1208 OFFCURVE",
"678 1238 OFFCURVE",
"664 1260 CURVE",
"656 1270 OFFCURVE",
"642 1276 OFFCURVE",
"624 1276 CURVE SMOOTH",
"586 1276 OFFCURVE",
"562 1248 OFFCURVE",
"548 1222 CURVE SMOOTH",
"540 1206 OFFCURVE",
"534 1188 OFFCURVE",
"530 1168 CURVE SMOOTH",
"342 284 LINE",
"332 246 OFFCURVE",
"336 214 OFFCURVE",
"352 192 CURVE",
"360 182 OFFCURVE",
"372 176 OFFCURVE",
"390 176 CURVE SMOOTH",
"428 176 OFFCURVE",
"452 200 OFFCURVE",
"466 230 CURVE SMOOTH",
"472 242 OFFCURVE",
"480 260 OFFCURVE",
"486 284 CURVE",
"542 550 LINE",
"456 550 LINE",
"494 732 LINE",
"796 732 LINE",
"642 0 LINE",
"514 0 LINE",
"502 70 LINE",
"452 20 OFFCURVE",
"386 -16 OFFCURVE",
"316 -16 CURVE SMOOTH",
"246 -16 OFFCURVE",
"202 2 OFFCURVE",
"172 34 CURVE SMOOTH",
"142 64 OFFCURVE",
"126 102 OFFCURVE",
"120 142 CURVE",
"110 188 OFFCURVE",
"114 240 OFFCURVE",
"130 302 CURVE",
"314 1168 LINE SMOOTH",
"328 1226 OFFCURVE",
"350 1278 OFFCURVE",
"382 1326 CURVE",
"412 1366 OFFCURVE",
"444 1406 OFFCURVE",
"490 1436 CURVE SMOOTH",
"536 1466 OFFCURVE",
"596 1486 OFFCURVE",
"668 1486 CURVE SMOOTH",
"740 1486 OFFCURVE",
"790 1466 OFFCURVE",
"824 1436 CURVE SMOOTH",
"858 1406 OFFCURVE",
"878 1366 OFFCURVE",
"886 1326 CURVE",
"900 1282 OFFCURVE",
"900 1230 OFFCURVE",
"890 1168 CURVE",
"842 942 LINE"
);
}
);
width = 720;
},
{
layerId = "38BA14EB-08C8-4487-88C1-8F957131FCA1";
paths = (
{
closed = 1;
nodes = (
"520 942 LINE",
"572 1188 LINE SMOOTH",
"596 1306 OFFCURVE",
"598 1486 OFFCURVE",
"438 1486 CURVE SMOOTH",
"288 1486 OFFCURVE",
"204 1320 OFFCURVE",
"176 1188 CURVE SMOOTH",
"-14 282 LINE SMOOTH",
"-36 178 OFFCURVE",
"-44 -16 OFFCURVE",
"102 -16 CURVE SMOOTH",
"138 -16 OFFCURVE",
"202 18 OFFCURVE",
"226 54 CURVE",
"234 0 LINE",
"320 0 LINE",
"474 732 LINE",
"284 732 LINE",
"246 550 LINE",
"282 550 LINE",
"222 264 LINE SMOOTH",
"214 228 OFFCURVE",
"198 176 OFFCURVE",
"162 176 CURVE SMOOTH",
"138 176 OFFCURVE",
"138 218 OFFCURVE",
"148 264 CURVE SMOOTH",
"344 1188 LINE SMOOTH",
"352 1224 OFFCURVE",
"370 1276 OFFCURVE",
"392 1276 CURVE SMOOTH",
"420 1276 OFFCURVE",
"412 1218 OFFCURVE",
"406 1188 CURVE SMOOTH",
"354 942 LINE"
);
},
{
closed = 1;
nodes = (
"418 1780 LINE",
"296 1600 LINE",
"426 1600 LINE",
"476 1678 LINE",
"494 1600 LINE",
"624 1600 LINE",
"580 1780 LINE"
);
}
);
width = 492;
},
{
layerId = "6463F33F-C059-4755-9C76-9F35D70521A0";
paths = (
{
closed = 1;
nodes = (
"414 942 LINE",
"414 1188 LINE SMOOTH",
"414 1306 OFFCURVE",
"376 1486 OFFCURVE",
"216 1486 CURVE SMOOTH",
"66 1486 OFFCURVE",
"18 1320 OFFCURVE",
"18 1188 CURVE SMOOTH",
"18 282 LINE SMOOTH",
"18 178 OFFCURVE",
"52 -16 OFFCURVE",
"200 -16 CURVE SMOOTH",
"236 -16 OFFCURVE",
"292 18 OFFCURVE",
"310 54 CURVE",
"328 0 LINE",
"414 0 LINE",
"414 732 LINE",
"224 732 LINE",
"224 550 LINE",
"260 550 LINE",
"260 264 LINE SMOOTH",
"260 228 OFFCURVE",
"256 176 OFFCURVE",
"220 176 CURVE SMOOTH",
"196 176 OFFCURVE",
"186 218 OFFCURVE",
"186 264 CURVE SMOOTH",
"186 1188 LINE SMOOTH",
"186 1224 OFFCURVE",
"194 1276 OFFCURVE",
"216 1276 CURVE SMOOTH",
"244 1276 OFFCURVE",
"248 1218 OFFCURVE",
"248 1188 CURVE SMOOTH",
"248 942 LINE"
);
},
{
closed = 1;
nodes = (
"134 1780 LINE",
"50 1600 LINE",
"180 1600 LINE",
"214 1678 LINE",
"248 1600 LINE",
"378 1600 LINE",
"296 1780 LINE"
);
}
);
width = 492;
}
);
unicode = 011C;
},
{
color = 0;
glyphname = Gcommaaccent;
lastChange = "2019-09-28 02:44:12 +0000";
layers = (
{
layerId = "1AB499B8-18A8-432D-A211-B6882CCB886D";
paths = (
{
closed = 1;
nodes = (
"426 942 LINE",
"426 1168 LINE SMOOTH",
"426 1208 OFFCURVE",
"418 1236 OFFCURVE",
"398 1260 CURVE",
"388 1270 OFFCURVE",
"372 1276 OFFCURVE",
"354 1276 CURVE SMOOTH",
"316 1276 OFFCURVE",
"298 1248 OFFCURVE",
"290 1222 CURVE",
"284 1206 OFFCURVE",
"282 1188 OFFCURVE",
"282 1168 CURVE SMOOTH",
"282 284 LINE SMOOTH",
"282 242 OFFCURVE",
"292 214 OFFCURVE",
"312 192 CURVE",
"322 182 OFFCURVE",
"336 176 OFFCURVE",
"354 176 CURVE SMOOTH",
"392 176 OFFCURVE",
"410 200 OFFCURVE",
"418 230 CURVE",
"424 244 OFFCURVE",
"426 262 OFFCURVE",
"426 284 CURVE SMOOTH",
"426 550 LINE",
"340 550 LINE",
"340 732 LINE",
"642 732 LINE",
"642 0 LINE",
"514 0 LINE",
"488 70 LINE",
"448 20 OFFCURVE",
"390 -16 OFFCURVE",
"320 -16 CURVE SMOOTH",
"250 -16 OFFCURVE",
"202 2 OFFCURVE",
"166 34 CURVE SMOOTH",
"130 64 OFFCURVE",
"106 102 OFFCURVE",
"90 142 CURVE SMOOTH",
"72 188 OFFCURVE",
"64 242 OFFCURVE",
"66 302 CURVE SMOOTH",
"66 1168 LINE SMOOTH",
"68 1226 OFFCURVE",
"80 1280 OFFCURVE",
"102 1326 CURVE SMOOTH",
"120 1366 OFFCURVE",
"146 1406 OFFCURVE",
"186 1436 CURVE SMOOTH",
"226 1466 OFFCURVE",
"282 1486 OFFCURVE",
"354 1486 CURVE SMOOTH",
"426 1486 OFFCURVE",
"480 1466 OFFCURVE",
"520 1436 CURVE SMOOTH",
"560 1406 OFFCURVE",
"588 1366 OFFCURVE",
"606 1326 CURVE SMOOTH",
"628 1280 OFFCURVE",
"640 1226 OFFCURVE",
"642 1168 CURVE SMOOTH",
"642 942 LINE"
);
},
{
closed = 1;
nodes = (
"430 -246 LINE",
"386 -376 LINE",
"284 -376 LINE",
"324 -246 LINE",
"262 -246 LINE",
"262 -108 LINE",
"430 -108 LINE"
);
}
);
width = 720;
},
{
layerId = "E10EC336-1202-48FF-9A55-15876E80CDFD";
paths = (
{
closed = 1;
nodes = (
"626 942 LINE",
"674 1168 LINE SMOOTH",
"682 1208 OFFCURVE",
"678 1238 OFFCURVE",
"664 1260 CURVE",
"656 1270 OFFCURVE",
"642 1276 OFFCURVE",
"624 1276 CURVE SMOOTH",
"586 1276 OFFCURVE",
"562 1248 OFFCURVE",
"548 1222 CURVE SMOOTH",
"540 1206 OFFCURVE",
"534 1188 OFFCURVE",
"530 1168 CURVE SMOOTH",
"342 284 LINE",
"332 246 OFFCURVE",
"336 214 OFFCURVE",
"352 192 CURVE",
"360 182 OFFCURVE",
"372 176 OFFCURVE",
"390 176 CURVE SMOOTH",
"428 176 OFFCURVE",
"452 200 OFFCURVE",
"466 230 CURVE SMOOTH",
"472 242 OFFCURVE",
"480 260 OFFCURVE",
"486 284 CURVE",
"542 550 LINE",
"456 550 LINE",
"494 732 LINE",
"796 732 LINE",
"642 0 LINE",
"514 0 LINE",
"502 70 LINE",
"452 20 OFFCURVE",
"386 -16 OFFCURVE",
"316 -16 CURVE SMOOTH",
"246 -16 OFFCURVE",
"202 2 OFFCURVE",
"172 34 CURVE SMOOTH",
"142 64 OFFCURVE",
"126 102 OFFCURVE",
"120 142 CURVE",
"110 188 OFFCURVE",
"114 240 OFFCURVE",
"130 302 CURVE",
"314 1168 LINE SMOOTH",
"328 1226 OFFCURVE",
"350 1278 OFFCURVE",
"382 1326 CURVE",
"412 1366 OFFCURVE",
"444 1406 OFFCURVE",
"490 1436 CURVE SMOOTH",
"536 1466 OFFCURVE",
"596 1486 OFFCURVE",
"668 1486 CURVE SMOOTH",
"740 1486 OFFCURVE",
"790 1466 OFFCURVE",
"824 1436 CURVE SMOOTH",
"858 1406 OFFCURVE",
"878 1366 OFFCURVE",
"886 1326 CURVE",
"900 1282 OFFCURVE",
"900 1230 OFFCURVE",
"890 1168 CURVE",
"842 942 LINE"
);
},
{
closed = 1;
nodes = (
"376 -246 LINE",
"306 -376 LINE",
"204 -376 LINE",
"270 -246 LINE",
"208 -246 LINE",
"238 -108 LINE",
"406 -108 LINE"
);
}
);
width = 720;
},
{
layerId = "38BA14EB-08C8-4487-88C1-8F957131FCA1";
paths = (
{
closed = 1;
nodes = (
"194 -108 LINE",
"58 -108 LINE",
"28 -246 LINE",
"72 -246 LINE",
"12 -376 LINE",
"110 -376 LINE",
"164 -246 LINE"
);
},
{
closed = 1;
nodes = (
"554 942 LINE",
"606 1188 LINE SMOOTH",
"632 1306 OFFCURVE",
"632 1486 OFFCURVE",
"472 1486 CURVE SMOOTH",
"322 1486 OFFCURVE",
"238 1320 OFFCURVE",
"210 1188 CURVE SMOOTH",
"18 282 LINE SMOOTH",
"-2 178 OFFCURVE",
"-10 -16 OFFCURVE",
"136 -16 CURVE SMOOTH",
"172 -16 OFFCURVE",
"236 18 OFFCURVE",
"262 54 CURVE",
"268 0 LINE",
"354 0 LINE",
"510 732 LINE",
"320 732 LINE",
"282 550 LINE",
"318 550 LINE",
"256 264 LINE SMOOTH",
"248 228 OFFCURVE",
"234 176 OFFCURVE",
"198 176 CURVE SMOOTH",
"174 176 OFFCURVE",
"172 218 OFFCURVE",
"182 264 CURVE SMOOTH",
"378 1188 LINE SMOOTH",
"386 1224 OFFCURVE",
"406 1276 OFFCURVE",
"428 1276 CURVE SMOOTH",
"456 1276 OFFCURVE",
"448 1218 OFFCURVE",
"440 1188 CURVE",
"388 942 LINE"
);
}
);
width = 492;
},
{
layerId = "6463F33F-C059-4755-9C76-9F35D70521A0";
paths = (
{
closed = 1;
nodes = (
"276 -108 LINE",
"140 -108 LINE",
"140 -246 LINE",
"184 -246 LINE",
"152 -376 LINE",
"250 -376 LINE",
"276 -246 LINE"
);
},
{
closed = 1;
nodes = (
"414 942 LINE",
"414 1188 LINE SMOOTH",
"414 1306 OFFCURVE",
"376 1486 OFFCURVE",
"216 1486 CURVE SMOOTH",
"66 1486 OFFCURVE",
"18 1320 OFFCURVE",
"18 1188 CURVE SMOOTH",
"18 282 LINE SMOOTH",
"18 178 OFFCURVE",
"52 -16 OFFCURVE",
"200 -16 CURVE SMOOTH",
"236 -16 OFFCURVE",
"292 18 OFFCURVE",
"310 54 CURVE",
"328 0 LINE",
"414 0 LINE",
"414 732 LINE",
"224 732 LINE",
"224 550 LINE",
"260 550 LINE",
"260 264 LINE SMOOTH",
"260 228 OFFCURVE",
"256 176 OFFCURVE",
"220 176 CURVE SMOOTH",
"196 176 OFFCURVE",
"186 218 OFFCURVE",
"186 264 CURVE SMOOTH",
"186 1188 LINE SMOOTH",
"186 1224 OFFCURVE",
"194 1276 OFFCURVE",
"216 1276 CURVE SMOOTH",
"244 1276 OFFCURVE",
"248 1218 OFFCURVE",
"248 1188 CURVE SMOOTH",
"248 942 LINE"
);
}
);
width = 492;
}
);
unicode = 0122;
},
{
color = 0;
glyphname = Gdotaccent;
lastChange = "2019-09-28 02:44:12 +0000";
layers = (
{
layerId = "1AB499B8-18A8-432D-A211-B6882CCB886D";
paths = (
{
closed = 1;
nodes = (
"426 942 LINE",
"426 1168 LINE SMOOTH",
"426 1208 OFFCURVE",
"418 1236 OFFCURVE",
"398 1260 CURVE",
"388 1270 OFFCURVE",
"372 1276 OFFCURVE",
"354 1276 CURVE SMOOTH",
"316 1276 OFFCURVE",
"298 1248 OFFCURVE",
"290 1222 CURVE",
"284 1206 OFFCURVE",
"282 1188 OFFCURVE",
"282 1168 CURVE SMOOTH",
"282 284 LINE SMOOTH",
"282 242 OFFCURVE",
"292 214 OFFCURVE",
"312 192 CURVE",
"322 182 OFFCURVE",
"336 176 OFFCURVE",
"354 176 CURVE SMOOTH",
"392 176 OFFCURVE",
"410 200 OFFCURVE",
"418 230 CURVE",
"424 244 OFFCURVE",
"426 262 OFFCURVE",
"426 284 CURVE SMOOTH",
"426 550 LINE",
"340 550 LINE",
"340 732 LINE",
"642 732 LINE",
"642 0 LINE",
"514 0 LINE",
"488 70 LINE",
"448 20 OFFCURVE",
"390 -16 OFFCURVE",
"320 -16 CURVE SMOOTH",
"250 -16 OFFCURVE",
"202 2 OFFCURVE",
"166 34 CURVE SMOOTH",
"130 64 OFFCURVE",
"106 102 OFFCURVE",
"90 142 CURVE SMOOTH",
"72 188 OFFCURVE",
"64 242 OFFCURVE",
"66 302 CURVE SMOOTH",
"66 1168 LINE SMOOTH",
"68 1226 OFFCURVE",
"80 1280 OFFCURVE",
"102 1326 CURVE SMOOTH",
"120 1366 OFFCURVE",
"146 1406 OFFCURVE",
"186 1436 CURVE SMOOTH",
"226 1466 OFFCURVE",
"282 1486 OFFCURVE",
"354 1486 CURVE SMOOTH",
"426 1486 OFFCURVE",
"480 1466 OFFCURVE",
"520 1436 CURVE SMOOTH",
"560 1406 OFFCURVE",
"588 1366 OFFCURVE",
"606 1326 CURVE SMOOTH",
"628 1280 OFFCURVE",
"640 1226 OFFCURVE",
"642 1168 CURVE SMOOTH",
"642 942 LINE"
);
},
{
closed = 1;
nodes = (
"262 1846 LINE",
"464 1846 LINE",
"464 1644 LINE",
"262 1644 LINE"
);
}
);
width = 720;
},
{
layerId = "E10EC336-1202-48FF-9A55-15876E80CDFD";
paths = (
{
closed = 1;
nodes = (
"654 1846 LINE",
"856 1846 LINE",
"812 1644 LINE",
"610 1644 LINE"
);
},
{
closed = 1;
nodes = (
"626 942 LINE",
"674 1168 LINE SMOOTH",
"682 1208 OFFCURVE",
"678 1238 OFFCURVE",
"664 1260 CURVE",
"656 1270 OFFCURVE",
"642 1276 OFFCURVE",
"624 1276 CURVE SMOOTH",
"586 1276 OFFCURVE",
"562 1248 OFFCURVE",
"548 1222 CURVE SMOOTH",
"540 1206 OFFCURVE",
"534 1188 OFFCURVE",
"530 1168 CURVE SMOOTH",
"342 284 LINE",
"332 246 OFFCURVE",
"336 214 OFFCURVE",
"352 192 CURVE",
"360 182 OFFCURVE",
"372 176 OFFCURVE",
"390 176 CURVE SMOOTH",
"428 176 OFFCURVE",
"452 200 OFFCURVE",
"466 230 CURVE SMOOTH",
"472 242 OFFCURVE",
"480 260 OFFCURVE",
"486 284 CURVE",
"542 550 LINE",
"456 550 LINE",
"494 732 LINE",
"796 732 LINE",
"642 0 LINE",
"514 0 LINE",
"502 70 LINE",
"452 20 OFFCURVE",
"386 -16 OFFCURVE",
"316 -16 CURVE SMOOTH",
"246 -16 OFFCURVE",
"202 2 OFFCURVE",
"172 34 CURVE SMOOTH",
"142 64 OFFCURVE",
"126 102 OFFCURVE",
"120 142 CURVE",
"110 188 OFFCURVE",
"114 240 OFFCURVE",
"130 302 CURVE",
"314 1168 LINE SMOOTH",
"328 1226 OFFCURVE",
"350 1278 OFFCURVE",
"382 1326 CURVE",
"412 1366 OFFCURVE",
"444 1406 OFFCURVE",
"490 1436 CURVE SMOOTH",
"536 1466 OFFCURVE",
"596 1486 OFFCURVE",
"668 1486 CURVE SMOOTH",
"740 1486 OFFCURVE",
"790 1466 OFFCURVE",
"824 1436 CURVE SMOOTH",
"858 1406 OFFCURVE",
"878 1366 OFFCURVE",
"886 1326 CURVE",
"900 1282 OFFCURVE",
"900 1230 OFFCURVE",
"890 1168 CURVE",
"842 942 LINE"
);
}
);
width = 720;
},
{
layerId = "38BA14EB-08C8-4487-88C1-8F957131FCA1";
paths = (
{
closed = 1;
nodes = (
"392 1644 LINE",
"548 1644 LINE",
"590 1846 LINE",
"434 1846 LINE"
);
},
{
closed = 1;
nodes = (
"516 942 LINE",
"568 1188 LINE SMOOTH",
"594 1306 OFFCURVE",
"594 1486 OFFCURVE",
"434 1486 CURVE SMOOTH",
"284 1486 OFFCURVE",
"200 1320 OFFCURVE",
"172 1188 CURVE SMOOTH",
"-18 282 LINE SMOOTH",
"-40 178 OFFCURVE",
"-48 -16 OFFCURVE",
"98 -16 CURVE SMOOTH",
"134 -16 OFFCURVE",
"198 18 OFFCURVE",
"224 54 CURVE",
"230 0 LINE",
"316 0 LINE",
"472 732 LINE",
"282 732 LINE",
"242 550 LINE",
"278 550 LINE",
"218 264 LINE SMOOTH",
"210 228 OFFCURVE",
"196 176 OFFCURVE",
"160 176 CURVE SMOOTH",
"136 176 OFFCURVE",
"134 218 OFFCURVE",
"144 264 CURVE SMOOTH",
"340 1188 LINE SMOOTH",
"348 1224 OFFCURVE",
"368 1276 OFFCURVE",
"390 1276 CURVE SMOOTH",
"418 1276 OFFCURVE",
"408 1218 OFFCURVE",
"402 1188 CURVE SMOOTH",
"350 942 LINE"
);
}
);
width = 492;
},
{
layerId = "6463F33F-C059-4755-9C76-9F35D70521A0";
paths = (
{
closed = 1;
nodes = (
"140 1644 LINE",
"296 1644 LINE",
"296 1846 LINE",
"140 1846 LINE"
);
},
{
closed = 1;
nodes = (
"414 942 LINE",
"414 1188 LINE SMOOTH",
"414 1306 OFFCURVE",
"376 1486 OFFCURVE",
"216 1486 CURVE SMOOTH",
"66 1486 OFFCURVE",
"18 1320 OFFCURVE",
"18 1188 CURVE SMOOTH",
"18 282 LINE SMOOTH",
"18 178 OFFCURVE",
"52 -16 OFFCURVE",
"200 -16 CURVE SMOOTH",
"236 -16 OFFCURVE",
"292 18 OFFCURVE",
"310 54 CURVE",
"328 0 LINE",
"414 0 LINE",
"414 732 LINE",
"224 732 LINE",
"224 550 LINE",
"260 550 LINE",
"260 264 LINE SMOOTH",
"260 228 OFFCURVE",
"256 176 OFFCURVE",
"220 176 CURVE SMOOTH",
"196 176 OFFCURVE",
"186 218 OFFCURVE",
"186 264 CURVE SMOOTH",
"186 1188 LINE SMOOTH",
"186 1224 OFFCURVE",
"194 1276 OFFCURVE",
"216 1276 CURVE SMOOTH",
"244 1276 OFFCURVE",
"248 1218 OFFCURVE",
"248 1188 CURVE SMOOTH",
"248 942 LINE"
);
}
);
width = 492;
}
);
unicode = 0120;
},
{
color = 0;
glyphname = H;
lastChange = "2019-09-28 02:44:12 +0000";
layers = (
{
anchors = (
{
name = center;
position = "{380, 736}";
},
{
name = top;
position = "{380, 1470}";
}
);
layerId = "1AB499B8-18A8-432D-A211-B6882CCB886D";
paths = (
{
closed = 1;
nodes = (
"464 640 LINE",
"296 640 LINE",
"296 0 LINE",
"80 0 LINE",
"80 1470 LINE",
"296 1470 LINE",
"296 862 LINE",
"464 862 LINE",
"464 1470 LINE",
"680 1470 LINE",
"680 0 LINE",
"464 0 LINE"
);
}
);
width = 760;
},
{
anchors = (
{
name = center;
position = "{380, 736}";
},
{
name = top;
position = "{380, 1470}";
}
);
layerId = "E10EC336-1202-48FF-9A55-15876E80CDFD";
paths = (
{
closed = 1;
nodes = (
"600 640 LINE",
"432 640 LINE",
"296 0 LINE",
"80 0 LINE",
"392 1470 LINE",
"608 1470 LINE",
"478 862 LINE",
"646 862 LINE",
"776 1470 LINE",
"992 1470 LINE",
"680 0 LINE",
"464 0 LINE"
);
}
);
width = 760;
},
{
anchors = (
{
name = center;
position = "{258, 736}";
},
{
name = top;
position = "{258, 1470}";
}
);
layerId = "38BA14EB-08C8-4487-88C1-8F957131FCA1";
paths = (
{
closed = 1;
nodes = (
"180 0 LINE",
"346 0 LINE",
"660 1470 LINE",
"494 1470 LINE",
"364 862 LINE",
"300 862 LINE",
"430 1470 LINE",
"264 1470 LINE",
"-48 0 LINE",
"116 0 LINE",
"254 640 LINE",
"318 640 LINE"
);
}
);
width = 516;
},
{
anchors = (
{
name = center;
position = "{258, 736}";
},
{
name = top;
position = "{258, 1470}";
}
);
layerId = "6463F33F-C059-4755-9C76-9F35D70521A0";
paths = (
{
closed = 1;
nodes = (
"260 0 LINE",
"426 0 LINE",
"426 1470 LINE",
"260 1470 LINE",
"260 862 LINE",
"196 862 LINE",
"196 1470 LINE",
"30 1470 LINE",
"30 0 LINE",
"196 0 LINE",
"196 640 LINE",
"260 640 LINE"
);
}
);
width = 516;
}
);
unicode = 0048;
},
{
color = 0;
glyphname = Hbar;
lastChange = "2019-09-28 02:44:12 +0000";
layers = (
{
layerId = "1AB499B8-18A8-432D-A211-B6882CCB886D";
paths = (
{
closed = 1;
nodes = (
"464 640 LINE",
"296 640 LINE",
"296 0 LINE",
"80 0 LINE",
"80 1470 LINE",
"296 1470 LINE",
"296 862 LINE",
"464 862 LINE",
"464 1470 LINE",
"680 1470 LINE",
"680 0 LINE",
"464 0 LINE"
);
},
{
closed = 1;
nodes = (
"2 1254 LINE",
"760 1254 LINE",
"760 1096 LINE",
"2 1096 LINE"
);
}
);
width = 760;
},
{
layerId = "E10EC336-1202-48FF-9A55-15876E80CDFD";
paths = (
{
closed = 1;
nodes = (
"992 1096 LINE",
"912 1096 LINE",
"680 0 LINE",
"464 0 LINE",
"600 640 LINE",
"432 640 LINE",
"296 0 LINE",
"80 0 LINE",
"312 1096 LINE",
"234 1096 LINE",
"268 1254 LINE",
"346 1254 LINE",
"392 1470 LINE",
"608 1470 LINE",
"562 1254 LINE",
"730 1254 LINE",
"776 1470 LINE",
"992 1470 LINE",
"946 1254 LINE",
"1026 1254 LINE"
);
},
{
closed = 1;
nodes = (
"696 1096 LINE",
"528 1096 LINE",
"478 862 LINE",
"646 862 LINE"
);
}
);
width = 760;
},
{
layerId = "38BA14EB-08C8-4487-88C1-8F957131FCA1";
paths = (
{
closed = 1;
nodes = (
"662 1254 LINE",
"614 1254 LINE",
"660 1470 LINE",
"494 1470 LINE",
"448 1254 LINE",
"384 1254 LINE",
"430 1470 LINE",
"264 1470 LINE",
"218 1254 LINE",
"172 1254 LINE",
"138 1096 LINE",
"184 1096 LINE",
"-48 0 LINE",
"116 0 LINE",
"254 640 LINE",
"318 640 LINE",
"180 0 LINE",
"346 0 LINE",
"580 1096 LINE",
"628 1096 LINE"
);
},
{
closed = 1;
nodes = (
"364 862 LINE",
"300 862 LINE",
"350 1096 LINE",
"414 1096 LINE"
);
}
);
width = 516;
},
{
layerId = "6463F33F-C059-4755-9C76-9F35D70521A0";
paths = (
{
closed = 1;
nodes = (
"474 1254 LINE",
"426 1254 LINE",
"426 1470 LINE",
"260 1470 LINE",
"260 1254 LINE",
"196 1254 LINE",
"196 1470 LINE",
"30 1470 LINE",
"30 1254 LINE",
"-16 1254 LINE",
"-16 1096 LINE",
"30 1096 LINE",
"30 0 LINE",
"196 0 LINE",
"196 640 LINE",
"260 640 LINE",
"260 0 LINE",
"426 0 LINE",
"426 1096 LINE",
"474 1096 LINE"
);
},
{
closed = 1;
nodes = (
"260 862 LINE",
"196 862 LINE",
"196 1096 LINE",
"260 1096 LINE"
);
}
);
width = 516;
}
);
unicode = 0126;
},
{
color = 0;
glyphname = Hcircumflex;
lastChange = "2019-09-28 02:44:12 +0000";
layers = (
{
layerId = "1AB499B8-18A8-432D-A211-B6882CCB886D";
paths = (
{
closed = 1;
nodes = (
"464 640 LINE",
"296 640 LINE",
"296 0 LINE",
"80 0 LINE",
"80 1470 LINE",
"296 1470 LINE",
"296 862 LINE",
"464 862 LINE",
"464 1470 LINE",
"680 1470 LINE",
"680 0 LINE",
"464 0 LINE"
);
},
{
closed = 1;
nodes = (
"490 1830 LINE",
"628 1650 LINE",
"444 1650 LINE",
"382 1720 LINE",
"322 1650 LINE",
"138 1650 LINE",
"276 1830 LINE"
);
}
);
width = 760;
},
{
layerId = "E10EC336-1202-48FF-9A55-15876E80CDFD";
paths = (
{
closed = 1;
nodes = (
"878 1830 LINE",
"978 1650 LINE",
"794 1650 LINE",
"746 1720 LINE",
"672 1650 LINE",
"488 1650 LINE",
"664 1830 LINE"
);
},
{
closed = 1;
nodes = (
"600 640 LINE",
"432 640 LINE",
"296 0 LINE",
"80 0 LINE",
"392 1470 LINE",
"608 1470 LINE",
"478 862 LINE",
"646 862 LINE",
"776 1470 LINE",
"992 1470 LINE",
"680 0 LINE",
"464 0 LINE"
);
}
);
width = 760;
},
{
layerId = "38BA14EB-08C8-4487-88C1-8F957131FCA1";
paths = (
{
closed = 1;
nodes = (
"164 0 LINE",
"330 0 LINE",
"642 1470 LINE",
"476 1470 LINE",
"348 862 LINE",
"284 862 LINE",
"412 1470 LINE",
"246 1470 LINE",
"-64 0 LINE",
"100 0 LINE",
"236 640 LINE",
"300 640 LINE"
);
},
{
closed = 1;
nodes = (
"432 1780 LINE",
"310 1600 LINE",
"440 1600 LINE",
"492 1678 LINE",
"508 1600 LINE",
"638 1600 LINE",
"594 1780 LINE"
);
}
);
width = 516;
},
{
layerId = "6463F33F-C059-4755-9C76-9F35D70521A0";
paths = (
{
closed = 1;
nodes = (
"260 0 LINE",
"426 0 LINE",
"426 1470 LINE",
"260 1470 LINE",
"260 862 LINE",
"196 862 LINE",
"196 1470 LINE",
"30 1470 LINE",
"30 0 LINE",
"196 0 LINE",
"196 640 LINE",
"260 640 LINE"
);
},
{
closed = 1;
nodes = (
"150 1780 LINE",
"66 1600 LINE",
"196 1600 LINE",
"230 1678 LINE",
"264 1600 LINE",
"394 1600 LINE",
"312 1780 LINE"
);
}
);
width = 516;
}
);
unicode = 0124;
},
{
color = 0;
glyphname = I;
lastChange = "2019-09-28 02:44:12 +0000";
layers = (
{
anchors = (
{
name = ogonek;
position = "{338, 20}";
},
{
name = top;
position = "{188, 1470}";
}
);
layerId = "1AB499B8-18A8-432D-A211-B6882CCB886D";
paths = (
{
closed = 1;
nodes = (
"80 1470 LINE",
"296 1470 LINE",
"296 0 LINE",
"80 0 LINE"
);
}
);
width = 376;
},
{
anchors = (
{
name = ogonek;
position = "{338, 20}";
},
{
name = top;
position = "{188, 1470}";
}
);
layerId = "E10EC336-1202-48FF-9A55-15876E80CDFD";
paths = (
{
closed = 1;
nodes = (
"392 1470 LINE",
"608 1470 LINE",
"296 0 LINE",
"80 0 LINE"
);
}
);
width = 376;
},
{
anchors = (
{
name = ogonek;
position = "{258, 20}";
},
{
name = top;
position = "{144, 1470}";
}
);
layerId = "38BA14EB-08C8-4487-88C1-8F957131FCA1";
paths = (
{
closed = 1;
nodes = (
"-48 0 LINE",
"116 0 LINE",
"430 1470 LINE",
"264 1470 LINE"
);
}
);
width = 286;
},
{
anchors = (
{
name = ogonek;
position = "{258, 20}";
},
{
name = top;
position = "{144, 1470}";
}
);
layerId = "6463F33F-C059-4755-9C76-9F35D70521A0";
paths = (
{
closed = 1;
nodes = (
"30 0 LINE",
"196 0 LINE",
"196 1470 LINE",
"30 1470 LINE"
);
}
);
width = 286;
}
);
leftKerningGroup = l;
rightKerningGroup = l;
unicode = 0049;
},
{
color = 0;
glyphname = IJ;
lastChange = "2019-09-28 02:44:12 +0000";
layers = (
{
layerId = "1AB499B8-18A8-432D-A211-B6882CCB886D";
paths = (
{
closed = 1;
nodes = (
"80 1470 LINE",
"296 1470 LINE",
"296 0 LINE",
"80 0 LINE"
);
},
{
closed = 1;
nodes = (
"388 198 LINE",
"430 192 OFFCURVE",
"462 202 OFFCURVE",
"486 234 CURVE",
"498 248 OFFCURVE",
"504 272 OFFCURVE",
"504 306 CURVE SMOOTH",
"504 1470 LINE",
"720 1470 LINE",
"720 272 LINE SMOOTH",
"720 192 OFFCURVE",
"700 118 OFFCURVE",
"650 64 CURVE SMOOTH",
"600 10 OFFCURVE",
"516 -22 OFFCURVE",
"388 -14 CURVE"
);
}
);
width = 790;
},
{
layerId = "E10EC336-1202-48FF-9A55-15876E80CDFD";
paths = (
{
closed = 1;
nodes = (
"392 1470 LINE",
"608 1470 LINE",
"296 0 LINE",
"80 0 LINE"
);
},
{
closed = 1;
nodes = (
"430 198 LINE",
"472 192 OFFCURVE",
"506 204 OFFCURVE",
"534 234 CURVE",
"548 246 OFFCURVE",
"560 270 OFFCURVE",
"568 306 CURVE SMOOTH",
"816 1470 LINE",
"1032 1470 LINE",
"776 272 LINE SMOOTH",
"760 192 OFFCURVE",
"724 118 OFFCURVE",
"662 64 CURVE SMOOTH",
"600 10 OFFCURVE",
"512 -22 OFFCURVE",
"384 -14 CURVE"
);
}
);
width = 790;
},
{
layerId = "38BA14EB-08C8-4487-88C1-8F957131FCA1";
paths = (
{
closed = 1;
nodes = (
"-46 0 LINE",
"118 0 LINE",
"430 1470 LINE",
"264 1470 LINE"
);
},
{
closed = 1;
nodes = (
"152 -12 LINE",
"336 -30 OFFCURVE",
"416 102 OFFCURVE",
"452 272 CURVE SMOOTH",
"706 1470 LINE",
"540 1470 LINE",
"292 306 LINE SMOOTH",
"284 266 OFFCURVE",
"260 190 OFFCURVE",
"196 204 CURVE"
);
}
);
width = 534;
},
{
layerId = "6463F33F-C059-4755-9C76-9F35D70521A0";
paths = (
{
closed = 1;
nodes = (
"30 0 LINE",
"196 0 LINE",
"196 1470 LINE",
"30 1470 LINE"
);
},
{
closed = 1;
nodes = (
"232 -12 LINE",
"420 -30 OFFCURVE",
"472 102 OFFCURVE",
"472 272 CURVE SMOOTH",
"472 1470 LINE",
"306 1470 LINE",
"306 306 LINE SMOOTH",
"306 266 OFFCURVE",
"298 190 OFFCURVE",
"232 204 CURVE"
);
}
);
width = 534;
}
);
unicode = 0132;
},
{
color = 0;
glyphname = Iacute;
lastChange = "2019-09-28 02:44:12 +0000";
layers = (
{
layerId = "1AB499B8-18A8-432D-A211-B6882CCB886D";
paths = (
{
closed = 1;
nodes = (
"80 1470 LINE",
"296 1470 LINE",
"296 0 LINE",
"80 0 LINE"
);
},
{
closed = 1;
nodes = (
"398 1780 LINE",
"240 1600 LINE",
"84 1600 LINE",
"188 1780 LINE"
);
}
);
width = 392;
},
{
layerId = "E10EC336-1202-48FF-9A55-15876E80CDFD";
paths = (
{
closed = 1;
nodes = (
"776 1780 LINE",
"580 1600 LINE",
"424 1600 LINE",
"566 1780 LINE"
);
},
{
closed = 1;
nodes = (
"392 1470 LINE",
"608 1470 LINE",
"296 0 LINE",
"80 0 LINE"
);
}
);
width = 392;
},
{
layerId = "38BA14EB-08C8-4487-88C1-8F957131FCA1";
paths = (
{
closed = 1;
nodes = (
"376 1780 LINE",
"276 1600 LINE",
"404 1600 LINE",
"536 1780 LINE"
);
},
{
closed = 1;
nodes = (
"-64 0 LINE",
"100 0 LINE",
"412 1470 LINE",
"246 1470 LINE"
);
}
);
width = 296;
},
{
layerId = "6463F33F-C059-4755-9C76-9F35D70521A0";
paths = (
{
closed = 1;
nodes = (
"94 1780 LINE",
"32 1600 LINE",
"160 1600 LINE",
"254 1780 LINE"
);
},
{
closed = 1;
nodes = (
"30 0 LINE",
"196 0 LINE",
"196 1470 LINE",
"30 1470 LINE"
);
}
);
width = 296;
}
);
leftKerningGroup = l;
rightKerningGroup = l;
unicode = 00CD;
},
{
color = 0;
glyphname = Ibreve;
lastChange = "2019-09-28 02:44:12 +0000";
layers = (
{
layerId = "1AB499B8-18A8-432D-A211-B6882CCB886D";
paths = (
{
closed = 1;
nodes = (
"80 1470 LINE",
"296 1470 LINE",
"296 0 LINE",
"80 0 LINE"
);
},
{
closed = 1;
nodes = (
"410 1742 LINE",
"376 1708 OFFCURVE",
"336 1680 OFFCURVE",
"282 1662 CURVE",
"256 1652 OFFCURVE",
"224 1648 OFFCURVE",
"190 1648 CURVE SMOOTH",
"120 1648 OFFCURVE",
"66 1670 OFFCURVE",
"28 1694 CURVE SMOOTH",
"6 1708 OFFCURVE",
"-14 1724 OFFCURVE",
"-30 1742 CURVE",
"78 1834 LINE",
"92 1816 OFFCURVE",
"114 1802 OFFCURVE",
"142 1794 CURVE SMOOTH",
"156 1790 OFFCURVE",
"172 1788 OFFCURVE",
"190 1788 CURVE SMOOTH",
"228 1788 OFFCURVE",
"254 1796 OFFCURVE",
"276 1810 CURVE",
"288 1816 OFFCURVE",
"298 1824 OFFCURVE",
"306 1834 CURVE"
);
}
);
width = 376;
},
{
layerId = "E10EC336-1202-48FF-9A55-15876E80CDFD";
paths = (
{
closed = 1;
nodes = (
"780 1742 LINE",
"738 1708 OFFCURVE",
"692 1680 OFFCURVE",
"634 1662 CURVE",
"608 1652 OFFCURVE",
"576 1648 OFFCURVE",
"540 1648 CURVE SMOOTH",
"470 1648 OFFCURVE",
"420 1670 OFFCURVE",
"388 1694 CURVE SMOOTH",
"368 1708 OFFCURVE",
"352 1724 OFFCURVE",
"340 1742 CURVE",
"466 1834 LINE",
"492 1796 OFFCURVE",
"532 1788 OFFCURVE",
"570 1788 CURVE SMOOTH",
"608 1788 OFFCURVE",
"634 1796 OFFCURVE",
"660 1810 CURVE SMOOTH",
"672 1816 OFFCURVE",
"684 1824 OFFCURVE",
"694 1834 CURVE"
);
},
{
closed = 1;
nodes = (
"392 1470 LINE",
"608 1470 LINE",
"296 0 LINE",
"80 0 LINE"
);
}
);
width = 376;
},
{
layerId = "38BA14EB-08C8-4487-88C1-8F957131FCA1";
paths = (
{
closed = 1;
nodes = (
"-68 0 LINE",
"96 0 LINE",
"408 1470 LINE",
"242 1470 LINE"
);
},
{
closed = 1;
nodes = (
"478 1856 LINE",
"478 1856 OFFCURVE",
"428 1794 OFFCURVE",
"396 1794 CURVE SMOOTH",
"360 1794 OFFCURVE",
"344 1858 OFFCURVE",
"344 1858 CURVE",
"238 1744 LINE",
"252 1692 OFFCURVE",
"302 1648 OFFCURVE",
"364 1648 CURVE SMOOTH",
"426 1648 OFFCURVE",
"486 1688 OFFCURVE",
"534 1744 CURVE"
);
}
);
width = 286;
},
{
layerId = "6463F33F-C059-4755-9C76-9F35D70521A0";
paths = (
{
closed = 1;
nodes = (
"30 0 LINE",
"196 0 LINE",
"196 1470 LINE",
"30 1470 LINE"
);
},
{
closed = 1;
nodes = (
"184 1856 LINE",
"184 1856 OFFCURVE",
"146 1794 OFFCURVE",
"114 1794 CURVE SMOOTH",
"78 1794 OFFCURVE",
"48 1858 OFFCURVE",
"48 1858 CURVE",
"-34 1744 LINE",
"-8 1692 OFFCURVE",
"52 1648 OFFCURVE",
"114 1648 CURVE SMOOTH",
"176 1648 OFFCURVE",
"226 1688 OFFCURVE",
"262 1744 CURVE"
);
}
);
width = 286;
}
);
unicode = 012C;
},
{
color = 0;
glyphname = Icircumflex;
lastChange = "2019-09-28 02:44:12 +0000";
layers = (
{
layerId = "1AB499B8-18A8-432D-A211-B6882CCB886D";
paths = (
{
closed = 1;
nodes = (
"72 1470 LINE",
"288 1470 LINE",
"288 0 LINE",
"72 0 LINE"
);
},
{
closed = 1;
nodes = (
"288 1780 LINE",
"426 1600 LINE",
"242 1600 LINE",
"180 1670 LINE",
"120 1600 LINE",
"-64 1600 LINE",
"74 1780 LINE"
);
}
);
width = 362;
},
{
layerId = "E10EC336-1202-48FF-9A55-15876E80CDFD";
paths = (
{
closed = 1;
nodes = (
"666 1780 LINE",
"766 1600 LINE",
"582 1600 LINE",
"534 1670 LINE",
"460 1600 LINE",
"276 1600 LINE",
"452 1780 LINE"
);
},
{
closed = 1;
nodes = (
"384 1470 LINE",
"600 1470 LINE",
"288 0 LINE",
"72 0 LINE"
);
}
);
width = 362;
},
{
layerId = "38BA14EB-08C8-4487-88C1-8F957131FCA1";
paths = (
{
closed = 1;
nodes = (
"-68 0 LINE",
"94 0 LINE",
"406 1470 LINE",
"242 1470 LINE"
);
},
{
closed = 1;
nodes = (
"308 1780 LINE",
"186 1600 LINE",
"316 1600 LINE",
"368 1678 LINE",
"384 1600 LINE",
"514 1600 LINE",
"470 1780 LINE"
);
}
);
width = 278;
},
{
layerId = "6463F33F-C059-4755-9C76-9F35D70521A0";
paths = (
{
closed = 1;
nodes = (
"26 0 LINE",
"190 0 LINE",
"190 1470 LINE",
"26 1470 LINE"
);
},
{
closed = 1;
nodes = (
"26 1780 LINE",
"-58 1600 LINE",
"72 1600 LINE",
"106 1678 LINE",
"140 1600 LINE",
"270 1600 LINE",
"188 1780 LINE"
);
}
);
width = 278;
}
);
leftKerningGroup = icircumflex;
rightKerningGroup = icircumflex;
unicode = 00CE;
},
{
color = 0;
glyphname = Idieresis;
lastChange = "2019-09-28 02:44:12 +0000";
layers = (
{
layerId = "1AB499B8-18A8-432D-A211-B6882CCB886D";
paths = (
{
closed = 1;
nodes = (
"74 1470 LINE",
"290 1470 LINE",
"290 0 LINE",
"74 0 LINE"
);
},
{
closed = 1;
nodes = (
"-52 1796 LINE",
"134 1796 LINE",
"134 1600 LINE",
"-52 1600 LINE"
);
},
{
closed = 1;
nodes = (
"230 1796 LINE",
"416 1796 LINE",
"416 1600 LINE",
"230 1600 LINE"
);
}
);
width = 364;
},
{
layerId = "E10EC336-1202-48FF-9A55-15876E80CDFD";
paths = (
{
closed = 1;
nodes = (
"328 1796 LINE",
"514 1796 LINE",
"474 1600 LINE",
"288 1600 LINE"
);
},
{
closed = 1;
nodes = (
"610 1796 LINE",
"796 1796 LINE",
"756 1600 LINE",
"570 1600 LINE"
);
},
{
closed = 1;
nodes = (
"386 1470 LINE",
"602 1470 LINE",
"290 0 LINE",
"74 0 LINE"
);
}
);
width = 364;
},
{
layerId = "38BA14EB-08C8-4487-88C1-8F957131FCA1";
paths = (
{
closed = 1;
nodes = (
"-68 0 LINE",
"96 0 LINE",
"408 1470 LINE",
"242 1470 LINE"
);
},
{
closed = 1;
nodes = (
"186 1600 LINE",
"334 1600 LINE",
"376 1796 LINE",
"228 1796 LINE"
);
},
{
closed = 1;
nodes = (
"380 1600 LINE",
"526 1600 LINE",
"568 1796 LINE",
"422 1796 LINE"
);
}
);
width = 278;
},
{
layerId = "6463F33F-C059-4755-9C76-9F35D70521A0";
paths = (
{
closed = 1;
nodes = (
"26 0 LINE",
"192 0 LINE",
"192 1470 LINE",
"26 1470 LINE"
);
},
{
closed = 1;
nodes = (
"-58 1600 LINE",
"90 1600 LINE",
"90 1796 LINE",
"-58 1796 LINE"
);
},
{
closed = 1;
nodes = (
"136 1600 LINE",
"282 1600 LINE",
"282 1796 LINE",
"136 1796 LINE"
);
}
);
width = 278;
}
);
leftKerningGroup = icircumflex;
rightKerningGroup = icircumflex;
unicode = 00CF;
},
{
color = 0;
glyphname = Idotaccent;
lastChange = "2019-09-28 02:44:12 +0000";
layers = (
{
layerId = "1AB499B8-18A8-432D-A211-B6882CCB886D";
paths = (
{
closed = 1;
nodes = (
"80 1470 LINE",
"296 1470 LINE",
"296 0 LINE",
"80 0 LINE"
);
},
{
closed = 1;
nodes = (
"90 1846 LINE",
"292 1846 LINE",
"292 1644 LINE",
"90 1644 LINE"
);
}
);
width = 376;
},
{
layerId = "E10EC336-1202-48FF-9A55-15876E80CDFD";
paths = (
{
closed = 1;
nodes = (
"482 1846 LINE",
"684 1846 LINE",
"640 1644 LINE",
"438 1644 LINE"
);
},
{
closed = 1;
nodes = (
"392 1470 LINE",
"608 1470 LINE",
"296 0 LINE",
"80 0 LINE"
);
}
);
width = 376;
},
{
layerId = "38BA14EB-08C8-4487-88C1-8F957131FCA1";
paths = (
{
closed = 1;
nodes = (
"286 1644 LINE",
"444 1644 LINE",
"488 1846 LINE",
"330 1846 LINE"
);
},
{
closed = 1;
nodes = (
"-66 0 LINE",
"98 0 LINE",
"410 1470 LINE",
"244 1470 LINE"
);
}
);
width = 286;
},
{
layerId = "6463F33F-C059-4755-9C76-9F35D70521A0";
paths = (
{
closed = 1;
nodes = (
"36 1644 LINE",
"194 1644 LINE",
"194 1846 LINE",
"36 1846 LINE"
);
},
{
closed = 1;
nodes = (
"30 0 LINE",
"196 0 LINE",
"196 1470 LINE",
"30 1470 LINE"
);
}
);
width = 286;
}
);
unicode = 0130;
},
{
color = 0;
glyphname = Igrave;
lastChange = "2019-09-28 02:44:12 +0000";
layers = (
{
layerId = "1AB499B8-18A8-432D-A211-B6882CCB886D";
paths = (
{
closed = 1;
nodes = (
"96 1470 LINE",
"312 1470 LINE",
"312 0 LINE",
"96 0 LINE"
);
},
{
closed = 1;
nodes = (
"204 1780 LINE",
"308 1600 LINE",
"152 1600 LINE",
"-6 1780 LINE"
);
}
);
width = 392;
},
{
layerId = "E10EC336-1202-48FF-9A55-15876E80CDFD";
paths = (
{
closed = 1;
nodes = (
"582 1780 LINE",
"648 1600 LINE",
"492 1600 LINE",
"372 1780 LINE"
);
},
{
closed = 1;
nodes = (
"408 1470 LINE",
"624 1470 LINE",
"312 0 LINE",
"96 0 LINE"
);
}
);
width = 392;
},
{
layerId = "38BA14EB-08C8-4487-88C1-8F957131FCA1";
paths = (
{
closed = 1;
nodes = (
"262 1780 LINE",
"320 1600 LINE",
"446 1600 LINE",
"422 1780 LINE"
);
},
{
closed = 1;
nodes = (
"-54 0 LINE",
"110 0 LINE",
"422 1470 LINE",
"256 1470 LINE"
);
}
);
width = 296;
},
{
layerId = "6463F33F-C059-4755-9C76-9F35D70521A0";
paths = (
{
closed = 1;
nodes = (
"-20 1780 LINE",
"76 1600 LINE",
"202 1600 LINE",
"140 1780 LINE"
);
},
{
closed = 1;
nodes = (
"40 0 LINE",
"206 0 LINE",
"206 1470 LINE",
"40 1470 LINE"
);
}
);
width = 296;
}
);
leftKerningGroup = l;
rightKerningGroup = l;
unicode = 00CC;
},
{
color = 0;
glyphname = Imacron;
lastChange = "2019-09-28 02:44:12 +0000";
layers = (
{
layerId = "1AB499B8-18A8-432D-A211-B6882CCB886D";
paths = (
{
closed = 1;
nodes = (
"80 1470 LINE",
"296 1470 LINE",
"296 0 LINE",
"80 0 LINE"
);
},
{
closed = 1;
nodes = (
"-4 1818 LINE",
"384 1818 LINE",
"384 1660 LINE",
"-4 1660 LINE"
);
}
);
width = 376;
},
{
layerId = "E10EC336-1202-48FF-9A55-15876E80CDFD";
paths = (
{
closed = 1;
nodes = (
"382 1818 LINE",
"770 1818 LINE",
"736 1660 LINE",
"348 1660 LINE"
);
},
{
closed = 1;
nodes = (
"392 1470 LINE",
"608 1470 LINE",
"296 0 LINE",
"80 0 LINE"
);
}
);
width = 376;
},
{
layerId = "38BA14EB-08C8-4487-88C1-8F957131FCA1";
paths = (
{
closed = 1;
nodes = (
"236 1660 LINE",
"504 1660 LINE",
"536 1818 LINE",
"268 1818 LINE"
);
},
{
closed = 1;
nodes = (
"-66 0 LINE",
"98 0 LINE",
"410 1470 LINE",
"244 1470 LINE"
);
}
);
width = 286;
},
{
layerId = "6463F33F-C059-4755-9C76-9F35D70521A0";
paths = (
{
closed = 1;
nodes = (
"-20 1660 LINE",
"248 1660 LINE",
"248 1818 LINE",
"-20 1818 LINE"
);
},
{
closed = 1;
nodes = (
"30 0 LINE",
"196 0 LINE",
"196 1470 LINE",
"30 1470 LINE"
);
}
);
width = 286;
}
);
unicode = 012A;
},
{
color = 0;
glyphname = Iogonek;
lastChange = "2019-09-28 02:44:12 +0000";
layers = (
{
layerId = "1AB499B8-18A8-432D-A211-B6882CCB886D";
paths = (
{
closed = 1;
nodes = (
"80 1470 LINE",
"296 1470 LINE",
"296 0 LINE",
"80 0 LINE"
);
},
{
closed = 1;
nodes = (
"-24 -150 OFFCURVE",
"8 -100 OFFCURVE",
"42 -62 CURVE",
"60 -40 OFFCURVE",
"82 -18 OFFCURVE",
"108 0 CURVE",
"204 0 LINE",
"170 -30 OFFCURVE",
"146 -60 OFFCURVE",
"128 -100 CURVE",
"118 -120 OFFCURVE",
"114 -142 OFFCURVE",
"114 -166 CURVE SMOOTH",
"114 -224 OFFCURVE",
"168 -242 OFFCURVE",
"214 -242 CURVE SMOOTH",
"248 -242 OFFCURVE",
"274 -234 OFFCURVE",
"298 -224 CURVE",
"282 -358 LINE",
"240 -372 OFFCURVE",
"214 -376 OFFCURVE",
"180 -376 CURVE SMOOTH",
"50 -376 OFFCURVE",
"-24 -296 OFFCURVE",
"-24 -206 CURVE SMOOTH"
);
}
);
width = 376;
},
{
layerId = "E10EC336-1202-48FF-9A55-15876E80CDFD";
paths = (
{
closed = 1;
nodes = (
"204 0 LINE",
"162 -30 OFFCURVE",
"130 -62 OFFCURVE",
"106 -100 CURVE SMOOTH",
"92 -122 OFFCURVE",
"82 -144 OFFCURVE",
"78 -166 CURVE SMOOTH",
"72 -196 OFFCURVE",
"82 -212 OFFCURVE",
"98 -224 CURVE SMOOTH",
"114 -236 OFFCURVE",
"138 -242 OFFCURVE",
"162 -242 CURVE SMOOTH",
"196 -242 OFFCURVE",
"224 -234 OFFCURVE",
"250 -224 CURVE",
"204 -358 LINE",
"158 -372 OFFCURVE",
"134 -376 OFFCURVE",
"100 -376 CURVE SMOOTH",
"-28 -376 OFFCURVE",
"-88 -296 OFFCURVE",
"-66 -206 CURVE SMOOTH",
"-52 -150 OFFCURVE",
"-12 -100 OFFCURVE",
"28 -62 CURVE SMOOTH",
"50 -40 OFFCURVE",
"78 -18 OFFCURVE",
"108 0 CURVE",
"80 0 LINE",
"392 1470 LINE",
"608 1470 LINE",
"296 0 LINE"
);
}
);
width = 376;
},
{
layerId = "38BA14EB-08C8-4487-88C1-8F957131FCA1";
paths = (
{
closed = 1;
nodes = (
"136 0 LINE",
"450 1470 LINE",
"284 1470 LINE",
"-28 0 LINE",
"-8 0 LINE",
"-28 -22 OFFCURVE",
"-44 -42 OFFCURVE",
"-54 -56 CURVE",
"-56 -58 OFFCURVE",
"-58 -60 OFFCURVE",
"-60 -62 CURVE",
"-88 -100 OFFCURVE",
"-122 -158 OFFCURVE",
"-132 -206 CURVE SMOOTH",
"-152 -296 OFFCURVE",
"-118 -376 OFFCURVE",
"-28 -376 CURVE SMOOTH",
"-2 -376 OFFCURVE",
"18 -370 OFFCURVE",
"54 -352 CURVE",
"94 -202 LINE",
"60 -224 OFFCURVE",
"28 -242 OFFCURVE",
"18 -242 CURVE SMOOTH",
"0 -242 OFFCURVE",
"-18 -224 OFFCURVE",
"-6 -166 CURVE",
"-2 -142 OFFCURVE",
"4 -120 OFFCURVE",
"14 -100 CURVE SMOOTH",
"34 -60 OFFCURVE",
"58 -26 OFFCURVE",
"78 0 CURVE"
);
}
);
width = 286;
},
{
layerId = "6463F33F-C059-4755-9C76-9F35D70521A0";
paths = (
{
closed = 1;
nodes = (
"196 0 LINE",
"196 1470 LINE",
"30 1470 LINE",
"30 0 LINE",
"50 0 LINE",
"34 -22 OFFCURVE",
"22 -42 OFFCURVE",
"14 -56 CURVE",
"14 -58 OFFCURVE",
"12 -60 OFFCURVE",
"10 -62 CURVE",
"-10 -100 OFFCURVE",
"-32 -158 OFFCURVE",
"-32 -206 CURVE SMOOTH",
"-32 -296 OFFCURVE",
"18 -376 OFFCURVE",
"108 -376 CURVE SMOOTH",
"134 -376 OFFCURVE",
"156 -370 OFFCURVE",
"188 -352 CURVE",
"196 -202 LINE",
"166 -224 OFFCURVE",
"138 -242 OFFCURVE",
"128 -242 CURVE SMOOTH",
"108 -242 OFFCURVE",
"86 -224 OFFCURVE",
"86 -166 CURVE SMOOTH",
"86 -142 OFFCURVE",
"88 -120 OFFCURVE",
"94 -100 CURVE SMOOTH",
"106 -60 OFFCURVE",
"122 -26 OFFCURVE",
"138 0 CURVE"
);
}
);
width = 286;
}
);
unicode = 012E;
},
{
color = 0;
glyphname = Itilde;
lastChange = "2019-09-28 02:44:12 +0000";
layers = (
{
layerId = "1AB499B8-18A8-432D-A211-B6882CCB886D";
paths = (
{
closed = 1;
nodes = (
"80 1470 LINE",
"296 1470 LINE",
"296 0 LINE",
"80 0 LINE"
);
},
{
closed = 1;
nodes = (
"72 1682 OFFCURVE",
"50 1674 OFFCURVE",
"28 1666 CURVE",
"16 1660 OFFCURVE",
"6 1656 OFFCURVE",
"-4 1650 CURVE",
"-4 1798 LINE",
"14 1812 OFFCURVE",
"38 1822 OFFCURVE",
"62 1830 CURVE SMOOTH",
"74 1834 OFFCURVE",
"88 1836 OFFCURVE",
"102 1836 CURVE SMOOTH",
"132 1836 OFFCURVE",
"162 1830 OFFCURVE",
"190 1820 CURVE",
"218 1808 OFFCURVE",
"248 1800 OFFCURVE",
"278 1798 CURVE",
"308 1798 OFFCURVE",
"330 1806 OFFCURVE",
"352 1814 CURVE",
"364 1820 OFFCURVE",
"374 1824 OFFCURVE",
"384 1830 CURVE",
"384 1682 LINE",
"366 1666 OFFCURVE",
"342 1656 OFFCURVE",
"318 1650 CURVE",
"306 1646 OFFCURVE",
"292 1644 OFFCURVE",
"278 1644 CURVE SMOOTH",
"248 1644 OFFCURVE",
"218 1650 OFFCURVE",
"192 1662 CURVE SMOOTH",
"164 1674 OFFCURVE",
"134 1680 OFFCURVE",
"102 1682 CURVE"
);
}
);
width = 376;
},
{
layerId = "E10EC336-1202-48FF-9A55-15876E80CDFD";
paths = (
{
closed = 1;
nodes = (
"378 1798 LINE",
"400 1812 OFFCURVE",
"424 1822 OFFCURVE",
"450 1830 CURVE SMOOTH",
"462 1834 OFFCURVE",
"476 1836 OFFCURVE",
"492 1836 CURVE SMOOTH",
"520 1836 OFFCURVE",
"548 1830 OFFCURVE",
"576 1820 CURVE",
"604 1806 OFFCURVE",
"632 1800 OFFCURVE",
"660 1798 CURVE",
"690 1798 OFFCURVE",
"712 1806 OFFCURVE",
"736 1814 CURVE SMOOTH",
"742 1816 OFFCURVE",
"748 1820 OFFCURVE",
"754 1822 CURVE SMOOTH",
"760 1824 OFFCURVE",
"766 1828 OFFCURVE",
"772 1830 CURVE",
"740 1682 LINE",
"718 1666 OFFCURVE",
"692 1656 OFFCURVE",
"668 1650 CURVE SMOOTH",
"654 1646 OFFCURVE",
"640 1644 OFFCURVE",
"626 1644 CURVE SMOOTH",
"596 1644 OFFCURVE",
"568 1650 OFFCURVE",
"544 1662 CURVE",
"520 1672 OFFCURVE",
"492 1680 OFFCURVE",
"458 1682 CURVE",
"428 1682 OFFCURVE",
"404 1674 OFFCURVE",
"382 1666 CURVE",
"368 1660 OFFCURVE",
"356 1656 OFFCURVE",
"346 1650 CURVE"
);
},
{
closed = 1;
nodes = (
"392 1470 LINE",
"608 1470 LINE",
"296 0 LINE",
"80 0 LINE"
);
}
);
width = 376;
},
{
layerId = "38BA14EB-08C8-4487-88C1-8F957131FCA1";
paths = (
{
closed = 1;
nodes = (
"-68 0 LINE",
"96 0 LINE",
"408 1470 LINE",
"242 1470 LINE"
);
},
{
closed = 1;
nodes = (
"224 1620 LINE",
"238 1634 OFFCURVE",
"294 1680 OFFCURVE",
"318 1680 CURVE SMOOTH",
"358 1680 OFFCURVE",
"372 1642 OFFCURVE",
"418 1642 CURVE SMOOTH",
"454 1642 OFFCURVE",
"486 1666 OFFCURVE",
"508 1692 CURVE",
"544 1858 LINE",
"528 1838 OFFCURVE",
"476 1800 OFFCURVE",
"450 1800 CURVE SMOOTH",
"412 1800 OFFCURVE",
"398 1834 OFFCURVE",
"352 1834 CURVE SMOOTH",
"322 1834 OFFCURVE",
"284 1818 OFFCURVE",
"262 1792 CURVE"
);
}
);
width = 286;
},
{
layerId = "6463F33F-C059-4755-9C76-9F35D70521A0";
paths = (
{
closed = 1;
nodes = (
"30 0 LINE",
"196 0 LINE",
"196 1470 LINE",
"30 1470 LINE"
);
},
{
closed = 1;
nodes = (
"-20 1620 LINE",
"-10 1634 OFFCURVE",
"36 1680 OFFCURVE",
"60 1680 CURVE SMOOTH",
"100 1680 OFFCURVE",
"122 1642 OFFCURVE",
"168 1642 CURVE SMOOTH",
"204 1642 OFFCURVE",
"232 1666 OFFCURVE",
"248 1692 CURVE",
"248 1858 LINE",
"236 1838 OFFCURVE",
"194 1800 OFFCURVE",
"168 1800 CURVE SMOOTH",
"130 1800 OFFCURVE",
"108 1834 OFFCURVE",
"62 1834 CURVE SMOOTH",
"32 1834 OFFCURVE",
"-2 1818 OFFCURVE",
"-20 1792 CURVE"
);
}
);
width = 286;
}
);
unicode = 0128;
},
{
color = 0;
glyphname = J;
lastChange = "2019-09-28 02:44:12 +0000";
layers = (
{
anchors = (
{
name = top;
position = "{208, 1470}";
}
);
layerId = "1AB499B8-18A8-432D-A211-B6882CCB886D";
paths = (
{
closed = 1;
nodes = (
"12 198 LINE",
"54 192 OFFCURVE",
"86 202 OFFCURVE",
"110 234 CURVE",
"122 248 OFFCURVE",
"128 272 OFFCURVE",
"128 306 CURVE SMOOTH",
"128 1470 LINE",
"344 1470 LINE",
"344 272 LINE SMOOTH",
"344 192 OFFCURVE",
"324 118 OFFCURVE",
"274 64 CURVE SMOOTH",
"224 10 OFFCURVE",
"140 -22 OFFCURVE",
"12 -14 CURVE"
);
}
);
width = 414;
},
{
anchors = (
{
name = top;
position = "{208, 1470}";
}
);
layerId = "E10EC336-1202-48FF-9A55-15876E80CDFD";
paths = (
{
closed = 1;
nodes = (
"54 198 LINE",
"96 192 OFFCURVE",
"130 204 OFFCURVE",
"158 234 CURVE",
"172 246 OFFCURVE",
"184 270 OFFCURVE",
"192 306 CURVE SMOOTH",
"440 1470 LINE",
"656 1470 LINE",
"400 272 LINE SMOOTH",
"384 192 OFFCURVE",
"348 118 OFFCURVE",
"286 64 CURVE SMOOTH",
"224 10 OFFCURVE",
"136 -22 OFFCURVE",
"8 -14 CURVE"
);
}
);
width = 414;
},
{
anchors = (
{
name = top;
position = "{154, 1470}";
}
);
layerId = "38BA14EB-08C8-4487-88C1-8F957131FCA1";
paths = (
{
closed = 1;
nodes = (
"-86 -12 LINE",
"96 -30 OFFCURVE",
"176 102 OFFCURVE",
"212 272 CURVE SMOOTH",
"466 1470 LINE",
"300 1470 LINE",
"52 306 LINE SMOOTH",
"44 266 OFFCURVE",
"20 190 OFFCURVE",
"-42 204 CURVE"
);
}
);
width = 308;
},
{
anchors = (
{
name = top;
position = "{154, 1470}";
}
);
layerId = "6463F33F-C059-4755-9C76-9F35D70521A0";
paths = (
{
closed = 1;
nodes = (
"-8 -12 LINE",
"180 -30 OFFCURVE",
"232 102 OFFCURVE",
"232 272 CURVE SMOOTH",
"232 1470 LINE",
"66 1470 LINE",
"66 306 LINE SMOOTH",
"66 266 OFFCURVE",
"58 190 OFFCURVE",
"-8 204 CURVE"
);
}
);
width = 308;
}
);
unicode = 004A;
},
{
color = 0;
glyphname = Jcircumflex;
lastChange = "2019-09-28 02:44:12 +0000";
layers = (
{
layerId = "1AB499B8-18A8-432D-A211-B6882CCB886D";
paths = (
{
closed = 1;
nodes = (
"12 198 LINE",
"54 192 OFFCURVE",
"86 202 OFFCURVE",
"110 234 CURVE",
"122 248 OFFCURVE",
"128 272 OFFCURVE",
"128 306 CURVE SMOOTH",
"128 1470 LINE",
"344 1470 LINE",
"344 272 LINE SMOOTH",
"344 192 OFFCURVE",
"324 118 OFFCURVE",
"274 64 CURVE SMOOTH",
"224 10 OFFCURVE",
"140 -22 OFFCURVE",
"12 -14 CURVE"
);
},
{
closed = 1;
nodes = (
"316 1830 LINE",
"454 1650 LINE",
"270 1650 LINE",
"208 1720 LINE",
"148 1650 LINE",
"-36 1650 LINE",
"102 1830 LINE"
);
}
);
width = 414;
},
{
layerId = "E10EC336-1202-48FF-9A55-15876E80CDFD";
paths = (
{
closed = 1;
nodes = (
"704 1830 LINE",
"804 1650 LINE",
"620 1650 LINE",
"572 1720 LINE",
"498 1650 LINE",
"314 1650 LINE",
"490 1830 LINE"
);
},
{
closed = 1;
nodes = (
"54 198 LINE",
"96 192 OFFCURVE",
"130 204 OFFCURVE",
"158 234 CURVE",
"172 246 OFFCURVE",
"184 270 OFFCURVE",
"192 306 CURVE SMOOTH",
"440 1470 LINE",
"656 1470 LINE",
"400 272 LINE SMOOTH",
"384 192 OFFCURVE",
"348 118 OFFCURVE",
"286 64 CURVE SMOOTH",
"224 10 OFFCURVE",
"136 -22 OFFCURVE",
"8 -14 CURVE"
);
}
);
width = 414;
},
{
layerId = "38BA14EB-08C8-4487-88C1-8F957131FCA1";
paths = (
{
closed = 1;
nodes = (
"340 1780 LINE",
"218 1600 LINE",
"348 1600 LINE",
"398 1678 LINE",
"416 1600 LINE",
"546 1600 LINE",
"502 1780 LINE"
);
},
{
closed = 1;
nodes = (
"-110 -12 LINE",
"72 -30 OFFCURVE",
"152 102 OFFCURVE",
"190 272 CURVE SMOOTH",
"444 1470 LINE",
"278 1470 LINE",
"30 306 LINE SMOOTH",
"22 266 OFFCURVE",
"0 190 OFFCURVE",
"-64 204 CURVE"
);
}
);
width = 308;
},
{
layerId = "6463F33F-C059-4755-9C76-9F35D70521A0";
paths = (
{
closed = 1;
nodes = (
"56 1780 LINE",
"-28 1600 LINE",
"102 1600 LINE",
"136 1678 LINE",
"170 1600 LINE",
"300 1600 LINE",
"218 1780 LINE"
);
},
{
closed = 1;
nodes = (
"-14 -12 LINE",
"174 -30 OFFCURVE",
"226 102 OFFCURVE",
"226 272 CURVE SMOOTH",
"226 1470 LINE",
"60 1470 LINE",
"60 306 LINE SMOOTH",
"60 266 OFFCURVE",
"52 190 OFFCURVE",
"-14 204 CURVE"
);
}
);
width = 308;
}
);
unicode = 0134;
},
{
color = 0;
glyphname = K;
lastChange = "2019-09-28 02:44:12 +0000";
layers = (
{
anchors = (
{
name = bottom;
position = "{376, 0}";
},
{
name = top;
position = "{376, 1470}";
}
);
layerId = "1AB499B8-18A8-432D-A211-B6882CCB886D";
paths = (
{
closed = 1;
nodes = (
"296 1470 LINE",
"296 980 LINE",
"296 956 LINE",
"304 956 LINE",
"314 980 LINE",
"494 1470 LINE",
"704 1470 LINE",
"506 986 LINE",
"730 0 LINE",
"520 0 LINE",
"370 640 LINE",
"364 670 LINE",
"358 670 LINE",
"346 640 LINE",
"296 520 LINE",
"296 0 LINE",
"80 0 LINE",
"80 1470 LINE"
);
}
);
width = 750;
},
{
anchors = (
{
name = bottom;
position = "{376, 0}";
},
{
name = top;
position = "{376, 1470}";
}
);
layerId = "E10EC336-1202-48FF-9A55-15876E80CDFD";
paths = (
{
closed = 1;
nodes = (
"608 1470 LINE",
"498 956 LINE",
"506 956 LINE",
"522 980 LINE",
"806 1470 LINE",
"1016 1470 LINE",
"714 986 LINE",
"730 0 LINE",
"520 0 LINE",
"506 640 LINE",
"506 670 LINE",
"500 670 LINE",
"482 640 LINE",
"406 520 LINE",
"296 0 LINE",
"80 0 LINE",
"392 1470 LINE"
);
}
);
width = 750;
},
{
anchors = (
{
name = bottom;
position = "{256, 0}";
},
{
name = top;
position = "{256, 1470}";
}
);
layerId = "38BA14EB-08C8-4487-88C1-8F957131FCA1";
paths = (
{
closed = 1;
nodes = (
"264 1470 LINE",
"-48 0 LINE",
"110 0 LINE",
"260 700 LINE",
"214 0 LINE",
"376 0 LINE",
"434 932 LINE",
"694 1470 LINE",
"532 1470 LINE",
"334 1048 LINE",
"424 1470 LINE"
);
}
);
width = 510;
},
{
anchors = (
{
name = bottom;
position = "{256, 0}";
},
{
name = top;
position = "{256, 1470}";
}
);
layerId = "6463F33F-C059-4755-9C76-9F35D70521A0";
paths = (
{
closed = 1;
nodes = (
"30 1470 LINE",
"30 0 LINE",
"190 0 LINE",
"190 700 LINE",
"294 0 LINE",
"456 0 LINE",
"314 932 LINE",
"460 1470 LINE",
"298 1470 LINE",
"190 1048 LINE",
"190 1470 LINE"
);
}
);
width = 510;
}
);
unicode = 004B;
},
{
color = 0;
glyphname = Kcommaaccent;
lastChange = "2019-09-28 02:44:12 +0000";
layers = (
{
layerId = "1AB499B8-18A8-432D-A211-B6882CCB886D";
paths = (
{
closed = 1;
nodes = (
"296 1470 LINE",
"296 980 LINE",
"296 956 LINE",
"304 956 LINE",
"314 980 LINE",
"494 1470 LINE",
"704 1470 LINE",
"506 986 LINE",
"730 0 LINE",
"520 0 LINE",
"370 640 LINE",
"364 670 LINE",
"358 670 LINE",
"346 640 LINE",
"296 520 LINE",
"296 0 LINE",
"80 0 LINE",
"80 1470 LINE"
);
},
{
closed = 1;
nodes = (
"430 -246 LINE",
"386 -376 LINE",
"284 -376 LINE",
"324 -246 LINE",
"262 -246 LINE",
"262 -108 LINE",
"430 -108 LINE"
);
}
);
width = 750;
},
{
layerId = "E10EC336-1202-48FF-9A55-15876E80CDFD";
paths = (
{
closed = 1;
nodes = (
"608 1470 LINE",
"498 956 LINE",
"506 956 LINE",
"522 980 LINE",
"806 1470 LINE",
"1016 1470 LINE",
"714 986 LINE",
"730 0 LINE",
"520 0 LINE",
"506 640 LINE",
"506 670 LINE",
"500 670 LINE",
"482 640 LINE",
"406 520 LINE",
"296 0 LINE",
"80 0 LINE",
"392 1470 LINE"
);
},
{
closed = 1;
nodes = (
"376 -246 LINE",
"306 -376 LINE",
"204 -376 LINE",
"270 -246 LINE",
"208 -246 LINE",
"238 -108 LINE",
"406 -108 LINE"
);
}
);
width = 750;
},
{
layerId = "38BA14EB-08C8-4487-88C1-8F957131FCA1";
paths = (
{
closed = 1;
nodes = (
"194 -108 LINE",
"58 -108 LINE",
"28 -246 LINE",
"64 -246 LINE",
"14 -376 LINE",
"112 -376 LINE",
"164 -246 LINE"
);
},
{
closed = 1;
nodes = (
"284 1470 LINE",
"-28 0 LINE",
"130 0 LINE",
"280 700 LINE",
"234 0 LINE",
"396 0 LINE",
"454 932 LINE",
"714 1470 LINE",
"552 1470 LINE",
"354 1048 LINE",
"444 1470 LINE"
);
}
);
width = 510;
},
{
layerId = "6463F33F-C059-4755-9C76-9F35D70521A0";
paths = (
{
closed = 1;
nodes = (
"276 -108 LINE",
"140 -108 LINE",
"140 -246 LINE",
"176 -246 LINE",
"152 -376 LINE",
"250 -376 LINE",
"276 -246 LINE"
);
},
{
closed = 1;
nodes = (
"30 1470 LINE",
"30 0 LINE",
"190 0 LINE",
"190 700 LINE",
"294 0 LINE",
"456 0 LINE",
"314 932 LINE",
"460 1470 LINE",
"298 1470 LINE",
"190 1048 LINE",
"190 1470 LINE"
);
}
);
width = 510;
}
);
unicode = 0136;
},
{
color = 0;
glyphname = L;
lastChange = "2019-09-28 02:44:12 +0000";
layers = (
{
anchors = (
{
name = bottom;
position = "{296, 0}";
},
{
name = top;
position = "{296, 1470}";
}
);
layerId = "1AB499B8-18A8-432D-A211-B6882CCB886D";
paths = (
{
closed = 1;
nodes = (
"80 1470 LINE",
"296 1470 LINE",
"296 200 LINE",
"582 200 LINE",
"582 0 LINE",
"80 0 LINE"
);
}
);
width = 590;
},
{
anchors = (
{
name = bottom;
position = "{296, 0}";
},
{
name = top;
position = "{296, 1470}";
}
);
layerId = "E10EC336-1202-48FF-9A55-15876E80CDFD";
paths = (
{
closed = 1;
nodes = (
"392 1470 LINE",
"608 1470 LINE",
"338 200 LINE",
"624 200 LINE",
"582 0 LINE",
"80 0 LINE"
);
}
);
width = 590;
},
{
anchors = (
{
name = bottom;
position = "{208, 0}";
},
{
name = top;
position = "{208, 1470}";
}
);
layerId = "38BA14EB-08C8-4487-88C1-8F957131FCA1";
paths = (
{
closed = 1;
nodes = (
"-48 0 LINE",
"288 0 LINE",
"332 200 LINE",
"160 200 LINE",
"430 1470 LINE",
"264 1470 LINE"
);
}
);
width = 414;
},
{
anchors = (
{
name = bottom;
position = "{208, 0}";
},
{
name = top;
position = "{208, 1470}";
}
);
layerId = "6463F33F-C059-4755-9C76-9F35D70521A0";
paths = (
{
closed = 1;
nodes = (
"30 0 LINE",
"368 0 LINE",
"368 200 LINE",
"196 200 LINE",
"196 1470 LINE",
"30 1470 LINE"
);
}
);
width = 414;
}
);
unicode = 004C;
},
{
color = 0;
glyphname = Lacute;
lastChange = "2019-09-28 02:44:12 +0000";
layers = (
{
layerId = "1AB499B8-18A8-432D-A211-B6882CCB886D";
paths = (
{
closed = 1;
nodes = (
"80 1470 LINE",
"296 1470 LINE",
"296 200 LINE",
"582 200 LINE",
"582 0 LINE",
"80 0 LINE"
);
},
{
closed = 1;
nodes = (
"454 1830 LINE",
"296 1650 LINE",
"140 1650 LINE",
"244 1830 LINE"
);
}
);
width = 590;
},
{
layerId = "E10EC336-1202-48FF-9A55-15876E80CDFD";
paths = (
{
closed = 1;
nodes = (
"842 1830 LINE",
"646 1650 LINE",
"490 1650 LINE",
"632 1830 LINE"
);
},
{
closed = 1;
nodes = (
"392 1470 LINE",
"608 1470 LINE",
"338 200 LINE",
"624 200 LINE",
"582 0 LINE",
"80 0 LINE"
);
}
);
width = 590;
},
{
layerId = "38BA14EB-08C8-4487-88C1-8F957131FCA1";
paths = (
{
closed = 1;
nodes = (
"418 1830 LINE",
"318 1650 LINE",
"446 1650 LINE",
"578 1830 LINE"
);
},
{
closed = 1;
nodes = (
"-66 0 LINE",
"270 0 LINE",
"312 200 LINE",
"140 200 LINE",
"410 1470 LINE",
"244 1470 LINE"
);
}
);
width = 414;
},
{
layerId = "6463F33F-C059-4755-9C76-9F35D70521A0";
paths = (
{
closed = 1;
nodes = (
"128 1830 LINE",
"66 1650 LINE",
"194 1650 LINE",
"288 1830 LINE"
);
},
{
closed = 1;
nodes = (
"30 0 LINE",
"368 0 LINE",
"368 200 LINE",
"196 200 LINE",
"196 1470 LINE",
"30 1470 LINE"
);
}
);
width = 414;
}
);
unicode = 0139;
},
{
color = 0;
glyphname = Lcaron;
lastChange = "2019-09-28 02:44:12 +0000";
layers = (
{
layerId = "1AB499B8-18A8-432D-A211-B6882CCB886D";
paths = (
{
closed = 1;
nodes = (
"80 1470 LINE",
"296 1470 LINE",
"296 200 LINE",
"582 200 LINE",
"582 0 LINE",
"80 0 LINE"
);
},
{
closed = 1;
nodes = (
"578 1474 LINE",
"468 1214 LINE",
"368 1214 LINE",
"438 1474 LINE",
"368 1474 LINE",
"368 1696 LINE",
"578 1696 LINE"
);
}
);
width = 590;
},
{
layerId = "E10EC336-1202-48FF-9A55-15876E80CDFD";
paths = (
{
closed = 1;
nodes = (
"890 1474 LINE",
"726 1214 LINE",
"626 1214 LINE",
"750 1474 LINE",
"680 1474 LINE",
"728 1696 LINE",
"938 1696 LINE"
);
},
{
closed = 1;
nodes = (
"392 1470 LINE",
"608 1470 LINE",
"338 200 LINE",
"624 200 LINE",
"582 0 LINE",
"80 0 LINE"
);
}
);
width = 590;
},
{
layerId = "38BA14EB-08C8-4487-88C1-8F957131FCA1";
paths = (
{
closed = 1;
nodes = (
"694 1696 LINE",
"532 1696 LINE",
"484 1474 LINE",
"526 1474 LINE",
"428 1214 LINE",
"524 1214 LINE",
"646 1474 LINE"
);
},
{
closed = 1;
nodes = (
"-60 0 LINE",
"276 0 LINE",
"320 200 LINE",
"148 200 LINE",
"418 1470 LINE",
"252 1470 LINE"
);
}
);
width = 474;
},
{
layerId = "6463F33F-C059-4755-9C76-9F35D70521A0";
paths = (
{
closed = 1;
nodes = (
"424 1696 LINE",
"262 1696 LINE",
"262 1474 LINE",
"304 1474 LINE",
"262 1214 LINE",
"358 1214 LINE",
"424 1474 LINE"
);
},
{
closed = 1;
nodes = (
"30 0 LINE",
"368 0 LINE",
"368 200 LINE",
"196 200 LINE",
"196 1470 LINE",
"30 1470 LINE"
);
}
);
width = 474;
}
);
unicode = 013D;
},
{
color = 0;
glyphname = Lcommaaccent;
lastChange = "2019-09-28 02:44:12 +0000";
layers = (
{
layerId = "1AB499B8-18A8-432D-A211-B6882CCB886D";
paths = (
{
closed = 1;
nodes = (
"80 1470 LINE",
"296 1470 LINE",
"296 200 LINE",
"582 200 LINE",
"582 0 LINE",
"80 0 LINE"
);
},
{
closed = 1;
nodes = (
"430 -246 LINE",
"386 -376 LINE",
"284 -376 LINE",
"324 -246 LINE",
"262 -246 LINE",
"262 -108 LINE",
"430 -108 LINE"
);
}
);
width = 590;
},
{
layerId = "E10EC336-1202-48FF-9A55-15876E80CDFD";
paths = (
{
closed = 1;
nodes = (
"392 1470 LINE",
"608 1470 LINE",
"338 200 LINE",
"624 200 LINE",
"582 0 LINE",
"80 0 LINE"
);
},
{
closed = 1;
nodes = (
"376 -246 LINE",
"306 -376 LINE",
"204 -376 LINE",
"270 -246 LINE",
"208 -246 LINE",
"238 -108 LINE",
"406 -108 LINE"
);
}
);
width = 590;
},
{
layerId = "38BA14EB-08C8-4487-88C1-8F957131FCA1";
paths = (
{
closed = 1;
nodes = (
"-28 0 LINE",
"308 0 LINE",
"352 200 LINE",
"180 200 LINE",
"450 1470 LINE",
"284 1470 LINE"
);
},
{
closed = 1;
nodes = (
"194 -108 LINE",
"58 -108 LINE",
"28 -246 LINE",
"64 -246 LINE",
"14 -376 LINE",
"112 -376 LINE",
"164 -246 LINE"
);
}
);
width = 414;
},
{
layerId = "6463F33F-C059-4755-9C76-9F35D70521A0";
paths = (
{
closed = 1;
nodes = (
"30 0 LINE",
"368 0 LINE",
"368 200 LINE",
"196 200 LINE",
"196 1470 LINE",
"30 1470 LINE"
);
},
{
closed = 1;
nodes = (
"276 -108 LINE",
"140 -108 LINE",
"140 -246 LINE",
"176 -246 LINE",
"152 -376 LINE",
"250 -376 LINE",
"276 -246 LINE"
);
}
);
width = 414;
}
);
unicode = 013B;
},
{
color = 0;
glyphname = Ldot;
lastChange = "2019-09-28 02:44:12 +0000";
layers = (
{
layerId = "1AB499B8-18A8-432D-A211-B6882CCB886D";
paths = (
{
closed = 1;
nodes = (
"80 1470 LINE",
"296 1470 LINE",
"296 200 LINE",
"582 200 LINE",
"582 0 LINE",
"80 0 LINE"
);
},
{
closed = 1;
nodes = (
"372 880 LINE",
"582 880 LINE",
"582 658 LINE",
"372 658 LINE"
);
}
);
width = 590;
},
{
layerId = "E10EC336-1202-48FF-9A55-15876E80CDFD";
paths = (
{
closed = 1;
nodes = (
"392 1470 LINE",
"608 1470 LINE",
"338 200 LINE",
"624 200 LINE",
"582 0 LINE",
"80 0 LINE"
);
},
{
closed = 1;
nodes = (
"558 880 LINE",
"768 880 LINE",
"720 658 LINE",
"510 658 LINE"
);
}
);
width = 590;
},
{
layerId = "38BA14EB-08C8-4487-88C1-8F957131FCA1";
paths = (
{
closed = 1;
nodes = (
"-48 0 LINE",
"288 0 LINE",
"332 200 LINE",
"160 200 LINE",
"430 1470 LINE",
"264 1470 LINE"
);
},
{
closed = 1;
nodes = (
"306 658 LINE",
"468 658 LINE",
"516 880 LINE",
"354 880 LINE"
);
}
);
width = 446;
},
{
layerId = "6463F33F-C059-4755-9C76-9F35D70521A0";
paths = (
{
closed = 1;
nodes = (
"30 0 LINE",
"368 0 LINE",
"368 200 LINE",
"196 200 LINE",
"196 1470 LINE",
"30 1470 LINE"
);
},
{
closed = 1;
nodes = (
"246 658 LINE",
"408 658 LINE",
"408 880 LINE",
"246 880 LINE"
);
}
);
width = 446;
}
);
unicode = 013F;
},
{
color = 0;
glyphname = Lslash;
lastChange = "2019-09-28 02:44:12 +0000";
layers = (
{
layerId = "1AB499B8-18A8-432D-A211-B6882CCB886D";
paths = (
{
closed = 1;
nodes = (
"40 764 LINE",
"104 814 LINE",
"104 1470 LINE",
"320 1470 LINE",
"320 982 LINE",
"438 1074 LINE",
"438 858 LINE",
"320 766 LINE",
"320 200 LINE",
"606 200 LINE",
"606 0 LINE",
"104 0 LINE",
"104 598 LINE",
"40 548 LINE"
);
}
);
width = 614;
},
{
layerId = "E10EC336-1202-48FF-9A55-15876E80CDFD";
paths = (
{
closed = 1;
nodes = (
"202 764 LINE",
"276 814 LINE",
"416 1470 LINE",
"632 1470 LINE",
"528 982 LINE",
"666 1074 LINE",
"620 858 LINE",
"482 766 LINE",
"362 200 LINE",
"648 200 LINE",
"606 0 LINE",
"104 0 LINE",
"230 598 LINE",
"156 548 LINE"
);
}
);
width = 614;
},
{
layerId = "38BA14EB-08C8-4487-88C1-8F957131FCA1";
paths = (
{
closed = 1;
nodes = (
"26 500 LINE",
"26 500 OFFCURVE",
"82 564 OFFCURVE",
"86 566 CURVE",
"-34 0 LINE",
"302 0 LINE",
"346 200 LINE",
"174 200 LINE",
"294 766 LINE",
"292 766 LINE",
"384 862 LINE",
"438 1118 LINE",
"350 1026 LINE",
"444 1470 LINE",
"278 1470 LINE",
"140 824 LINE",
"142 824 LINE",
"82 764 LINE"
);
}
);
width = 428;
},
{
layerId = "6463F33F-C059-4755-9C76-9F35D70521A0";
paths = (
{
closed = 1;
nodes = (
"-2 500 LINE",
"-2 500 OFFCURVE",
"42 564 OFFCURVE",
"44 566 CURVE",
"44 0 LINE",
"382 0 LINE",
"382 200 LINE",
"210 200 LINE",
"210 766 LINE",
"208 766 LINE",
"280 862 LINE",
"280 1118 LINE",
"210 1026 LINE",
"210 1470 LINE",
"44 1470 LINE",
"44 824 LINE",
"46 824 LINE",
"-2 764 LINE"
);
}
);
width = 428;
}
);
unicode = 0141;
},
{
color = 0;
glyphname = M;
lastChange = "2019-09-28 02:44:12 +0000";
layers = (
{
layerId = "1AB499B8-18A8-432D-A211-B6882CCB886D";
paths = (
{
closed = 1;
nodes = (
"438 0 LINE",
"300 924 LINE",
"292 986 LINE",
"280 986 LINE",
"280 924 LINE",
"280 0 LINE",
"80 0 LINE",
"80 1470 LINE",
"344 1470 LINE",
"472 798 LINE",
"482 720 LINE",
"486 720 LINE",
"496 798 LINE",
"624 1470 LINE",
"888 1470 LINE",
"888 0 LINE",
"688 0 LINE",
"688 924 LINE",
"688 986 LINE",
"676 986 LINE",
"668 924 LINE",
"530 0 LINE"
);
}
);
width = 968;
},
{
layerId = "E10EC336-1202-48FF-9A55-15876E80CDFD";
paths = (
{
closed = 1;
nodes = (
"438 0 LINE",
"496 924 LINE",
"500 986 LINE",
"488 986 LINE",
"280 0 LINE",
"80 0 LINE",
"392 1470 LINE",
"656 1470 LINE",
"640 798 LINE",
"634 720 LINE",
"638 720 LINE",
"664 798 LINE",
"936 1470 LINE",
"1200 1470 LINE",
"888 0 LINE",
"688 0 LINE",
"896 986 LINE",
"884 986 LINE",
"864 924 LINE",
"530 0 LINE"
);
}
);
width = 968;
},
{
layerId = "38BA14EB-08C8-4487-88C1-8F957131FCA1";
paths = (
{
closed = 1;
nodes = (
"256 0 LINE",
"466 724 LINE",
"316 0 LINE",
"470 0 LINE",
"784 1470 LINE",
"600 1470 LINE",
"376 776 LINE",
"448 1470 LINE",
"264 1470 LINE",
"-48 0 LINE",
"104 0 LINE",
"258 724 LINE",
"166 0 LINE"
);
}
);
width = 640;
},
{
layerId = "6463F33F-C059-4755-9C76-9F35D70521A0";
paths = (
{
closed = 1;
nodes = (
"336 0 LINE",
"392 724 LINE",
"396 0 LINE",
"550 0 LINE",
"550 1470 LINE",
"366 1470 LINE",
"290 776 LINE",
"214 1470 LINE",
"30 1470 LINE",
"30 0 LINE",
"184 0 LINE",
"184 724 LINE",
"246 0 LINE"
);
}
);
width = 640;
}
);
unicode = 004D;
},
{
color = 0;
glyphname = N;
lastChange = "2019-09-28 02:44:12 +0000";
layers = (
{
anchors = (
{
name = bottom;
position = "{396, 0}";
},
{
name = top;
position = "{396, 1470}";
}
);
layerId = "1AB499B8-18A8-432D-A211-B6882CCB886D";
paths = (
{
closed = 1;
nodes = (
"308 766 LINE",
"290 834 LINE",
"278 834 LINE",
"278 766 LINE",
"278 0 LINE",
"80 0 LINE",
"80 1470 LINE",
"272 1470 LINE",
"482 704 LINE",
"500 636 LINE",
"512 636 LINE",
"512 704 LINE",
"512 1470 LINE",
"710 1470 LINE",
"710 0 LINE",
"518 0 LINE"
);
}
);
width = 790;
},
{
anchors = (
{
name = bottom;
position = "{396, 0}";
},
{
name = top;
position = "{396, 1470}";
}
);
layerId = "E10EC336-1202-48FF-9A55-15876E80CDFD";
paths = (
{
closed = 1;
nodes = (
"470 766 LINE",
"466 834 LINE",
"454 834 LINE",
"278 0 LINE",
"80 0 LINE",
"392 1470 LINE",
"584 1470 LINE",
"630 704 LINE",
"634 636 LINE",
"646 636 LINE",
"824 1470 LINE",
"1022 1470 LINE",
"710 0 LINE",
"518 0 LINE"
);
}
);
width = 790;
},
{
anchors = (
{
name = bottom;
position = "{268, 0}";
},
{
name = top;
position = "{268, 1470}";
}
);
layerId = "38BA14EB-08C8-4487-88C1-8F957131FCA1";
paths = (
{
closed = 1;
nodes = (
"224 0 LINE",
"364 0 LINE",
"678 1470 LINE",
"524 1470 LINE",
"376 776 LINE",
"404 1470 LINE",
"264 1470 LINE",
"-48 0 LINE",
"104 0 LINE",
"256 714 LINE"
);
}
);
width = 534;
},
{
anchors = (
{
name = bottom;
position = "{268, 0}";
},
{
name = top;
position = "{268, 1470}";
}
);
layerId = "6463F33F-C059-4755-9C76-9F35D70521A0";
paths = (
{
closed = 1;
nodes = (
"304 0 LINE",
"444 0 LINE",
"444 1470 LINE",
"290 1470 LINE",
"290 776 LINE",
"170 1470 LINE",
"30 1470 LINE",
"30 0 LINE",
"184 0 LINE",
"184 714 LINE"
);
}
);
width = 534;
}
);
unicode = 004E;
},
{
color = 0;
glyphname = Nacute;
lastChange = "2019-09-28 02:44:12 +0000";
layers = (
{
layerId = "1AB499B8-18A8-432D-A211-B6882CCB886D";
paths = (
{
closed = 1;
nodes = (
"308 766 LINE",
"290 834 LINE",
"278 834 LINE",
"278 766 LINE",
"278 0 LINE",
"80 0 LINE",
"80 1470 LINE",
"272 1470 LINE",
"482 704 LINE",
"500 636 LINE",
"512 636 LINE",
"512 704 LINE",
"512 1470 LINE",
"710 1470 LINE",
"710 0 LINE",
"518 0 LINE"
);
},
{
closed = 1;
nodes = (
"554 1830 LINE",
"396 1650 LINE",
"240 1650 LINE",
"344 1830 LINE"
);
}
);
width = 790;
},
{
layerId = "E10EC336-1202-48FF-9A55-15876E80CDFD";
paths = (
{
closed = 1;
nodes = (
"942 1830 LINE",
"746 1650 LINE",
"590 1650 LINE",
"732 1830 LINE"
);
},
{
closed = 1;
nodes = (
"470 766 LINE",
"466 834 LINE",
"454 834 LINE",
"278 0 LINE",
"80 0 LINE",
"392 1470 LINE",
"584 1470 LINE",
"630 704 LINE",
"634 636 LINE",
"646 636 LINE",
"824 1470 LINE",
"1022 1470 LINE",
"710 0 LINE",
"518 0 LINE"
);
}
);
width = 790;
},
{
layerId = "38BA14EB-08C8-4487-88C1-8F957131FCA1";
paths = (
{
closed = 1;
nodes = (
"478 1830 LINE",
"378 1650 LINE",
"506 1650 LINE",
"638 1830 LINE"
);
},
{
closed = 1;
nodes = (
"206 0 LINE",
"346 0 LINE",
"658 1470 LINE",
"504 1470 LINE",
"356 776 LINE",
"384 1470 LINE",
"244 1470 LINE",
"-66 0 LINE",
"86 0 LINE",
"238 714 LINE"
);
}
);
width = 534;
},
{
layerId = "6463F33F-C059-4755-9C76-9F35D70521A0";
paths = (
{
closed = 1;
nodes = (
"188 1830 LINE",
"126 1650 LINE",
"254 1650 LINE",
"348 1830 LINE"
);
},
{
closed = 1;
nodes = (
"304 0 LINE",
"444 0 LINE",
"444 1470 LINE",
"290 1470 LINE",
"290 776 LINE",
"170 1470 LINE",
"30 1470 LINE",
"30 0 LINE",
"184 0 LINE",
"184 714 LINE"
);
}
);
width = 534;
}
);
unicode = 0143;
},
{
color = 0;
glyphname = Ncaron;
lastChange = "2019-09-28 02:44:12 +0000";
layers = (
{
layerId = "1AB499B8-18A8-432D-A211-B6882CCB886D";
paths = (
{
closed = 1;
nodes = (
"308 766 LINE",
"290 834 LINE",
"278 834 LINE",
"278 766 LINE",
"278 0 LINE",
"80 0 LINE",
"80 1470 LINE",
"272 1470 LINE",
"482 704 LINE",
"500 636 LINE",
"512 636 LINE",
"512 704 LINE",
"512 1470 LINE",
"710 1470 LINE",
"710 0 LINE",
"518 0 LINE"
);
},
{
closed = 1;
nodes = (
"290 1650 LINE",
"152 1830 LINE",
"336 1830 LINE",
"396 1760 LINE",
"458 1830 LINE",
"642 1830 LINE",
"504 1650 LINE"
);
}
);
width = 790;
},
{
layerId = "E10EC336-1202-48FF-9A55-15876E80CDFD";
paths = (
{
closed = 1;
nodes = (
"640 1650 LINE",
"540 1830 LINE",
"724 1830 LINE",
"770 1760 LINE",
"846 1830 LINE",
"1030 1830 LINE",
"854 1650 LINE"
);
},
{
closed = 1;
nodes = (
"470 766 LINE",
"466 834 LINE",
"454 834 LINE",
"278 0 LINE",
"80 0 LINE",
"392 1470 LINE",
"584 1470 LINE",
"630 704 LINE",
"634 636 LINE",
"646 636 LINE",
"824 1470 LINE",
"1022 1470 LINE",
"710 0 LINE",
"518 0 LINE"
);
}
);
width = 790;
},
{
layerId = "38BA14EB-08C8-4487-88C1-8F957131FCA1";
paths = (
{
closed = 1;
nodes = (
"206 0 LINE",
"346 0 LINE",
"658 1470 LINE",
"504 1470 LINE",
"356 776 LINE",
"384 1470 LINE",
"244 1470 LINE",
"-66 0 LINE",
"86 0 LINE",
"238 714 LINE"
);
},
{
closed = 1;
nodes = (
"572 1650 LINE",
"692 1830 LINE",
"562 1830 LINE",
"512 1752 LINE",
"494 1830 LINE",
"364 1830 LINE",
"410 1650 LINE"
);
}
);
width = 534;
},
{
layerId = "6463F33F-C059-4755-9C76-9F35D70521A0";
paths = (
{
closed = 1;
nodes = (
"304 0 LINE",
"444 0 LINE",
"444 1470 LINE",
"290 1470 LINE",
"290 776 LINE",
"170 1470 LINE",
"30 1470 LINE",
"30 0 LINE",
"184 0 LINE",
"184 714 LINE"
);
},
{
closed = 1;
nodes = (
"320 1650 LINE",
"402 1830 LINE",
"272 1830 LINE",
"238 1752 LINE",
"204 1830 LINE",
"74 1830 LINE",
"158 1650 LINE"
);
}
);
width = 534;
}
);
unicode = 0147;
},
{
color = 0;
glyphname = Ncommaaccent;
lastChange = "2019-09-28 02:44:12 +0000";
layers = (
{
layerId = "1AB499B8-18A8-432D-A211-B6882CCB886D";
paths = (
{
closed = 1;
nodes = (
"308 766 LINE",
"290 834 LINE",
"278 834 LINE",
"278 766 LINE",
"278 0 LINE",
"80 0 LINE",
"80 1470 LINE",
"272 1470 LINE",
"482 704 LINE",
"500 636 LINE",
"512 636 LINE",
"512 704 LINE",
"512 1470 LINE",
"710 1470 LINE",
"710 0 LINE",
"518 0 LINE"
);
},
{
closed = 1;
nodes = (
"430 -246 LINE",
"386 -376 LINE",
"284 -376 LINE",
"324 -246 LINE",
"262 -246 LINE",
"262 -108 LINE",
"430 -108 LINE"
);
}
);
width = 790;
},
{
layerId = "E10EC336-1202-48FF-9A55-15876E80CDFD";
paths = (
{
closed = 1;
nodes = (
"470 766 LINE",
"466 834 LINE",
"454 834 LINE",
"278 0 LINE",
"80 0 LINE",
"392 1470 LINE",
"584 1470 LINE",
"630 704 LINE",
"634 636 LINE",
"646 636 LINE",
"824 1470 LINE",
"1022 1470 LINE",
"710 0 LINE",
"518 0 LINE"
);
},
{
closed = 1;
nodes = (
"376 -246 LINE",
"306 -376 LINE",
"204 -376 LINE",
"270 -246 LINE",
"208 -246 LINE",
"238 -108 LINE",
"406 -108 LINE"
);
}
);
width = 790;
},
{
layerId = "38BA14EB-08C8-4487-88C1-8F957131FCA1";
paths = (
{
closed = 1;
nodes = (
"194 -108 LINE",
"58 -108 LINE",
"28 -246 LINE",
"64 -246 LINE",
"14 -376 LINE",
"112 -376 LINE",
"164 -246 LINE"
);
},
{
closed = 1;
nodes = (
"244 0 LINE",
"384 0 LINE",
"698 1470 LINE",
"544 1470 LINE",
"396 776 LINE",
"424 1470 LINE",
"284 1470 LINE",
"-28 0 LINE",
"124 0 LINE",
"276 714 LINE"
);
}
);
width = 534;
},
{
layerId = "6463F33F-C059-4755-9C76-9F35D70521A0";
paths = (
{
closed = 1;
nodes = (
"276 -108 LINE",
"140 -108 LINE",
"140 -246 LINE",
"176 -246 LINE",
"152 -376 LINE",
"250 -376 LINE",
"276 -246 LINE"
);
},
{
closed = 1;
nodes = (
"304 0 LINE",
"444 0 LINE",
"444 1470 LINE",
"290 1470 LINE",
"290 776 LINE",
"170 1470 LINE",
"30 1470 LINE",
"30 0 LINE",
"184 0 LINE",
"184 714 LINE"
);
}
);
width = 534;
}
);
unicode = 0145;
},
{
color = 0;
glyphname = Eng;
lastChange = "2019-09-28 02:44:12 +0000";
layers = (
{
layerId = "1AB499B8-18A8-432D-A211-B6882CCB886D";
paths = (
{
closed = 1;
nodes = (
"308 766 LINE",
"290 834 LINE",
"278 834 LINE",
"278 766 LINE",
"278 0 LINE",
"80 0 LINE",
"80 1470 LINE",
"272 1470 LINE",
"482 704 LINE",
"500 636 LINE",
"512 636 LINE",
"512 704 LINE",
"512 1470 LINE",
"710 1470 LINE",
"710 0 LINE",
"518 0 LINE"
);
},
{
closed = 1;
nodes = (
"432 -40 LINE",
"466 -46 OFFCURVE",
"496 -36 OFFCURVE",
"516 -6 CURVE SMOOTH",
"526 8 OFFCURVE",
"530 32 OFFCURVE",
"530 62 CURVE SMOOTH",
"530 1170 LINE",
"710 1170 LINE",
"710 30 LINE SMOOTH",
"710 -44 OFFCURVE",
"694 -118 OFFCURVE",
"652 -168 CURVE SMOOTH",
"610 -218 OFFCURVE",
"538 -250 OFFCURVE",
"432 -242 CURVE"
);
}
);
width = 790;
},
{
layerId = "E10EC336-1202-48FF-9A55-15876E80CDFD";
paths = (
{
closed = 1;
nodes = (
"1022 1470 LINE",
"710 0 LINE",
"692 -64 OFFCURVE",
"662 -122 OFFCURVE",
"616 -168 CURVE",
"562 -218 OFFCURVE",
"484 -250 OFFCURVE",
"380 -242 CURVE",
"422 -40 LINE",
"458 -46 OFFCURVE",
"488 -36 OFFCURVE",
"514 -6 CURVE",
"516 -4 OFFCURVE",
"516 -4 OFFCURVE",
"516 -2 CURVE",
"516 -2 OFFCURVE",
"518 -2 OFFCURVE",
"520 0 CURVE",
"518 0 LINE",
"470 766 LINE",
"466 834 LINE",
"454 834 LINE",
"278 0 LINE",
"80 0 LINE",
"392 1470 LINE",
"584 1470 LINE",
"630 704 LINE",
"634 636 LINE",
"646 636 LINE",
"824 1470 LINE"
);
}
);
width = 790;
},
{
layerId = "38BA14EB-08C8-4487-88C1-8F957131FCA1";
paths = (
{
closed = 1;
nodes = (
"536 1470 LINE",
"388 772 LINE",
"418 1470 LINE",
"276 1470 LINE",
"-34 0 LINE",
"118 0 LINE",
"268 704 LINE",
"226 0 LINE",
"210 -24 OFFCURVE",
"192 -40 OFFCURVE",
"170 -32 CURVE",
"124 -240 LINE",
"208 -252 OFFCURVE",
"270 -220 OFFCURVE",
"306 -168 CURVE SMOOTH",
"338 -122 OFFCURVE",
"362 -62 OFFCURVE",
"378 0 CURVE",
"690 1470 LINE"
);
}
);
width = 534;
},
{
layerId = "6463F33F-C059-4755-9C76-9F35D70521A0";
paths = (
{
closed = 1;
nodes = (
"290 1470 LINE",
"290 772 LINE",
"172 1470 LINE",
"30 1470 LINE",
"30 0 LINE",
"184 0 LINE",
"184 704 LINE",
"292 0 LINE",
"282 -24 OFFCURVE",
"266 -40 OFFCURVE",
"242 -32 CURVE",
"242 -240 LINE",
"328 -252 OFFCURVE",
"382 -220 OFFCURVE",
"408 -168 CURVE SMOOTH",
"430 -122 OFFCURVE",
"442 -62 OFFCURVE",
"444 0 CURVE SMOOTH",
"444 1470 LINE"
);
}
);
width = 534;
}
);
unicode = 014A;
},
{
color = 0;
glyphname = Ntilde;
lastChange = "2019-09-28 02:44:12 +0000";
layers = (
{
layerId = "1AB499B8-18A8-432D-A211-B6882CCB886D";
paths = (
{
closed = 1;
nodes = (
"308 766 LINE",
"290 834 LINE",
"278 834 LINE",
"278 766 LINE",
"278 0 LINE",
"80 0 LINE",
"80 1470 LINE",
"272 1470 LINE",
"482 704 LINE",
"500 636 LINE",
"512 636 LINE",
"512 704 LINE",
"512 1470 LINE",
"710 1470 LINE",
"710 0 LINE",
"518 0 LINE"
);
},
{
closed = 1;
nodes = (
"278 1626 OFFCURVE",
"256 1618 OFFCURVE",
"234 1610 CURVE",
"222 1604 OFFCURVE",
"212 1600 OFFCURVE",
"202 1594 CURVE",
"202 1742 LINE",
"220 1756 OFFCURVE",
"244 1766 OFFCURVE",
"268 1774 CURVE SMOOTH",
"280 1778 OFFCURVE",
"294 1780 OFFCURVE",
"308 1780 CURVE SMOOTH",
"338 1780 OFFCURVE",
"368 1774 OFFCURVE",
"396 1764 CURVE",
"424 1752 OFFCURVE",
"454 1744 OFFCURVE",
"484 1742 CURVE",
"514 1742 OFFCURVE",
"536 1750 OFFCURVE",
"558 1758 CURVE",
"570 1764 OFFCURVE",
"580 1768 OFFCURVE",
"590 1774 CURVE",
"590 1626 LINE",
"572 1610 OFFCURVE",
"548 1600 OFFCURVE",
"524 1594 CURVE",
"512 1590 OFFCURVE",
"498 1588 OFFCURVE",
"484 1588 CURVE SMOOTH",
"454 1588 OFFCURVE",
"424 1594 OFFCURVE",
"398 1606 CURVE SMOOTH",
"370 1618 OFFCURVE",
"340 1624 OFFCURVE",
"308 1626 CURVE"
);
}
);
width = 790;
},
{
layerId = "E10EC336-1202-48FF-9A55-15876E80CDFD";
paths = (
{
closed = 1;
nodes = (
"572 1742 LINE",
"594 1756 OFFCURVE",
"618 1766 OFFCURVE",
"644 1774 CURVE SMOOTH",
"656 1778 OFFCURVE",
"670 1780 OFFCURVE",
"686 1780 CURVE SMOOTH",
"714 1780 OFFCURVE",
"742 1774 OFFCURVE",
"770 1764 CURVE",
"798 1750 OFFCURVE",
"826 1744 OFFCURVE",
"854 1742 CURVE",
"884 1742 OFFCURVE",
"906 1750 OFFCURVE",
"930 1758 CURVE SMOOTH",
"936 1760 OFFCURVE",
"942 1764 OFFCURVE",
"948 1766 CURVE SMOOTH",
"954 1768 OFFCURVE",
"960 1772 OFFCURVE",
"966 1774 CURVE",
"934 1626 LINE",
"916 1612 OFFCURVE",
"892 1600 OFFCURVE",
"862 1594 CURVE",
"848 1590 OFFCURVE",
"834 1588 OFFCURVE",
"820 1588 CURVE SMOOTH",
"790 1588 OFFCURVE",
"762 1594 OFFCURVE",
"738 1606 CURVE",
"714 1616 OFFCURVE",
"686 1624 OFFCURVE",
"652 1626 CURVE",
"622 1626 OFFCURVE",
"598 1618 OFFCURVE",
"576 1610 CURVE SMOOTH",
"570 1608 OFFCURVE",
"564 1604 OFFCURVE",
"558 1602 CURVE SMOOTH",
"552 1600 OFFCURVE",
"546 1596 OFFCURVE",
"540 1594 CURVE"
);
},
{
closed = 1;
nodes = (
"470 766 LINE",
"466 834 LINE",
"454 834 LINE",
"278 0 LINE",
"80 0 LINE",
"392 1470 LINE",
"584 1470 LINE",
"630 704 LINE",
"634 636 LINE",
"646 636 LINE",
"824 1470 LINE",
"1022 1470 LINE",
"710 0 LINE",
"518 0 LINE"
);
}
);
width = 790;
},
{
layerId = "38BA14EB-08C8-4487-88C1-8F957131FCA1";
paths = (
{
closed = 1;
nodes = (
"208 0 LINE",
"348 0 LINE",
"660 1470 LINE",
"506 1470 LINE",
"358 776 LINE",
"386 1470 LINE",
"246 1470 LINE",
"-64 0 LINE",
"88 0 LINE",
"238 714 LINE"
);
},
{
closed = 1;
nodes = (
"338 1566 LINE",
"350 1580 OFFCURVE",
"406 1626 OFFCURVE",
"430 1626 CURVE SMOOTH",
"470 1626 OFFCURVE",
"484 1588 OFFCURVE",
"530 1588 CURVE SMOOTH",
"566 1588 OFFCURVE",
"600 1612 OFFCURVE",
"622 1638 CURVE",
"656 1804 LINE",
"640 1784 OFFCURVE",
"590 1746 OFFCURVE",
"564 1746 CURVE SMOOTH",
"526 1746 OFFCURVE",
"512 1780 OFFCURVE",
"466 1780 CURVE SMOOTH",
"436 1780 OFFCURVE",
"398 1764 OFFCURVE",
"374 1738 CURVE"
);
}
);
width = 534;
},
{
layerId = "6463F33F-C059-4755-9C76-9F35D70521A0";
paths = (
{
closed = 1;
nodes = (
"304 0 LINE",
"444 0 LINE",
"444 1470 LINE",
"290 1470 LINE",
"290 776 LINE",
"170 1470 LINE",
"30 1470 LINE",
"30 0 LINE",
"184 0 LINE",
"184 714 LINE"
);
},
{
closed = 1;
nodes = (
"102 1566 LINE",
"112 1580 OFFCURVE",
"158 1626 OFFCURVE",
"182 1626 CURVE SMOOTH",
"222 1626 OFFCURVE",
"244 1588 OFFCURVE",
"290 1588 CURVE SMOOTH",
"326 1588 OFFCURVE",
"354 1612 OFFCURVE",
"370 1638 CURVE",
"370 1804 LINE",
"358 1784 OFFCURVE",
"316 1746 OFFCURVE",
"290 1746 CURVE SMOOTH",
"252 1746 OFFCURVE",
"230 1780 OFFCURVE",
"184 1780 CURVE SMOOTH",
"154 1780 OFFCURVE",
"120 1764 OFFCURVE",
"102 1738 CURVE"
);
}
);
width = 534;
}
);
unicode = 00D1;
},
{
color = 0;
glyphname = O;
lastChange = "2019-09-28 02:44:12 +0000";
layers = (
{
anchors = (
{
name = top;
position = "{354, 1470}";
}
);
layerId = "1AB499B8-18A8-432D-A211-B6882CCB886D";
paths = (
{
closed = 1;
nodes = (
"642 302 LINE SMOOTH",
"640 242 OFFCURVE",
"628 188 OFFCURVE",
"606 142 CURVE SMOOTH",
"588 102 OFFCURVE",
"560 64 OFFCURVE",
"520 34 CURVE SMOOTH",
"480 2 OFFCURVE",
"426 -16 OFFCURVE",
"354 -16 CURVE SMOOTH",
"282 -16 OFFCURVE",
"226 2 OFFCURVE",
"186 34 CURVE SMOOTH",
"146 64 OFFCURVE",
"120 102 OFFCURVE",
"102 142 CURVE SMOOTH",
"80 188 OFFCURVE",
"68 242 OFFCURVE",
"66 302 CURVE",
"66 1168 LINE SMOOTH",
"68 1226 OFFCURVE",
"80 1280 OFFCURVE",
"102 1326 CURVE SMOOTH",
"120 1366 OFFCURVE",
"146 1406 OFFCURVE",
"186 1436 CURVE SMOOTH",
"226 1466 OFFCURVE",
"282 1486 OFFCURVE",
"354 1486 CURVE SMOOTH",
"426 1486 OFFCURVE",
"480 1466 OFFCURVE",
"520 1436 CURVE SMOOTH",
"560 1406 OFFCURVE",
"588 1366 OFFCURVE",
"606 1326 CURVE SMOOTH",
"628 1280 OFFCURVE",
"640 1226 OFFCURVE",
"642 1168 CURVE SMOOTH"
);
},
{
closed = 1;
nodes = (
"426 1168 LINE SMOOTH",
"426 1208 OFFCURVE",
"418 1236 OFFCURVE",
"398 1260 CURVE",
"388 1270 OFFCURVE",
"372 1276 OFFCURVE",
"354 1276 CURVE SMOOTH",
"316 1276 OFFCURVE",
"298 1248 OFFCURVE",
"290 1222 CURVE",
"284 1206 OFFCURVE",
"282 1188 OFFCURVE",
"282 1168 CURVE SMOOTH",
"282 302 LINE SMOOTH",
"282 260 OFFCURVE",
"292 232 OFFCURVE",
"312 210 CURVE",
"322 200 OFFCURVE",
"336 194 OFFCURVE",
"354 194 CURVE SMOOTH",
"392 194 OFFCURVE",
"410 218 OFFCURVE",
"418 248 CURVE",
"424 262 OFFCURVE",
"426 280 OFFCURVE",
"426 302 CURVE SMOOTH"
);
}
);
width = 708;
},
{
anchors = (
{
name = top;
position = "{354, 1470}";
}
);
layerId = "E10EC336-1202-48FF-9A55-15876E80CDFD";
paths = (
{
closed = 1;
nodes = (
"706 302 LINE",
"690 242 OFFCURVE",
"666 188 OFFCURVE",
"636 142 CURVE",
"606 102 OFFCURVE",
"572 64 OFFCURVE",
"526 34 CURVE",
"478 0 OFFCURVE",
"420 -16 OFFCURVE",
"350 -16 CURVE SMOOTH",
"280 -16 OFFCURVE",
"228 0 OFFCURVE",
"192 34 CURVE SMOOTH",
"158 64 OFFCURVE",
"140 102 OFFCURVE",
"132 142 CURVE",
"118 188 OFFCURVE",
"118 240 OFFCURVE",
"130 302 CURVE SMOOTH",
"314 1168 LINE SMOOTH",
"328 1226 OFFCURVE",
"350 1278 OFFCURVE",
"382 1326 CURVE",
"412 1366 OFFCURVE",
"444 1406 OFFCURVE",
"490 1436 CURVE SMOOTH",
"536 1466 OFFCURVE",
"596 1486 OFFCURVE",
"668 1486 CURVE SMOOTH",
"740 1486 OFFCURVE",
"790 1466 OFFCURVE",
"824 1436 CURVE SMOOTH",
"858 1406 OFFCURVE",
"878 1366 OFFCURVE",
"886 1326 CURVE",
"900 1282 OFFCURVE",
"900 1230 OFFCURVE",
"890 1168 CURVE"
);
},
{
closed = 1;
nodes = (
"674 1168 LINE SMOOTH",
"682 1208 OFFCURVE",
"678 1238 OFFCURVE",
"664 1260 CURVE",
"656 1270 OFFCURVE",
"642 1276 OFFCURVE",
"624 1276 CURVE SMOOTH",
"586 1276 OFFCURVE",
"562 1248 OFFCURVE",
"548 1222 CURVE SMOOTH",
"540 1206 OFFCURVE",
"534 1188 OFFCURVE",
"530 1168 CURVE SMOOTH",
"346 302 LINE",
"336 264 OFFCURVE",
"340 232 OFFCURVE",
"356 210 CURVE",
"364 200 OFFCURVE",
"376 194 OFFCURVE",
"394 194 CURVE SMOOTH",
"432 194 OFFCURVE",
"456 218 OFFCURVE",
"470 248 CURVE SMOOTH",
"476 260 OFFCURVE",
"484 278 OFFCURVE",
"490 302 CURVE"
);
}
);
width = 708;
},
{
anchors = (
{
name = top;
position = "{242, 1470}";
}
);
layerId = "38BA14EB-08C8-4487-88C1-8F957131FCA1";
paths = (
{
closed = 1;
nodes = (
"594 1188 LINE SMOOTH",
"620 1308 OFFCURVE",
"616 1486 OFFCURVE",
"456 1486 CURVE SMOOTH",
"306 1486 OFFCURVE",
"224 1340 OFFCURVE",
"192 1188 CURVE SMOOTH",
"0 282 LINE SMOOTH",
"-28 142 OFFCURVE",
"-16 -16 OFFCURVE",
"138 -16 CURVE SMOOTH",
"290 -16 OFFCURVE",
"368 130 OFFCURVE",
"400 282 CURVE SMOOTH"
);
},
{
closed = 1;
nodes = (
"234 282 LINE",
"226 236 OFFCURVE",
"204 194 OFFCURVE",
"184 194 CURVE SMOOTH",
"166 194 OFFCURVE",
"158 228 OFFCURVE",
"168 282 CURVE SMOOTH",
"362 1188 LINE SMOOTH",
"372 1236 OFFCURVE",
"392 1276 OFFCURVE",
"414 1276 CURVE SMOOTH",
"436 1276 OFFCURVE",
"438 1234 OFFCURVE",
"428 1188 CURVE SMOOTH"
);
}
);
width = 484;
},
{
anchors = (
{
name = top;
position = "{242, 1470}";
}
);
layerId = "6463F33F-C059-4755-9C76-9F35D70521A0";
paths = (
{
closed = 1;
nodes = (
"420 1188 LINE SMOOTH",
"420 1308 OFFCURVE",
"380 1486 OFFCURVE",
"220 1486 CURVE SMOOTH",
"70 1486 OFFCURVE",
"18 1340 OFFCURVE",
"18 1188 CURVE SMOOTH",
"18 282 LINE SMOOTH",
"18 142 OFFCURVE",
"64 -16 OFFCURVE",
"220 -16 CURVE SMOOTH",
"372 -16 OFFCURVE",
"420 130 OFFCURVE",
"420 282 CURVE SMOOTH"
);
},
{
closed = 1;
nodes = (
"254 282 LINE SMOOTH",
"254 236 OFFCURVE",
"242 194 OFFCURVE",
"222 194 CURVE SMOOTH",
"204 194 OFFCURVE",
"188 228 OFFCURVE",
"188 282 CURVE SMOOTH",
"188 1188 LINE SMOOTH",
"188 1236 OFFCURVE",
"200 1276 OFFCURVE",
"222 1276 CURVE SMOOTH",
"244 1276 OFFCURVE",
"254 1234 OFFCURVE",
"254 1188 CURVE SMOOTH"
);
}
);
width = 484;
}
);
unicode = 004F;
},
